<?xml version="1.0" standalone="no"?>
<!DOCTYPE svg PUBLIC "-//W3C//DTD SVG 1.1//EN" "http://www.w3.org/Graphics/SVG/1.1/DTD/svg11.dtd" >
<svg xmlns="http://www.w3.org/2000/svg" xmlns:xlink="http://www.w3.org/1999/xlink" version="1.1">
<metadata>
Created by FontForge 20170731 at Fri Nov  3 00:38:14 2023
 By Aleksey,,,
Copyright 2014, 2016 Indian Type Foundry. All rights reserved.
</metadata>
<defs>
<font id="KohinoorGujarati-Regular" horiz-adv-x="555" >
  <font-face 
    font-family="Kohinoor Gujarati"
    font-weight="400"
    font-stretch="normal"
    units-per-em="2048"
    panose-1="0 0 5 0 0 0 0 0 0 0"
    ascent="1638"
    descent="-410"
    bbox="-971 -891 3975 2021"
    underline-thickness="102"
    underline-position="-307"
    unicode-range="U+000D-25CC"
  />
<missing-glyph horiz-adv-x="1024" 
d="M0 0v1434h1024v-1434h-1024zM512 809l348 522h-696zM573 717l349 -522v1044zM164 102h696l-348 523zM102 1239v-1044l349 522z" />
    <glyph glyph-name=".notdef" horiz-adv-x="1024" 
d="M0 0v1434h1024v-1434h-1024zM512 809l348 522h-696zM573 717l349 -522v1044zM164 102h696l-348 523zM102 1239v-1044l349 522z" />
    <glyph glyph-name=".null" horiz-adv-x="0" 
 />
    <glyph glyph-name="nonmarkingreturn" horiz-adv-x="682" 
 />
    <glyph glyph-name="NULL" horiz-adv-x="0" 
 />
    <glyph glyph-name="NULL" horiz-adv-x="0" 
 />
    <glyph glyph-name="CR" unicode="&#xd;" horiz-adv-x="583" 
 />
    <glyph glyph-name="space" unicode=" " horiz-adv-x="583" 
 />
    <glyph glyph-name="exclam" unicode="!" horiz-adv-x="579" 
d="M348 504h-125q-21 517 -43 946h209q-5 -132 -41 -946zM166 121q0 54 35.5 90.5t85.5 36.5q54 0 90.5 -36.5t36.5 -90.5q0 -50 -36.5 -85.5t-90.5 -35.5q-49 0 -85 36t-36 85z" />
    <glyph glyph-name="quotedbl" unicode="&#x22;" horiz-adv-x="667" 
d="M238 1016h-115l-33 452h182zM545 1016h-117l-33 452h183z" />
    <glyph glyph-name="numbersign" unicode="#" horiz-adv-x="1374" 
d="M90 543h238l59 348h-227l6 131h244l67 393h144l-68 -393h399l68 393h143l-67 -393h194l-6 -131h-209l-59 -348h198l-6 -131h-215l-69 -412h-144l70 412h-399l-70 -412h-143l69 412h-223zM532 891l-61 -348h399l62 348h-400z" />
    <glyph glyph-name="dollar" unicode="$" horiz-adv-x="1083" 
d="M608 -283h-147l4 289q-238 11 -402 144l99 133q63 -55 156.5 -94t205.5 -39q151 0 223 61.5t72 159.5q0 47 -18 85t-56.5 69.5t-78.5 54t-105 51.5l-123 55q-68 30 -117.5 62t-92.5 75.5t-65 101t-22 128.5q0 146 100 240.5t255 117.5l-4 283h147l-4 -279
q194 -14 319 -112l-106 -127q-45 44 -122 70t-155 26q-124 0 -195 -56.5t-71 -154.5q0 -88 60 -143.5t182 -112.5l115 -53q80 -38 128 -66t98 -72t73.5 -100.5t23.5 -128.5q0 -89 -40 -166.5t-128 -135t-213 -73.5z" />
    <glyph glyph-name="percent" unicode="%" horiz-adv-x="1695" 
d="M1597 377q0 -195 -86 -296t-227 -101q-142 0 -223.5 97.5t-81.5 293.5q0 189 86.5 289t228.5 100q139 0 221 -96.5t82 -286.5zM1292 96q85 0 126.5 64.5t41.5 208.5q0 276 -176 276q-82 0 -124 -65t-42 -207q0 -277 174 -277zM406 43l-99 80l1016 1266l96 -80zM412 770
q-174 0 -174 277q0 143 41.5 207.5t123.5 64.5q177 0 177 -275q0 -145 -41.5 -209.5t-126.5 -64.5zM717 1051q0 190 -82 287.5t-221 97.5q-142 0 -229 -101.5t-87 -290.5q0 -196 81.5 -292.5t223.5 -96.5q141 0 227.5 100.5t86.5 295.5z" />
    <glyph glyph-name="ampersand" unicode="&#x26;" horiz-adv-x="1390" 
d="M82 367q0 281 344 395q-139 154 -139 317q0 143 101.5 240.5t262.5 97.5q157 0 252.5 -96t95.5 -238q0 -127 -78 -228t-257 -153q136 -151 366 -354q105 163 105 391h145q-3 -122 -39 -251.5t-106 -229.5q90 -83 284 -235v-23h-200q-112 87 -181 147q-176 -176 -475 -176
q-98 0 -180 23.5t-136.5 62.5t-92.5 91t-55 107t-17 112zM573 102q224 0 363 136q-296 275 -420 415q-141 -36 -212 -103.5t-71 -172.5q0 -52 21 -100t61.5 -87.5t107.5 -63.5t150 -24zM436 1079q0 -145 135 -274q84 22 141 51.5t86.5 66t41.5 74t12 84.5q0 86 -55.5 143.5
t-147.5 57.5q-96 0 -154.5 -54t-58.5 -149z" />
    <glyph glyph-name="quotesingle" unicode="'" horiz-adv-x="360" 
d="M238 1016h-115l-33 452h182z" />
    <glyph glyph-name="parenleft" unicode="(" horiz-adv-x="655" 
d="M168 606q0 166 34.5 325.5t84 274t110 213t106.5 152.5t81 82h170v-15q-88 -83 -164 -187.5t-139 -234t-99.5 -287t-36.5 -323.5q0 -165 36.5 -322.5t99.5 -286.5t139 -233.5t164 -187.5v-14h-170q-34 28 -80 82t-107 153t-110.5 213t-84 273t-34.5 323z" />
    <glyph glyph-name="parenright" unicode=")" horiz-adv-x="655" 
d="M487 606q0 166 -34.5 326t-84 274t-110.5 213t-106.5 152.5t-79.5 81.5h-170v-15q88 -83 164 -187.5t139 -234t99 -287t36 -323.5q0 -165 -36 -322.5t-99 -286.5t-139 -233.5t-164 -187.5v-14h168q34 28 80 82t107 153t110.5 213t84.5 273t35 323z" />
    <glyph glyph-name="asterisk" unicode="*" horiz-adv-x="825" 
d="M481 1313l-14 -168l156 65l110 37l43 -131l-110 -39l-164 -37l110 -129l70 -94l-113 -80l-71 94l-86 142l-88 -144l-68 -94l-111 82l68 96l109 125l-164 39l-111 37l41 131l113 -35l153 -63l-12 166v117h139v-117z" />
    <glyph glyph-name="plus" unicode="+" horiz-adv-x="1081" 
d="M612 219h-145v406h-406v141h406v408h145v-408h406v-141h-406v-406z" />
    <glyph glyph-name="comma" unicode="," horiz-adv-x="493" 
d="M137 -289l-51 84q70 30 111 73.5t41 94.5q0 48 -28 80t-89 63v15q0 53 35 88t90 35q65 0 107 -48.5t42 -134.5q0 -124 -79.5 -219.5t-178.5 -130.5z" />
    <glyph glyph-name="hyphen" unicode="-" horiz-adv-x="694" 
d="M643 539h-592v143h592v-143z" />
    <glyph glyph-name="period" unicode="." horiz-adv-x="456" 
d="M102 123q0 55 36 92t87 37q55 0 92 -37t37 -92q0 -51 -37 -87t-92 -36q-51 0 -87 36t-36 87z" />
    <glyph glyph-name="slash" unicode="/" horiz-adv-x="696" 
d="M553 1495l-555 -1771h143l557 1771h-145z" />
    <glyph glyph-name="zero" unicode="0" horiz-adv-x="1173" 
d="M580 -20q-238 0 -347.5 174t-109.5 542q0 371 116.5 553.5t354.5 182.5t347.5 -175t109.5 -544q0 -370 -116.5 -551.5t-354.5 -181.5zM289 713q0 -297 71 -441.5t232 -144.5q160 0 226.5 136t66.5 433q0 298 -71 443t-232 145t-227 -136.5t-66 -434.5z" />
    <glyph glyph-name="one" unicode="1" horiz-adv-x="880" 
d="M444 1411h172v-1411h-159v852q0 26 3.5 195t4.5 188h-8l-150 -105l-178 -124l-94 133z" />
    <glyph glyph-name="two" unicode="2" horiz-adv-x="1021" 
d="M264 152v-9q16 2 236 2h411v-145h-817l-24 145q33 30 257 283t240 277q79 92 113.5 172t34.5 174q0 105 -63 166t-167 61q-99 0 -154.5 -57.5t-70.5 -145.5l-164 39q28 132 132.5 220.5t267.5 88.5q178 0 282.5 -99t104.5 -261q0 -226 -201 -459q-10 -12 -102 -116
t-103 -115q-6 -5 -106.5 -110.5t-106.5 -110.5z" />
    <glyph glyph-name="three" unicode="3" horiz-adv-x="1044" 
d="M666 725v-8q51 -7 93.5 -27t78.5 -56t56.5 -95.5t20.5 -137.5q0 -201 -116.5 -309t-331.5 -108q-142 0 -245.5 61t-153.5 152l141 88q93 -158 276 -158q145 0 210 67.5t65 198.5q0 133 -78.5 188.5t-243.5 55.5h-90v139h90q145 0 211 67.5t66 203.5q0 105 -60 171
t-176 66q-187 0 -231 -186l-158 30q26 130 131 214.5t264 84.5q184 0 289 -95.5t105 -272.5q0 -139 -60 -225t-153 -109z" />
    <glyph glyph-name="four" unicode="4" horiz-adv-x="1079" 
d="M680 340h-592l-39 141l580 930h209v-928h202v-143h-202v-340h-158v340zM688 1245h-8q-23 -53 -152 -260l-309 -502h461v437q0 225 8 325z" />
    <glyph glyph-name="five" unicode="5" horiz-adv-x="1085" 
d="M532 -16q204 0 325.5 125.5t121.5 343.5q0 202 -102 304.5t-295 102.5q-139 0 -236 -74l-10 2l43 478h534v145h-675l-62 -713l174 -59q71 82 199 82q266 0 266 -283q0 -149 -67 -230t-201 -81q-107 0 -170 47.5t-101 126.5l-157 -78q123 -239 413 -239z" />
    <glyph glyph-name="six" unicode="6" horiz-adv-x="1093" 
d="M352 856l6 -6q89 57 240 57q184 0 289.5 -112t105.5 -328q0 -224 -121 -355.5t-319 -131.5q-424 0 -424 526q0 125 27.5 245t74.5 217.5t110 184t131.5 150t141.5 108.5h230v-18q-180 -105 -299.5 -232.5t-192.5 -304.5zM557 764q-146 0 -250 -70q-18 -69 -18 -186
q0 -203 75 -295t201 -92q129 0 196.5 80.5t67.5 240.5q0 322 -272 322z" />
    <glyph glyph-name="seven" unicode="7" horiz-adv-x="927" 
d="M674 1255v9q-158 -7 -250 -7h-406v154h803l41 -160q-46 -61 -93.5 -133t-112.5 -195t-113 -248.5t-82.5 -288t-34.5 -318.5v-68h-160v68q0 160 34 327.5t80.5 294.5t108.5 251t104 191.5t81 122.5z" />
    <glyph glyph-name="eight" unicode="8" horiz-adv-x="1165" 
d="M582 784q-122 0 -189 71t-67 200q0 113 67 175t191 62q122 0 189 -64.5t67 -176.5q0 -131 -68 -199t-190 -68zM580 -20q215 0 336.5 106t121.5 303q0 80 -21 142t-57.5 100.5t-79 61t-92.5 32.5v8q90 32 148.5 111.5t58.5 216.5q0 181 -109 276t-296 95t-303.5 -100
t-116.5 -285q0 -139 59 -220t146 -100v-8q-108 -33 -178 -118t-70 -226q0 -199 117.5 -297t335.5 -98zM575 647q299 0 299 -266q0 -128 -72.5 -196t-217.5 -68q-144 0 -218.5 69t-74.5 197q0 126 70.5 195t213.5 69z" />
    <glyph glyph-name="nine" unicode="9" horiz-adv-x="1077" 
d="M733 571l-4 4q-89 -55 -242 -55q-179 0 -288 109.5t-109 320.5q0 221 123 351.5t319 130.5q217 0 319.5 -137.5t102.5 -385.5q0 -154 -42 -301t-112 -261.5t-153 -202t-172 -144.5h-231v18q184 110 305.5 243.5t183.5 309.5zM528 664q133 0 250 71q13 86 13 168
q0 203 -72.5 294t-198.5 91q-129 0 -197.5 -78.5t-68.5 -232.5q0 -313 274 -313z" />
    <glyph glyph-name="colon" unicode=":" horiz-adv-x="456" 
d="M102 956q0 54 36 91.5t87 37.5q55 0 92 -37.5t37 -91.5q0 -53 -37 -89t-92 -36q-51 0 -87 36.5t-36 88.5zM102 137q0 55 36 92t87 37q55 0 92 -37t37 -92q0 -51 -37 -87t-92 -36q-51 0 -87 36t-36 87z" />
    <glyph glyph-name="semicolon" unicode=";" horiz-adv-x="493" 
d="M121 956q0 55 36.5 92t88.5 37q56 0 92.5 -36.5t36.5 -92.5q0 -51 -37 -86.5t-92 -35.5q-51 0 -88 35.5t-37 86.5zM135 -289l-49 78q73 31 113.5 76.5t40.5 97.5q0 50 -31.5 81.5t-91.5 61.5v15q0 53 35.5 88t89.5 35q65 0 107 -48.5t42 -134.5q0 -124 -79.5 -220.5
t-176.5 -129.5z" />
    <glyph glyph-name="less" unicode="&#x3c;" horiz-adv-x="1081" 
d="M229 705v8l295 121l494 221v166l-957 -439v-147l957 -438v165l-494 222z" />
    <glyph glyph-name="equal" unicode="=" horiz-adv-x="1081" 
d="M61 854v141h957v-141h-957zM61 395v142h957v-142h-957z" />
    <glyph glyph-name="greater" unicode="&#x3e;" horiz-adv-x="1081" 
d="M850 711v-9l-295 -120l-494 -220v-165l957 438v149l-957 437v-166l494 -221z" />
    <glyph glyph-name="question" unicode="?" horiz-adv-x="823" 
d="M360 1325q-64 0 -116 -17.5t-78 -36.5t-55 -48l-107 127q129 120 363 120q172 0 271 -83.5t99 -237.5q0 -69 -15.5 -126t-48.5 -107.5t-66 -87t-87 -87.5l-241 -221q-74 25 -74 94q0 42 37.5 87.5t91.5 89.5t108 92t91.5 111.5t37.5 131.5q0 94 -55.5 146.5t-155.5 52.5z
M240 121q0 54 35.5 90.5t86.5 36.5q54 0 89.5 -36t35.5 -91q0 -51 -35.5 -86t-89.5 -35q-52 0 -87 35t-35 86z" />
    <glyph glyph-name="at" unicode="@" horiz-adv-x="1875" 
d="M1286 -156l-61 119q-64 -43 -162 -70.5t-195 -27.5q-289 0 -439 147t-150 428q0 121 37 237t104.5 211t157.5 167.5t202.5 112.5t231.5 40q274 0 429.5 -135t155.5 -385q0 -120 -32.5 -219t-97 -159t-148.5 -60q-94 0 -94 96q0 48 16 162l59 387q-94 59 -253 59
q-95 0 -181 -35.5t-153 -100t-106.5 -165.5t-39.5 -223q0 -140 72.5 -227.5t218.5 -87.5q154 0 244 110h8q18 -48 66.5 -77t123.5 -29q132 0 235 78.5t157.5 211.5t54.5 296q0 191 -88.5 336t-250.5 223.5t-374 78.5q-250 0 -458.5 -124t-327.5 -334.5t-119 -458.5
q0 -323 187 -509.5t528 -186.5q123 0 242 30.5t200 83.5zM885 244q-87 0 -128.5 53.5t-41.5 161.5q0 157 90 260.5t229 103.5q68 0 111 -16l-47 -332q-5 -32 -11 -106q-23 -53 -78.5 -89t-123.5 -36z" />
    <glyph glyph-name="bracketleft" unicode="[" horiz-adv-x="634" 
d="M348 1530v-1847h244v-123h-393v2091h393v-121h-244z" />
    <glyph glyph-name="backslash" unicode="\" horiz-adv-x="696" 
d="M143 1495l555 -1771h-143l-557 1771h145z" />
    <glyph glyph-name="bracketright" unicode="]" horiz-adv-x="634" 
d="M287 1530v-1847h-244v-123h391v2091h-391v-121h244z" />
    <glyph glyph-name="asciicircum" unicode="^" horiz-adv-x="1087" 
d="M539 1325l-121 -295l-170 -393h-160l358 799h195l358 -797h-161l-170 393l-121 293h-8z" />
    <glyph glyph-name="underscore" unicode="_" horiz-adv-x="997" 
d="M997 -242h-995v138h995v-138z" />
    <glyph glyph-name="grave" unicode="`" horiz-adv-x="1028" 
d="M262 1528l406 -250l98 74l-350 262z" />
    <glyph glyph-name="braceleft" unicode="{" horiz-adv-x="677" 
d="M135 686v-156q99 -17 143 -66.5t44 -139.5q0 -67 -25 -222.5t-25 -242.5q0 -310 287 -310q55 0 113 21l-27 117q-46 -17 -86 -17q-137 0 -137 193q0 74 23.5 230.5t23.5 221.5q0 231 -188 289v8q96 28 142 103.5t46 183.5q0 66 -23.5 220.5t-23.5 228.5q0 192 137 192
q43 0 86 -16l27 116q-58 21 -117 21q-283 0 -283 -309q0 -88 25 -240.5t25 -218.5q0 -92 -44 -142t-143 -65z" />
    <glyph glyph-name="bar" unicode="|" horiz-adv-x="559" 
d="M342 -508h-125v2224h125v-2224z" />
    <glyph glyph-name="braceright" unicode="}" horiz-adv-x="677" 
d="M543 686v-156q-99 -17 -142 -66.5t-43 -139.5q0 -67 24 -222.5t24 -242.5q0 -310 -287 -310q-57 0 -111 21l25 117q46 -17 86 -17q137 0 137 193q0 74 -23.5 230.5t-23.5 221.5q0 230 190 289v8q-96 28 -143 103.5t-47 183.5q0 66 23.5 220.5t23.5 228.5q0 192 -137 192
q-43 0 -86 -16l-25 116q54 21 115 21q146 0 214.5 -78t68.5 -231q0 -88 -24 -240.5t-24 -218.5q0 -92 43.5 -142t141.5 -65z" />
    <glyph glyph-name="asciitilde" unicode="~" horiz-adv-x="1087" 
d="M51 530q-4 28 -4 50q0 110 62.5 173.5t169.5 63.5q64 0 140.5 -24t135 -52.5t127.5 -52.5t119 -24q100 0 100 110q0 26 -6 53q1 0 61.5 -7t77.5 -11q2 -18 2 -61q-3 -106 -63.5 -167t-163.5 -61q-65 0 -142.5 24.5t-136 53.5t-127 53.5t-118.5 24.5q-101 0 -101 -111
q0 -26 6 -53q-1 0 -61.5 7t-77.5 11z" />
    <glyph glyph-name="cent" unicode="&#xa2;" horiz-adv-x="968" 
d="M362 -262h-118l104 289q-235 110 -235 514q0 150 35.5 265t99.5 185.5t149 106t187 35.5q80 0 159 -21l91 248h118l-106 -295q29 -20 55 -51l-117 -115l-278 -770q30 -6 72 -6q137 0 217 90l96 -113q-102 -118 -330 -118q-49 0 -104 10zM272 561q0 -283 129 -385h2
l289 797q-44 20 -117 20q-142 0 -222.5 -104t-80.5 -328z" />
    <glyph glyph-name="sterling" unicode="&#xa3;" horiz-adv-x="1122" 
d="M119 147q72 39 108 103t43 174l15 211h-156v135h166l20 256q13 194 127.5 296.5t292.5 102.5q213 0 324 -129l-109 -114q-85 102 -239 102q-213 0 -232 -252l-20 -262h438v-135h-448l-15 -207q-17 -207 -131 -278v-9h750v-141h-906z" />
    <glyph glyph-name="yen" unicode="&#xa5;" horiz-adv-x="1060" 
d="M45 666v-140h404v-526h163v526h402v140h-326l371 749h-178l-213 -452l-129 -306h-9l-127 301l-213 457h-186l367 -749h-326z" />
    <glyph glyph-name="copyright" unicode="&#xa9;" horiz-adv-x="1708" 
d="M252 709q0 -173 77.5 -311.5t215.5 -217t311 -78.5q261 0 430.5 169.5t169.5 430.5q0 264 -170 435.5t-434 171.5q-263 0 -431.5 -169t-168.5 -431zM115 702q0 210 96.5 378.5t266 263t378.5 94.5q161 0 298 -54.5t233.5 -150t151 -231t54.5 -293.5q0 -209 -96 -377
t-265.5 -262.5t-379.5 -94.5q-214 0 -382.5 93t-261.5 258.5t-93 375.5zM535 700q0 201 95.5 312.5t252.5 111.5q88 0 143.5 -25.5t81.5 -58.5l-74 -96q-59 66 -157 66q-95 0 -152 -74t-57 -225q0 -155 57.5 -227t157.5 -72q92 0 151 63l70 -96q-87 -82 -232 -82
q-159 0 -248 101.5t-89 301.5z" />
    <glyph glyph-name="guillemotleft" unicode="&#xab;" horiz-adv-x="1009" 
d="M500 553l313 434l105 -82l-242 -352l242 -350l-105 -80zM92 553l314 434l104 -82l-242 -352l242 -350l-104 -80z" />
    <glyph glyph-name="registered" unicode="&#xae;" horiz-adv-x="1048" 
d="M520 684q150 0 246 96t96 246q0 151 -97 246.5t-243 95.5q-147 0 -241.5 -94.5t-94.5 -245.5q0 -150 95.5 -247t238.5 -97zM522 600q-189 0 -309.5 117t-120.5 307q0 189 123 309.5t309 120.5q190 0 310 -116.5t120 -307.5q0 -190 -122 -310t-310 -120zM520 981h-45v-166
h-86v447h141q72 0 113 -32.5t41 -99.5q0 -106 -82 -126l109 -189h-105zM475 1055h49q39 0 55.5 16t16.5 51q0 66 -64 66h-57v-133z" />
    <glyph glyph-name="degree" unicode="&#xb0;" horiz-adv-x="716" 
d="M68 1147q0 127 83.5 208t210.5 81t207 -77t80 -204q0 -125 -84 -206t-211 -81t-206.5 77t-79.5 202zM182 1153q0 -77 52 -130.5t128 -53.5q77 0 125 52t48 130q0 77 -52 130.5t-129 53.5q-76 0 -124 -52t-48 -130z" />
    <glyph glyph-name="periodcentered" unicode="&#xb7;" horiz-adv-x="473" 
d="M111 719q0 55 35.5 92t86.5 37q55 0 92 -37t37 -92q0 -51 -37 -87t-92 -36q-51 0 -86.5 36t-35.5 87z" />
    <glyph glyph-name="guillemotright" unicode="&#xbb;" horiz-adv-x="1009" 
d="M510 553l-313 434l-105 -82l242 -352l-242 -350l105 -80zM918 553l-314 434l-104 -82l241 -352l-241 -350l104 -80z" />
    <glyph glyph-name="danda" unicode="&#x964;" horiz-adv-x="823" 
d="M631 0h-152v1202h152v-1202z" />
    <glyph glyph-name="doubledanda" unicode="&#x965;" horiz-adv-x="1298" 
d="M618 0h-149v1202h149v-1202zM1096 0h-150v1202h150v-1202z" />
    <glyph glyph-name="gjCandrabindu" unicode="&#xa81;" horiz-adv-x="0" 
d="M-379 1915q0 44 31 75t74 31q44 0 74 -31t30 -75q0 -43 -30 -73t-74 -30q-43 0 -74 30t-31 73zM-274 1497q-143 0 -246.5 64.5t-153.5 169.5l117 67q81 -168 283 -168q203 0 284 168l117 -67q-50 -105 -153.5 -169.5t-247.5 -64.5z" />
    <glyph glyph-name="gjAnusvara" unicode="&#xa82;" horiz-adv-x="0" 
d="M-387 1657q0 46 31 77t75 31q46 0 77.5 -31t31.5 -77q0 -44 -31.5 -75.5t-77.5 -31.5q-44 0 -75 31.5t-31 75.5z" />
    <glyph glyph-name="gjVisarga" unicode="&#xa83;" horiz-adv-x="489" 
d="M143 297q0 46 31.5 77.5t75.5 31.5q46 0 77 -31.5t31 -77.5q0 -45 -31 -76t-77 -31q-44 0 -75.5 31.5t-31.5 75.5zM143 954q0 46 31.5 77.5t75.5 31.5q46 0 77 -31.5t31 -77.5q0 -44 -31 -75t-77 -31q-44 0 -75.5 31t-31.5 75z" />
    <glyph glyph-name="gjA" unicode="&#xa85;" horiz-adv-x="1847" 
d="M694 891q0 -139 -86.5 -228t-236.5 -106v-22q0 -55 17.5 -104t52.5 -90t94 -65t135 -24q140 0 218.5 86.5t78.5 234.5v412h147v-260h381v477h150v-1202h-150v588h-381v-23q0 -197 -120 -323.5t-326 -126.5q-199 0 -324 122t-125 300v18q-81 3 -131 18v119h184
q133 0 200 52.5t67 146.5q0 84 -52.5 131t-142.5 47q-70 0 -147 -29l-52 136q88 36 201 36q156 0 252 -88.5t96 -232.5z" />
    <glyph glyph-name="gjAA" unicode="&#xa86;" horiz-adv-x="2402" 
d="M2202 0h-152v1202h152v-1202zM694 891q0 -139 -86.5 -228t-236.5 -106v-22q0 -55 17.5 -104t52.5 -90t94 -65t135 -24q140 0 218.5 86.5t78.5 234.5v412h147v-260h381v477h150v-1202h-150v588h-381v-23q0 -197 -120 -323.5t-326 -126.5q-199 0 -324 122t-125 300v18
q-81 3 -131 18v119h184q133 0 200 52.5t67 146.5q0 84 -52.5 131t-142.5 47q-70 0 -147 -29l-52 136q88 36 201 36q156 0 252 -88.5t96 -232.5z" />
    <glyph glyph-name="gjI" unicode="&#xa87;" horiz-adv-x="1284" 
d="M1096 504q0 -129 -39 -228t-108.5 -160.5t-160 -92.5t-198.5 -31q-106 0 -192.5 30t-139 79t-80.5 109t-28 124q0 112 67.5 184t167.5 94v9q-88 26 -153.5 98.5t-65.5 187.5q0 126 98 213.5t254 87.5q131 0 232 -45l-39 -131q-81 37 -170 37q-97 0 -157 -52.5t-60 -135.5
q0 -89 70.5 -145t201.5 -56h90v-135h-96q-133 0 -208 -56.5t-75 -150.5q0 -89 74.5 -148t208.5 -59q173 0 265.5 98t92.5 279v582q0 285 213 360l72 -119q-25 -12 -42.5 -23.5t-36.5 -31.5t-31 -44.5t-19.5 -62.5t-7.5 -86v-579z" />
    <glyph glyph-name="gjII" unicode="&#xa88;" horiz-adv-x="1286" 
d="M1096 504q0 -129 -39 -228t-108.5 -160.5t-160 -92.5t-198.5 -31q-106 0 -192.5 30t-139 79t-80.5 109t-28 124q0 112 67.5 184t167.5 96v9q-89 25 -154 97t-65 187q0 130 100.5 215.5t253.5 85.5q121 0 225 -45l-40 -131q-75 37 -166 37q-92 0 -153.5 -51.5
t-61.5 -134.5q0 -91 71 -147t203 -56h88v-135h-96q-133 0 -208 -56.5t-75 -150.5q0 -89 74.5 -148t208.5 -59q173 0 265.5 98t92.5 279v870q0 130 69 202.5t177 72.5q65 0 117 -33t86 -88l-107 -84q-46 65 -96 65q-98 0 -98 -127v-882z" />
    <glyph glyph-name="gjU" unicode="&#xa89;" horiz-adv-x="1320" 
d="M1198 1552l-68 -129q-133 68 -284 68q-120 0 -223 -47t-180 -135.5t-120.5 -225.5t-43.5 -307q0 -161 39 -287t107.5 -203t155.5 -116t187 -39q122 0 192 58.5t70 146.5q0 93 -63.5 146t-186.5 53h-86v143h82q111 0 178.5 55.5t67.5 147.5q0 83 -51.5 132.5t-141.5 49.5
q-79 0 -161 -45l-62 129q100 57 225 57q154 0 248.5 -89.5t94.5 -225.5q0 -97 -52.5 -170t-138.5 -103v-8q88 -29 144.5 -98.5t56.5 -181.5q0 -63 -27 -121.5t-77 -106.5t-132.5 -77t-183.5 -29q-132 0 -246.5 50t-202.5 145.5t-139 247t-51 341.5q0 200 56 363t154 270
t229 165t282 58q194 0 352 -82z" />
    <glyph glyph-name="gjUU" unicode="&#xa8a;" horiz-adv-x="1837" 
d="M1176 328q0 -63 -27 -121.5t-77 -106.5t-132.5 -77t-183.5 -29q-132 0 -246.5 50t-202.5 145.5t-139 247t-51 341.5q0 199 62 363.5t170.5 273t255 168t315.5 59.5q221 0 384.5 -95t246.5 -257.5t83 -369.5v-920h-147v907q0 268 -155 430t-412 162q-140 0 -259 -48.5
t-206 -139.5t-136 -228.5t-49 -306.5q0 -161 39.5 -287t108 -203t155 -116t187.5 -39q122 0 192 58.5t70 146.5q0 93 -63.5 146t-186.5 53h-86v143h82q111 0 178.5 55.5t67.5 147.5q0 83 -51.5 132.5t-141.5 49.5q-79 0 -162 -45l-61 129q100 57 225 57q154 0 248 -89.5
t94 -225.5q0 -97 -52 -170t-138 -103v-8q88 -29 144.5 -98.5t56.5 -181.5z" />
    <glyph glyph-name="gjvR" unicode="&#xa8b;" horiz-adv-x="1751" 
d="M1528 1112q-46 -146 -185 -270q167 -110 250.5 -208.5t83.5 -211.5q0 -130 -91 -208.5t-234 -78.5q-107 0 -191 35l41 133q77 -31 146 -31q178 0 178 152q0 158 -305 326q-71 -47 -86 -56l-142 -86v-608h-147v522l-645 -379l-105 109l537 305q-15 65 -39 121t-60 108
t-89 82.5t-117 30.5q-118 0 -197 -106l-121 98q47 64 128 108.5t192 44.5q154 0 266 -112t160 -303l100 59q-10 70 -10 281v233h147v-438q106 61 179.5 114.5t112.5 97t57 73t30 63.5h156z" />
    <glyph glyph-name="gjvL" unicode="&#xa8c;" horiz-adv-x="1392" 
d="M1169 -125q-134 0 -223.5 68.5t-89.5 197.5q0 61 27.5 116.5t66.5 97.5t78 82.5t66.5 90.5t27.5 103q0 71 -45.5 118.5t-120.5 47.5q-84 0 -138 -54.5t-54 -154.5v-146h-143v146q0 98 -46.5 151.5t-125.5 53.5q-81 0 -135 -61.5t-54 -178.5q0 -141 75 -259t226 -194
l-94 -112q-158 81 -260.5 232.5t-102.5 336.5q0 172 99.5 270.5t234.5 98.5q94 0 157.5 -43.5t90.5 -118.5h8q26 61 78.5 104t120.5 58v276h143v-274q108 -23 172 -105.5t64 -193.5q0 -71 -27.5 -133t-67 -106.5t-79 -84.5t-67 -84t-27.5 -88q0 -63 44.5 -96t118.5 -33
q60 0 122 20t104 52l57 -119q-52 -38 -126.5 -60t-154.5 -22z" />
    <glyph glyph-name="gjEcandra" unicode="&#xa8d;" horiz-adv-x="1847" 
d="M694 891q0 -139 -86.5 -228t-236.5 -106v-22q0 -55 17.5 -104t52.5 -90t94 -65t135 -24q140 0 218.5 86.5t78.5 234.5v412h147v-260h381v477h150v-1202h-150v588h-381v-23q0 -197 -120 -323.5t-326 -126.5q-199 0 -324 122t-125 300v18q-81 3 -131 18v119h184
q133 0 200 52.5t67 146.5q0 84 -52.5 131t-142.5 47q-70 0 -147 -29l-52 136q88 36 201 36q156 0 252 -88.5t96 -232.5zM1970 1681q-56 -117 -162 -189.5t-264 -72.5q-159 0 -265.5 72.5t-162.5 189.5l113 64q46 -89 125 -141t190 -52t190.5 52.5t123.5 140.5z" />
    <glyph glyph-name="gjE" unicode="&#xa8f;" horiz-adv-x="1847" 
d="M694 891q0 -139 -86.5 -228t-236.5 -106v-22q0 -55 17.5 -104t52.5 -90t94 -65t135 -24q140 0 218.5 86.5t78.5 234.5v412h147v-260h381v477h150v-1202h-150v588h-381v-23q0 -197 -120 -323.5t-326 -126.5q-199 0 -324 122t-125 300v18q-81 3 -131 18v119h184
q133 0 200 52.5t67 146.5q0 84 -52.5 131t-142.5 47q-70 0 -147 -29l-52 136q88 36 201 36q156 0 252 -88.5t96 -232.5zM1636 1430l-106 -33q-206 175 -453 469l170 39z" />
    <glyph glyph-name="gjAI" unicode="&#xa90;" horiz-adv-x="1847" 
d="M694 891q0 -139 -86.5 -228t-236.5 -106v-22q0 -55 17.5 -104t52.5 -90t94 -65t135 -24q140 0 218.5 86.5t78.5 234.5v412h147v-260h381v477h150v-1202h-150v588h-381v-23q0 -197 -120 -323.5t-326 -126.5q-199 0 -324 122t-125 300v18q-81 3 -131 18v119h184
q133 0 200 52.5t67 146.5q0 84 -52.5 131t-142.5 47q-70 0 -147 -29l-52 136q88 36 201 36q156 0 252 -88.5t96 -232.5zM1507 1411l-75 -31q-307 177 -547 412l143 84zM1665 1415h-86q-14 19 -44.5 67t-91 157.5t-106.5 215.5l168 23z" />
    <glyph glyph-name="gjOcandra" unicode="&#xa91;" horiz-adv-x="2402" 
d="M694 891q0 -139 -86.5 -228t-236.5 -106v-22q0 -55 17.5 -104t52.5 -90t94 -65t135 -24q140 0 218.5 86.5t78.5 234.5v412h147v-260h381v477h150v-1202h-150v588h-381v-23q0 -197 -120 -323.5t-326 -126.5q-199 0 -324 122t-125 300v18q-81 3 -131 18v119h184
q133 0 200 52.5t67 146.5q0 84 -52.5 131t-142.5 47q-70 0 -147 -29l-52 136q88 36 201 36q156 0 252 -88.5t96 -232.5zM2202 0h-152v1202h152v-1202zM2552 1681q-56 -117 -162 -189.5t-264 -72.5q-159 0 -265.5 72.5t-162.5 189.5l112 64q46 -89 125 -141t191 -52
q110 0 189.5 52.5t123.5 140.5z" />
    <glyph glyph-name="gjO" unicode="&#xa93;" horiz-adv-x="2402" 
d="M694 891q0 -139 -86.5 -228t-236.5 -106v-22q0 -55 17.5 -104t52.5 -90t94 -65t135 -24q140 0 218.5 86.5t78.5 234.5v412h147v-260h381v477h150v-1202h-150v588h-381v-23q0 -197 -120 -323.5t-326 -126.5q-199 0 -324 122t-125 300v18q-81 3 -131 18v119h184
q133 0 200 52.5t67 146.5q0 84 -52.5 131t-142.5 47q-70 0 -147 -29l-52 136q88 36 201 36q156 0 252 -88.5t96 -232.5zM2202 0h-152v1202h152v-1202zM2189 1430l-106 -33q-206 175 -453 469l170 39z" />
    <glyph glyph-name="gjAU" unicode="&#xa94;" horiz-adv-x="2402" 
d="M694 891q0 -139 -86.5 -228t-236.5 -106v-22q0 -55 17.5 -104t52.5 -90t94 -65t135 -24q140 0 218.5 86.5t78.5 234.5v412h147v-260h381v477h150v-1202h-150v588h-381v-23q0 -197 -120 -323.5t-326 -126.5q-199 0 -324 122t-125 300v18q-81 3 -131 18v119h184
q133 0 200 52.5t67 146.5q0 84 -52.5 131t-142.5 47q-70 0 -147 -29l-52 136q88 36 201 36q156 0 252 -88.5t96 -232.5zM2202 0h-152v1202h152v-1202zM2068 1411l-75 -31q-307 177 -547 412l143 84zM2226 1415h-86q-14 19 -44.5 67t-91 157.5t-106.5 215.5l168 23z" />
    <glyph glyph-name="gjKA" unicode="&#xa95;" horiz-adv-x="1150" 
d="M379 637v8q-95 47 -156 119.5t-61 163.5q0 123 113 203.5t305 80.5q109 0 200 -25.5t148 -62.5l-74 -123q-45 30 -122.5 52t-143.5 22q-136 0 -205.5 -41.5t-69.5 -109.5q0 -136 289 -246q117 37 445 104v-133l-277 -53v-8q103 -46 167 -116.5t64 -166.5q0 -45 -14 -87.5
t-47.5 -84t-83 -72.5t-126 -50t-171.5 -19q-125 0 -239 37.5t-179 83.5l74 123q63 -43 156.5 -75t191.5 -32q139 0 211 50t72 128q0 73 -74 128.5t-225 117.5q-132 -41 -449 -107v138z" />
    <glyph glyph-name="gjKHA" unicode="&#xa96;" horiz-adv-x="1574" 
d="M868 975v-260h355v487h149v-1202h-149v580h-355q0 -162 -89 -257.5t-247 -95.5q-162 0 -258 96.5t-96 258.5v397q0 43 -24 65.5t-64 22.5q-32 0 -57 -10v131q53 16 100 16q87 0 141 -56t54 -161v-397q0 -225 204 -225q94 0 141.5 58.5t47.5 162.5v389h147z" />
    <glyph glyph-name="gjGA" unicode="&#xa97;" horiz-adv-x="1466" 
d="M1264 0h-152v1202h152v-1202zM8 580l133 65q30 -81 97 -125.5t153 -44.5q117 0 192.5 77t75.5 230q0 133 -69.5 210t-183.5 77q-82 0 -158 -43l-68 129q95 53 230 53q177 0 291 -116t114 -312q0 -209 -120.5 -326.5t-301.5 -117.5q-130 0 -234 65.5t-151 178.5z" />
    <glyph glyph-name="gjGHA" unicode="&#xa98;" horiz-adv-x="1363" 
d="M1012 281h-8q-60 -64 -177 -111t-247 -47q-189 0 -303.5 87.5t-114.5 225.5q0 89 53 148t137 86v8q-92 21 -148.5 86.5t-56.5 159.5q0 95 53.5 161t135.5 94.5t184 28.5q121 0 219 -39l-37 -133q-88 35 -180 35q-94 0 -156.5 -39t-62.5 -117q0 -77 69.5 -125.5
t219.5 -48.5h92v-133h-90q-128 0 -202.5 -44t-74.5 -122q0 -79 69.5 -130.5t203.5 -51.5q149 0 269 73.5t153 155.5v713h149v-1202h-149v281z" />
    <glyph glyph-name="gjNGA" unicode="&#xa99;" horiz-adv-x="1134" 
d="M84 115l80 123q143 -115 346 -115q129 0 201.5 54t72.5 145q0 52 -35.5 93t-92.5 69.5t-126 55.5t-137.5 58.5t-125.5 70t-92.5 99t-35.5 137.5q0 131 113.5 219t312.5 88q165 0 307 -61l-49 -133q-116 53 -262 53q-132 0 -199 -47.5t-67 -120.5q0 -41 22 -75.5
t59.5 -59.5t86 -47t102 -43t106.5 -43.5t101.5 -51.5t86 -64t59.5 -85t22 -110q0 -145 -115.5 -242.5t-320.5 -97.5q-139 0 -250.5 40.5t-169.5 90.5zM915 778q0 44 29 73.5t72 29.5t72.5 -29.5t29.5 -73.5q0 -40 -30 -69t-72 -29t-71.5 29t-29.5 69z" />
    <glyph glyph-name="gjCA" unicode="&#xa9a;" horiz-adv-x="1437" 
d="M1235 0h-152v305h-8q-12 -16 -27.5 -32.5t-51 -44t-76 -48t-102 -36t-128.5 -15.5q-102 0 -186 33.5t-141 91.5t-95 126t-61 148q-96 34 -96 144q0 84 53 147l108 12l35 -165h27q127 0 195.5 58t68.5 148t-52.5 143.5t-137.5 53.5q-79 0 -146 -29l-43 140q84 30 180 30
q159 0 255 -95.5t96 -240.5q0 -149 -109 -244t-287 -104q47 -136 126 -196t210 -60q88 0 163.5 31.5t122 78.5t73.5 93.5t34 85.5v643h152v-1202z" />
    <glyph glyph-name="gjCHA" unicode="&#xa9b;" horiz-adv-x="1497" 
d="M659 1182l-28 -131q-56 20 -133 20q-95 0 -154 -52.5t-59 -131.5q0 -94 71 -153.5t226 -59.5h69v-131h-65q-135 0 -208 -57t-73 -144q0 -37 15 -72t47 -67.5t93.5 -52t143.5 -19.5q183 0 348 109t258 276q-120 -3 -223 40t-168 131t-65 204q0 131 92.5 222t234.5 91
q151 0 248.5 -107.5t97.5 -285.5q0 -156 -68 -306t-180 -262t-265 -180.5t-314 -68.5q-212 0 -330 100t-118 244q0 101 62.5 171.5t147.5 94.5v8q-111 28 -172 107t-61 178q0 135 99.5 223t248.5 88q103 0 182 -26zM901 887q0 -120 97.5 -186.5t263.5 -61.5q28 100 28 174
q0 124 -60 189t-147 65q-74 0 -128 -49.5t-54 -130.5z" />
    <glyph glyph-name="gjJA" unicode="&#xa9c;" horiz-adv-x="1298" 
d="M764 950l57 -65l338 317h182v-18l-432 -404l2 -2q56 -67 87.5 -107.5t68.5 -98t53.5 -110.5t16.5 -108q0 -133 -97 -229t-260 -96q-161 0 -259.5 94.5t-98.5 224.5q0 99 52.5 180t158.5 181l84 77l-58 68q-111 130 -180.5 175.5t-142.5 45.5q-68 0 -116 -44.5t-48 -108.5
q0 -70 52 -119.5t163 -52.5v-15l-86 -102q-88 8 -153.5 51.5t-96.5 105.5t-31 132q0 128 96 211.5t222 83.5q109 0 207 -61t219 -206zM782 160q94 0 151.5 56t57.5 138q0 67 -39 133.5t-145 192.5l-2 2l-45 -41q-118 -109 -154.5 -171.5t-36.5 -123.5q0 -78 57.5 -132
t155.5 -54z" />
    <glyph glyph-name="gjJHA" unicode="&#xa9d;" horiz-adv-x="1554" 
d="M23 473l108 88q78 -119 229 -119q113 0 191 85.5t78 226.5q0 148 -70.5 231.5t-185.5 83.5q-81 0 -158 -41l-65 127q100 53 229 53q152 0 259 -92.5t136 -255.5q105 43 240 43h26l179 299h170l-201 -332q123 -47 196.5 -157t73.5 -260q0 -144 -64 -249t-167 -155.5
t-230 -50.5q-66 0 -141.5 21.5t-120.5 48.5l47 131q34 -24 94.5 -43t118.5 -19q131 0 219.5 81.5t88.5 238.5q0 139 -85 223t-210 84q-111 0 -226 -59q-15 -181 -134.5 -291.5t-285.5 -110.5q-105 0 -194.5 44.5t-144.5 125.5z" />
    <glyph glyph-name="gjNYA" unicode="&#xa9e;" horiz-adv-x="1464" 
d="M8 578l133 67q30 -82 97 -126t153 -44q120 0 195.5 77.5t75.5 229.5q0 133 -71 210t-185 77q-82 0 -158 -43l-68 129q95 53 230 53q164 0 275 -100t128 -272q72 -11 154 -11q85 0 143 15v362h152v-1202h-152v694q-50 -12 -137 -12q-89 0 -164 16q-24 -172 -138.5 -267
t-277.5 -95q-130 0 -234 64.5t-151 177.5z" />
    <glyph glyph-name="gjTTA" unicode="&#xa9f;" horiz-adv-x="1011" 
d="M532 137q123 0 217 36.5t138 80.5l82 -121q-60 -53 -171 -94t-263 -41q-109 0 -198.5 29t-144.5 77t-84.5 106.5t-29.5 121.5t27 116.5t71 91t100.5 72t115 59.5t115 54t100.5 56t71 64t27 79q0 64 -56.5 105.5t-159.5 41.5q-137 0 -239 -59l-66 131q123 69 303 69
q171 0 271 -84t100 -204q0 -71 -34.5 -129.5t-89 -99t-121 -76t-133 -66.5t-121 -62.5t-89 -73t-34.5 -89.5q0 -82 78.5 -136.5t217.5 -54.5z" />
    <glyph glyph-name="gjTTHA" unicode="&#xaa0;" horiz-adv-x="1234" 
d="M446 690v8q-73 29 -124.5 89.5t-51.5 148.5q0 114 101 195t280 81q83 0 172 -21t150 -56l-62 -123q-125 61 -262 61q-100 0 -162.5 -37.5t-62.5 -101.5q0 -41 25 -74t67 -56t97 -43.5t115 -40.5t120.5 -41.5t115.5 -51.5t97 -66.5t67 -90t25 -118.5q0 -71 -35 -136
t-99.5 -116.5t-165 -82.5t-222.5 -31q-244 0 -389.5 104t-145.5 264q0 58 23 108.5t58 86t83.5 65t93 47t92.5 29.5zM999 350q0 26 -7 49t-23.5 43t-32.5 35.5t-47 31.5t-53 26.5t-64 25t-67 22.5t-74 23q-165 -18 -272 -85t-107 -167q0 -97 101.5 -165t277.5 -68
q172 0 270 68t98 161z" />
    <glyph glyph-name="gjDDA" unicode="&#xaa1;" horiz-adv-x="1032" 
d="M68 115l79 123q143 -115 347 -115q129 0 201.5 54t72.5 145q0 52 -35.5 93t-92.5 69.5t-126 55.5t-137.5 58.5t-125.5 70t-92.5 99t-35.5 137.5q0 131 113.5 219t312.5 88q165 0 307 -61l-49 -133q-116 53 -262 53q-132 0 -199 -47.5t-67 -120.5q0 -41 22 -75.5
t59.5 -59.5t86 -47t102 -43t106.5 -43.5t101.5 -51.5t86 -64t59.5 -85t22 -110q0 -145 -116 -242.5t-321 -97.5q-139 0 -250 40.5t-169 90.5z" />
    <glyph glyph-name="gjDDHA" unicode="&#xaa2;" horiz-adv-x="1171" 
d="M647 358l-127 52q2 115 86 196.5t211 81.5q123 0 206 -78.5t83 -206.5q0 -155 -129.5 -258.5t-349.5 -103.5q-152 0 -275.5 53t-196.5 153.5t-73 231.5q0 82 26 150t69 113.5t98 84.5t112 64t112 51t98 48t69 51.5t26 64.5q0 47 -41 88v8h158q39 -43 39 -110
q0 -54 -26 -98t-69 -72.5t-97.5 -57t-111.5 -51t-111.5 -55t-97.5 -68t-69 -91.5t-26 -124q0 -133 103 -215t280 -82q162 0 248.5 65.5t86.5 157.5q0 67 -39 107.5t-104 40.5q-29 0 -56.5 -10t-53 -31t-41.5 -59.5t-17 -90.5z" />
    <glyph glyph-name="gjNNA" unicode="&#xaa3;" horiz-adv-x="1701" 
d="M1159 47q-70 -46 -179 -81.5t-239 -35.5q-137 0 -244 42t-172 113.5t-98.5 161.5t-33.5 191v764h149v-758q0 -169 101 -271.5t294 -102.5q114 0 206 31t149 71zM1145 801q0 -176 -113 -283.5t-289 -107.5q-93 0 -170 26v139q69 -28 164 -28q111 0 185.5 66t74.5 188
q0 128 -73.5 198t-190.5 70q-57 0 -127 -18v137q63 18 139 18q175 0 287.5 -109.5t112.5 -295.5zM1501 0h-151v1202h151v-1202z" />
    <glyph glyph-name="gjTA" unicode="&#xaa4;" horiz-adv-x="1198" 
d="M236 471q0 -159 104.5 -249t261.5 -79v-141q-103 -9 -197.5 20t-167 88.5t-116 154.5t-43.5 210q0 209 136.5 337t354.5 128h275v262h151v-1202h-151v797h-254q-162 0 -258 -86t-96 -240z" />
    <glyph glyph-name="gjTHA" unicode="&#xaa5;" horiz-adv-x="1372" 
d="M1020 336h-8q-60 -77 -162.5 -130.5t-243.5 -53.5q-212 0 -354.5 130t-159.5 347q205 34 321.5 74t167 92t50.5 129q0 68 -40 110.5t-112 42.5q-66 0 -108.5 -41.5t-42.5 -103.5q0 -56 24 -96l-139 -27q-37 58 -37 131q0 109 83 189.5t218 80.5q136 0 220.5 -84.5
t84.5 -201.5q0 -302 -512 -389q2 -24 13 -53t37 -64t62.5 -63t96.5 -47t133 -19q88 0 163 28.5t124 73t79.5 93.5t41.5 96v622h149v-1202h-149v336z" />
    <glyph glyph-name="gjDA" unicode="&#xaa6;" horiz-adv-x="999" 
d="M856 1151l-47 -131q-120 47 -238 47q-117 0 -189.5 -53.5t-72.5 -141.5q0 -85 71.5 -140.5t215.5 -55.5h174v-139h-172q-143 0 -215 -57.5t-72 -143.5q0 -94 76 -149.5t209 -55.5q169 0 307 90l62 -127q-152 -102 -369 -102q-200 0 -322 96t-122 240q0 110 66.5 180
t154.5 94v10q-95 25 -159 98t-64 175q0 143 115 232t294 89q185 0 297 -55z" />
    <glyph glyph-name="gjDHA" unicode="&#xaa7;" horiz-adv-x="1341" 
d="M137 911q0 60 28 108t76 84.5t100 67.5t114.5 74t103.5 86l88 -106q-37 -40 -89.5 -78t-96 -64t-83 -53t-62.5 -58t-23 -67q0 -69 66.5 -111t213.5 -42h113v-131h-121q-126 0 -193 -47.5t-67 -129.5t72.5 -136t202.5 -54q147 0 259.5 68.5t149.5 148.5v731h150v-1202
h-150v260h-8q-75 -63 -181 -103t-231 -40q-183 0 -301 89t-118 230q0 91 54.5 154t137.5 92v8q-88 22 -146.5 79.5t-58.5 141.5z" />
    <glyph glyph-name="gjNA" unicode="&#xaa8;" horiz-adv-x="1101" 
d="M299 440l-94 -32q-59 37 -96.5 110t-38.5 158l114 88h566v438h149v-1202h-149v629h-451v-189z" />
    <glyph glyph-name="gjPA" unicode="&#xaaa;" horiz-adv-x="1171" 
d="M821 455h-8q-37 -62 -113.5 -100t-169.5 -38q-162 0 -260 99t-98 250v305q0 51 -19.5 75.5t-64.5 24.5q-28 0 -55 -8v129q46 14 98 14q84 0 137.5 -56.5t53.5 -166.5v-272q0 -254 227 -254q119 0 195.5 79.5t76.5 243.5v422h148v-1202h-148v455z" />
    <glyph glyph-name="gjPHA" unicode="&#xaab;" horiz-adv-x="1173" 
d="M940 1124l-68 -118q-50 29 -127 50t-149 21q-129 0 -196.5 -42t-67.5 -111q0 -41 22.5 -76.5t68 -65.5t91 -51.5t113.5 -48.5q32 14 442 98v-131l-250 -49v-8q199 -102 199 -256q0 -69 -35 -127.5t-92.5 -95.5t-127 -59t-142.5 -27v-9l321 -206l-166 -88l-315 288
q-136 4 -218.5 69t-84.5 140l67 82l246 -156q165 -12 280 39.5t115 149.5q0 69 -70 121t-198 100q-47 -20 -487 -111v138l303 55v8q-105 46 -171.5 116.5t-66.5 162.5q0 122 113 204t309 82q100 0 193.5 -26t148.5 -62z" />
    <glyph glyph-name="gjBA" unicode="&#xaac;" horiz-adv-x="1585" 
d="M866 836v-156h367v522h149v-1202h-149v543h-367v-17q0 -179 -100 -276.5t-264 -97.5q-178 0 -294 140.5t-116 385.5q0 242 129 387t342 145q143 0 250 -71l-78 -127q-78 55 -178 55q-137 0 -222 -96.5t-85 -288.5q0 -108 22.5 -187t61 -121t82.5 -61.5t94 -19.5
q102 0 155.5 61.5t53.5 169.5v312h147z" />
    <glyph glyph-name="gjBHA" unicode="&#xaad;" horiz-adv-x="1652" 
d="M254 647q0 -145 56.5 -258t175.5 -181.5t286 -68.5q51 0 125 8v-141q-57 -8 -131 -8q-201 0 -354 87.5t-232.5 234.5t-79.5 329q0 123 37.5 228.5t101.5 176.5t149.5 111.5t180.5 40.5q71 0 128.5 -20t93.5 -52.5t61 -75.5t35 -86t10 -87v-162h408v479h147v-1202h-147
v588h-408v-160h-135q-103 73 -109 211l101 82v164q0 84 -47 133t-134 49q-59 0 -114.5 -26.5t-102 -76t-74.5 -132t-28 -185.5z" />
    <glyph glyph-name="gjMA" unicode="&#xaae;" horiz-adv-x="1179" 
d="M977 0h-150v524h-448v-182h-143q-43 40 -72 110.5t-29 137.5l96 67v318q0 96 -100 96q-34 0 -80 -12v129q63 18 123 18q87 0 146 -57t59 -162v-323h448v538h150v-1202z" />
    <glyph glyph-name="gjYA" unicode="&#xaaf;" horiz-adv-x="1327" 
d="M975 324h-8q-54 -65 -149 -112.5t-226 -47.5q-209 0 -347 139.5t-155 360.5q234 40 340.5 104.5t106.5 155.5q0 70 -50 106.5t-125 36.5q-67 0 -151 -35l-51 135q92 39 198 39q142 0 236 -76t94 -206q0 -134 -109.5 -224t-306.5 -131q1 -26 12 -58t36 -69.5t60.5 -67.5
t93 -50.5t126.5 -20.5q66 0 124.5 17.5t100.5 45.5t74.5 64t51 72t24.5 71v629h149v-1202h-149v324z" />
    <glyph glyph-name="gjRA" unicode="&#xab0;" horiz-adv-x="970" 
d="M88 530v115h293q160 0 229.5 60t69.5 157q0 93 -63 147t-166 54q-108 0 -193 -37l-51 141q106 41 235 41q179 0 287.5 -96.5t108.5 -247.5q0 -167 -118 -263.5t-333 -96.5q-16 -66 -16 -121q0 -104 69.5 -177t200.5 -73q105 0 197 57l45 -135q-101 -63 -248 -63
q-99 0 -180 32t-132 86t-78.5 121.5t-27.5 141.5q0 72 21 137q-89 7 -150 20z" />
    <glyph glyph-name="gjLA" unicode="&#xab2;" horiz-adv-x="1370" 
d="M106 606q0 144 49 264.5t133.5 199t204 114.5t255.5 18v-139q-99 13 -187 -10.5t-154 -80t-104.5 -151t-38.5 -215.5q0 -247 140.5 -371t351.5 -94v-141q-137 -16 -257.5 21t-207 116.5t-136 201t-49.5 267.5zM569 549v139h449v514h151v-1202h-151v549h-449z" />
    <glyph glyph-name="gjLLA" unicode="&#xab3;" horiz-adv-x="1593" 
d="M1393 0h-152v846q0 107 -56.5 168t-150.5 61q-102 0 -155.5 -62.5t-53.5 -168.5q0 -49 12.5 -137.5t12.5 -147.5q0 -73 -23 -137t-66.5 -115t-113.5 -80.5t-158 -29.5q-173 0 -282 121.5t-109 324.5q0 174 81 325t194 244l110 -96q-231 -210 -231 -471
q0 -156 66.5 -233.5t173.5 -77.5q98 0 153 62.5t55 172.5q0 56 -13 141t-13 144q0 152 96 256t264 104q160 0 259.5 -101t99.5 -259v-854z" />
    <glyph glyph-name="gjVA" unicode="&#xab5;" horiz-adv-x="1239" 
d="M887 1202h149v-1202h-149v449h-8q-47 -60 -130 -104t-208 -44q-196 0 -323.5 124.5t-127.5 324.5q0 104 40 190.5t106.5 142t151.5 85.5t177 30q58 0 105 -8v-150q-57 13 -105 13q-132 0 -225.5 -82t-93.5 -221q0 -141 86.5 -224.5t228.5 -83.5q147 0 236.5 106t89.5 269
v385z" />
    <glyph glyph-name="gjSHA" unicode="&#xab6;" horiz-adv-x="1509" 
d="M518 1214q150 0 247 -99.5t97 -237.5q0 -166 -122.5 -276t-346.5 -122q-10 -45 -10 -96q0 -103 72 -176.5t198 -73.5q108 0 193 49l41 -133q-100 -57 -242 -57q-100 0 -180.5 33t-130.5 87.5t-76.5 122.5t-26.5 142q0 49 11 106q-83 6 -146 19v110h244q176 0 272.5 73
t96.5 194q0 95 -56 148.5t-133 53.5q-70 0 -116 -42.5t-46 -102.5t48 -102l-119 -54q-37 23 -57.5 66t-20.5 94q0 108 82.5 191t226.5 83zM1157 1202h150v-1202h-150v1202z" />
    <glyph glyph-name="gjSSA" unicode="&#xab7;" horiz-adv-x="1189" 
d="M840 449h-9q-44 -59 -117.5 -96.5t-172.5 -37.5q-171 0 -270 95.5t-99 248.5v314q0 98 -84 98q-22 0 -55 -10v131q49 14 92 14q45 0 83 -16t83 -55l534 -465q17 44 17 139v393h145v-1202h-147v449zM303 975q14 -28 14 -156v-125q0 -125 64.5 -186.5t177.5 -61.5
q65 0 126 31t99 84l-477 418z" />
    <glyph glyph-name="gjSA" unicode="&#xab8;" horiz-adv-x="1501" 
d="M258 1034l-43 144q92 30 193 30q167 0 272.5 -94t105.5 -248q0 -123 -65 -209q89 -24 194 -24q147 0 234 45v524h149v-1202h-149v522q-76 -28 -215 -28q-183 0 -324 69q-94 -51 -225 -57q-18 -56 -18 -119q0 -104 71.5 -179t202.5 -75q95 0 178 45l39 -137
q-92 -49 -223 -49q-98 0 -180 33.5t-133.5 88t-80 123t-28.5 140.5q0 78 16 131q-65 5 -141 22v115h252q147 0 219 61t72 158q0 93 -59 145t-160 52q-80 0 -154 -27z" />
    <glyph glyph-name="gjHA" unicode="&#xab9;" horiz-adv-x="1206" 
d="M559 952l51 41q135 113 160 209h174q-21 -63 -76 -130.5t-118 -113.5v-4l59 -16q102 -29 165.5 -94t63.5 -170q0 -119 -87.5 -195t-223.5 -76q-157 0 -260 78l61 121q93 -65 195 -65q82 0 127 38.5t45 102.5t-50 105.5t-153 64.5l-133 29v75zM125 842l143 -43
q-37 -90 -37 -195q0 -144 68.5 -254t183.5 -167.5t256 -57.5q217 0 353 119l79 -123q-174 -137 -436 -137q-185 0 -333 75.5t-234 217.5t-86 327q0 128 43 238z" />
    <glyph glyph-name="gjNukta" unicode="&#xabc;" horiz-adv-x="0" 
d="M-797 -428q0 46 30.5 76t74.5 30q45 0 75.5 -30.5t30.5 -75.5q0 -43 -31 -72.5t-75 -29.5t-74.5 29.5t-30.5 72.5z" />
    <glyph glyph-name="gjAvagraha" unicode="&#xabd;" horiz-adv-x="1062" 
d="M86 125l84 119q160 -127 352 -127q127 0 194.5 56t67.5 142q0 49 -19.5 87.5t-63 71t-85.5 54.5t-116 54q-53 23 -89 41t-82 49.5t-73 64.5t-46.5 81.5t-19.5 105.5q0 124 93 201t243 77h375v-137h-354q-203 0 -203 -143q0 -32 13.5 -60t33.5 -49t59.5 -45t75.5 -41.5
t97 -44.5q52 -24 89 -43.5t81.5 -53t72.5 -69t47 -87.5t19 -112q0 -147 -109 -239t-305 -92q-256 0 -432 139z" />
    <glyph glyph-name="gjmAA" unicode="&#xabe;" 
d="M354 0h-151v1202h151v-1202z" />
    <glyph glyph-name="gjmI" unicode="&#xabf;" 
d="M1565 1554l-80 -110q-56 46 -128 90.5t-167 88.5t-209.5 71.5t-226.5 27.5q-193 0 -296.5 -108t-103.5 -271v-1343h-151v1350q0 228 150 369t397 141q127 0 261.5 -33t241.5 -84t185.5 -99t126.5 -90z" />
    <glyph glyph-name="gjmII" unicode="&#xac0;" 
d="M0 1860q162 0 258 -105.5t96 -261.5v-1493h-151v1491q0 103 -51.5 164t-151.5 61q-52 0 -94 -18t-67 -47.5t-40.5 -69t-15 -82t9.5 -86.5l-149 35q-13 76 5.5 150t63 132t119.5 94t168 36z" />
    <glyph glyph-name="gjmU" unicode="&#xac1;" horiz-adv-x="0" 
d="M-449 -186l-88 110q100 92 242 92q130 0 219.5 -81t89.5 -207q0 -56 -21.5 -109t-63.5 -98.5t-115 -73t-166 -27.5q-82 0 -162 25t-141 62t-117.5 86.5t-92.5 91.5t-65 84l113 90q35 -55 80 -105t103.5 -96.5t133 -74t152.5 -27.5q98 0 155.5 48t57.5 124q0 67 -43.5 109
t-114.5 42q-86 0 -156 -65z" />
    <glyph glyph-name="gjmUU" unicode="&#xac2;" horiz-adv-x="0" 
d="M268 -537l-139 -34q-45 204 -160.5 329t-263.5 125q-82 0 -135 -47.5t-53 -118.5q0 -72 48 -116.5t126 -44.5q57 0 104 20v-135q-48 -21 -119 -21q-132 0 -222.5 86t-90.5 209q0 129 95.5 216t244.5 87q93 0 177.5 -35t147.5 -91.5t113.5 -130.5t81 -149t45.5 -149z" />
    <glyph glyph-name="gjmvR" unicode="&#xac3;" horiz-adv-x="0" 
d="M39 -483q-55 -37 -156 -67t-219 -30q-163 0 -273 85.5t-110 209.5q0 61 22 113t69.5 96.5t135 70t207.5 25.5q53 0 82 -2v-129q-25 2 -69 2q-159 0 -228 -49.5t-69 -124.5q0 -73 60.5 -116t162.5 -43q184 0 311 82z" />
    <glyph glyph-name="gjmvRR" unicode="&#xac4;" horiz-adv-x="0" 
d="M25 -641q-149 -92 -310 -92q-118 0 -189 54.5t-71 148.5q0 47 27 89.5t78 67.5q-73 10 -115.5 59t-42.5 119q0 114 105 180.5t290 63.5v-117q-128 0 -195 -38t-67 -95q0 -40 29.5 -62t83.5 -22q63 0 141 19l23 -119q-114 -16 -168 -53t-54 -86q0 -43 33 -64.5t88 -21.5
q132 0 248 78z" />
    <glyph glyph-name="gjmEcandra" unicode="&#xac5;" horiz-adv-x="0" 
d="M150 1681q-56 -117 -162 -189.5t-264 -72.5q-159 0 -266 72.5t-163 189.5l113 64q46 -89 125 -141t191 -52q110 0 189.5 52.5t123.5 140.5z" />
    <glyph glyph-name="gjmE" unicode="&#xac7;" horiz-adv-x="0" 
d="M-176 1430l-107 -33q-202 172 -452 469l170 39z" />
    <glyph glyph-name="gjmAI" unicode="&#xac8;" horiz-adv-x="0" 
d="M-328 1411l-75 -31q-307 177 -547 412l143 84zM-170 1415h-86q-14 19 -44.5 67t-91 157.5t-106.5 215.5l168 23z" />
    <glyph glyph-name="gjmOcandra" unicode="&#xac9;" 
d="M705 1681q-36 -75 -89.5 -131t-141 -93.5t-195.5 -37.5t-195.5 37.5t-141 93.5t-89.5 131l110 64q46 -89 125 -141t191 -52q110 0 190 52.5t125 140.5zM354 0h-151v1202h151v-1202z" />
    <glyph glyph-name="gjmO" unicode="&#xacb;" 
d="M354 0h-151v1202h151v-1202zM342 1430l-106 -33q-206 175 -453 469l170 39z" />
    <glyph glyph-name="gjmAU" unicode="&#xacc;" 
d="M354 0h-151v1202h151v-1202zM225 1411l-75 -31q-307 177 -547 412l143 84zM383 1415h-86q-14 19 -44.5 67t-91 157.5t-106.5 215.5l168 23z" />
    <glyph glyph-name="gjVirama" unicode="&#xacd;" horiz-adv-x="0" 
d="M78 -514v-8h-199l-225 301l125 47z" />
    <glyph glyph-name="gjOm" unicode="&#xad0;" horiz-adv-x="2277" 
d="M621 657q82 -20 133.5 -66t95.5 -134q22 -43 43 -74t51 -62t69.5 -47t86.5 -16q31 0 60.5 9.5t53 23t49 40t43 48.5t42.5 62t40 66t42 75q93 166 138 226q124 155 263 159q147 0 242.5 -108.5t95.5 -303.5q0 -116 -43 -221t-128 -174.5t-194 -69.5q-247 0 -370 244
q-70 -98 -148.5 -152.5t-177.5 -54.5q-98 0 -166 42.5t-108 104.5q-26 -101 -118 -170t-247 -69q-135 0 -234 59t-155 139l106 91q42 -62 114 -109t175 -47q110 0 174 61t64 148q0 93 -72.5 148t-206.5 55h-80v133h62q111 0 174 54t63 161q0 83 -53 134.5t-143 51.5
q-119 0 -199 -92l-98 94q49 56 127 92.5t174 36.5q143 0 240.5 -87t97.5 -222q0 -60 -18 -110t-46 -81.5t-57 -51t-57 -27.5v-9zM1513 463q38 -107 112 -174.5t167 -67.5q103 0 172.5 97.5t69.5 254.5q0 117 -58.5 189t-144.5 72q-37 0 -72 -20.5t-68.5 -62t-59.5 -82.5
t-60 -104zM1149 1505q0 44 29.5 75.5t72.5 31.5q44 0 74.5 -31.5t30.5 -75.5q0 -43 -30.5 -72.5t-74.5 -29.5q-43 0 -72.5 29.5t-29.5 72.5zM1253 1087q-143 0 -247 64.5t-154 169.5l117 68q37 -78 108.5 -124t175.5 -46t176 45t109 122l117 -65q-52 -105 -155.5 -169.5
t-246.5 -64.5z" />
    <glyph glyph-name="gjvRR" unicode="&#xae0;" horiz-adv-x="1814" 
d="M1688 735v-127q-165 -75 -239.5 -147t-74.5 -150q0 -67 48.5 -115.5t150.5 -48.5q99 0 178 46l49 -125q-98 -56 -227 -56q-159 0 -255.5 85.5t-96.5 209.5q0 193 268 338v8q-140 21 -234 119q-1 0 -45 -29.5t-75 -48.5l-142 -86v-608h-147v522l-645 -379l-107 109
l539 305q-15 64 -39 121t-60.5 108.5t-89.5 82t-116 30.5q-116 0 -199 -106l-119 98q47 64 128 108.5t192 44.5q153 0 265.5 -112t160.5 -303l100 59q-10 35 -10 281v233h147v-438q107 62 178.5 112t110.5 92.5t57 72t33 71.5h158q-40 -141 -164 -250q42 -54 115.5 -90.5
t177.5 -36.5h29z" />
    <glyph glyph-name="gjvLL" unicode="&#xae1;" horiz-adv-x="1392" 
d="M1231 -268q-122 0 -195 53.5t-73 148.5q0 47 26 88.5t76 67.5q-71 7 -114.5 54t-43.5 114q0 46 22 87t53.5 73.5t63.5 64t54 71.5t22 83q0 66 -45.5 113t-120.5 47q-82 0 -137 -54.5t-55 -154.5v-146h-143v146q0 98 -46.5 151.5t-125.5 53.5q-81 0 -135 -61.5t-54 -178.5
q0 -141 75 -259t226 -194l-94 -112q-158 81 -260.5 232.5t-102.5 336.5q0 88 28.5 159.5t75.5 116.5t106 69t122 24q95 0 158.5 -44t91.5 -118h8q26 61 78.5 104t120.5 58v276h143v-274q108 -23 172 -105t64 -190q0 -40 -11.5 -77t-35 -70t-43.5 -56t-51 -55l-7 -7l-6 -6
q-35 -35 -52 -58.5t-17 -47.5q0 -76 108 -76q61 0 139 19l21 -119q-114 -16 -167.5 -53t-53.5 -86q0 -43 36.5 -64.5t96.5 -21.5q126 0 237 77l66 -108q-146 -92 -301 -92z" />
    <glyph glyph-name="gjmvL" unicode="&#xae2;" horiz-adv-x="0" 
d="M-147 -631q0 49 24 96t57.5 84t67.5 71.5t58 71.5t24 72q0 59 -36 91t-99 32q-70 0 -116 -46t-46 -142v-64h-135v64q0 188 -154 188q-68 0 -109.5 -50t-41.5 -140q0 -171 153 -281l-96 -98q-86 57 -145.5 156.5t-59.5 224.5q0 147 83 233t208 86q87 0 145 -41t80 -102h9
q24 58 83.5 100.5t149.5 42.5q117 0 189.5 -73t72.5 -176q0 -54 -23.5 -102.5t-57.5 -84.5t-67.5 -69t-57 -70t-23.5 -74q0 -53 37 -80.5t106 -27.5q102 0 193 63l59 -106q-47 -36 -114 -57t-134 -21q-131 0 -207.5 63.5t-76.5 165.5z" />
    <glyph glyph-name="gjmvLL" unicode="&#xae3;" horiz-adv-x="0" 
d="M264 -778q107 0 197 63l57 -100q-116 -76 -256 -76q-121 0 -189.5 49t-68.5 133q0 94 86 136v6q-60 5 -98.5 41t-38.5 98q0 36 16.5 71t36.5 58t36.5 50.5t16.5 49.5q0 41 -28 64.5t-78 23.5q-69 0 -118.5 -53.5t-49.5 -140.5v-60h-135v64q0 188 -152 188q-69 0 -111 -50
t-42 -140q0 -169 153 -281l-96 -98q-86 57 -144.5 156t-58.5 225q0 147 82 233t207 86q87 0 146 -40.5t79 -100.5h8q22 54 84 97.5t152 43.5q109 0 176.5 -60t67.5 -153q1 -40 -17.5 -76.5t-40.5 -58.5t-40.5 -50t-18.5 -54q0 -60 104 -60q40 0 117 17l27 -98
q-50 -11 -82 -20.5t-60.5 -24t-41.5 -34.5t-13 -48q0 -76 129 -76z" />
    <glyph glyph-name="gjZero" unicode="&#xae6;" horiz-adv-x="997" 
d="M498 1083q112 0 183 -117.5t71 -363.5q0 -248 -69 -365.5t-183 -117.5q-112 0 -184 118.5t-72 364.5q0 245 70.5 363t183.5 118zM498 -20q84 0 156 35.5t129.5 107.5t90.5 195t33 286q0 162 -33 284t-90.5 193.5t-128.5 106.5t-155 35t-156 -35.5t-130 -107.5t-91 -194.5
t-33 -283.5q0 -163 33 -286t91 -194.5t129 -106.5t155 -35z" />
    <glyph glyph-name="gjOne" unicode="&#xae7;" horiz-adv-x="1036" 
d="M463 551q119 0 215 51v318q0 165 -162 165q-115 0 -193.5 -97.5t-78.5 -221.5q0 -109 61 -162t158 -53zM870 -16q-90 0 -141 57t-51 168v262q-108 -59 -229 -59q-169 0 -265 95t-96 255q0 84 30 166t83.5 148t136 106.5t178.5 40.5q143 0 226 -80.5t83 -218.5v-715
q0 -51 21 -72.5t69 -21.5q14 0 50 4v-119q-44 -16 -95 -16z" />
    <glyph glyph-name="gjTwo" unicode="&#xae8;" horiz-adv-x="980" 
d="M680 -10q-68 0 -131.5 16t-124 53.5t-105.5 93.5t-73 142t-29 192q-119 33 -119 134q0 51 31.5 83.5t85.5 32.5t89 -31.5t44 -91.5q66 0 125.5 13t111.5 40.5t82.5 77t30.5 115.5q0 97 -61 154t-176 57q-92 0 -189 -33l-39 138q93 34 226 34q179 0 286 -95t107 -257
q0 -80 -30 -146t-79 -109.5t-114 -73.5t-132 -43t-135 -13q10 -168 96.5 -254t227.5 -86q73 0 141 25l15 -146q-73 -22 -162 -22z" />
    <glyph glyph-name="gjThree" unicode="&#xae9;" horiz-adv-x="983" 
d="M72 145l116 99q33 -55 102 -92t159 -37q120 0 176.5 55.5t56.5 163.5q0 113 -67 159t-212 46h-77v127h75q127 0 185.5 56.5t58.5 168.5q0 91 -51.5 143.5t-151.5 52.5q-78 0 -132 -33t-79 -87l-127 69q41 83 131.5 134t210.5 51q166 0 260.5 -84t94.5 -234
q0 -119 -55.5 -192.5t-137.5 -92.5v-6q47 -6 86 -23.5t72.5 -49t52.5 -82.5t19 -117q0 -173 -106 -265.5t-302 -92.5q-120 0 -216 47.5t-142 115.5z" />
    <glyph glyph-name="gjFour" unicode="&#xaea;" horiz-adv-x="1083" 
d="M190 328q0 102 53 194t150 189l53 53l-358 366l98 95l355 -363l354 363l100 -95l-358 -366l53 -53q97 -99 150 -190.5t53 -192.5q0 -63 -24 -120t-67.5 -102t-111 -71.5t-149.5 -26.5q-160 0 -255.5 94.5t-95.5 225.5zM541 141q97 0 150.5 53t53.5 132q0 62 -36 133.5
t-146 185.5l-20 23l-23 -23q-111 -114 -146.5 -185t-35.5 -134q0 -79 53.5 -132t149.5 -53z" />
    <glyph glyph-name="gjFive" unicode="&#xaeb;" horiz-adv-x="1116" 
d="M954 -16q-92 0 -143 57t-51 168v272h-8q-78 -133 -248 -133q-163 0 -248.5 90.5t-85.5 243.5v289q0 51 -19.5 75.5t-64.5 24.5q-11 0 -57 -8v129q49 14 100 14q84 0 137 -56.5t53 -168.5v-246q0 -132 48 -190t153 -58q112 0 174.5 71.5t65.5 219.5v424h149v-993
q0 -50 21 -72t67 -22q16 0 52 4v-119q-44 -16 -95 -16z" />
    <glyph glyph-name="gjSix" unicode="&#xaec;" horiz-adv-x="991" 
d="M739 -133v-8h156q27 39 27 106q0 68 -62 119.5t-150 84.5t-176 65t-150 79.5t-62 110.5q0 72 70 116t206 44h186v143h-122q-162 0 -255.5 47.5t-93.5 145.5q0 76 67 116.5t195 40.5q147 0 256 -53l54 127q-131 61 -310 61q-192 0 -305.5 -76.5t-113.5 -211.5
q0 -58 22.5 -104.5t60.5 -76t81 -47.5t92 -26v-4q-128 -22 -191 -87t-63 -157q0 -61 26 -112t69 -85.5t98 -63.5t112 -48.5t112 -39.5t98 -36.5t69 -39.5t26 -50q0 -43 -29 -80z" />
    <glyph glyph-name="gjSeven" unicode="&#xaed;" horiz-adv-x="1298" 
d="M72 1139l145 41q8 -154 33.5 -291t70.5 -256t106 -205t145.5 -135t183.5 -49q150 0 234.5 115.5t84.5 316.5q0 188 -70 295.5t-180 107.5q-71 0 -116 -44t-45 -128q0 -82 45 -135.5t112 -72.5t148 -13l-37 -129q-188 -13 -304 90.5t-116 261.5q0 132 88.5 220t220.5 88
q177 0 287.5 -142t110.5 -399q0 -270 -127.5 -421t-331.5 -151q-111 0 -206.5 39.5t-167 111.5t-128 168t-94 213.5t-60.5 242t-32 260.5z" />
    <glyph glyph-name="gjEight" unicode="&#xaee;" horiz-adv-x="966" 
d="M729 1206l131 -84l-465 -458q-77 -73 -103 -108q-48 -67 -48 -142q0 -109 87 -181.5t234 -72.5q160 0 281 98l69 -127q-134 -108 -348 -108q-135 0 -244.5 48.5t-173 138.5t-63.5 206q0 46 12 90t28.5 76.5t46 69.5t51.5 59.5t57 56.5z" />
    <glyph glyph-name="gjNine" unicode="&#xaef;" horiz-adv-x="1048" 
d="M807 -2v137q-53 -6 -96 -6q-197 0 -322 128.5t-125 346.5t124 343.5t323 125.5q43 0 96 -6v137q-66 8 -100 8q-127 0 -236.5 -41.5t-190.5 -117.5t-127.5 -192t-46.5 -257t46.5 -257.5t127.5 -194t190.5 -120t236.5 -42.5q56 0 100 8zM954 680v-143h-424v143h424z" />
    <glyph glyph-name="gjAbbreviationsign" unicode="&#xaf0;" horiz-adv-x="839" 
d="M106 598q0 138 89 223.5t227 85.5t224.5 -83.5t86.5 -221.5t-88.5 -223.5t-226.5 -85.5t-225 83.5t-87 221.5zM244 602q0 -83 50 -134.5t128 -51.5t126 49.5t48 132.5t-50 134.5t-128 51.5t-126 -49.5t-48 -132.5z" />
    <glyph glyph-name="gjRupeesign" unicode="&#xaf1;" horiz-adv-x="1902" 
d="M514 33v-8l309 -203l-172 -90l-301 286q-151 20 -226 77.5t-75 142.5l70 77l223 -159q189 -23 303.5 40t114.5 181q0 180 -277 180q-53 0 -155 -4l-15 141l146 4q116 5 178.5 58t62.5 147q0 78 -57 128t-168 50q-136 0 -246 -80l-90 117q128 101 322 101
q182 0 288.5 -89.5t106.5 -220.5q0 -105 -54 -170.5t-126 -85.5v-8q106 -18 172.5 -86t66.5 -180q0 -83 -35 -149.5t-93 -107.5t-127.5 -63.5t-145.5 -25.5zM1169 598q0 138 89 223.5t227 85.5t224.5 -83.5t86.5 -221.5t-88.5 -223.5t-226.5 -85.5t-225 83.5t-87 221.5z
M1307 602q0 -83 50 -134.5t128 -51.5t126 49.5t48 132.5t-50 134.5t-128 51.5t-126 -49.5t-48 -132.5z" />
    <glyph glyph-name="gjZHA" unicode="&#xaf9;" horiz-adv-x="1466" 
d="M1307 354q0 -133 -97.5 -229t-261.5 -96q-161 0 -258.5 94t-97.5 225q0 100 52.5 181t156.5 180l84 77l-58 68q-110 130 -179.5 175.5t-143.5 45.5q-67 0 -114.5 -44.5t-47.5 -108.5q0 -70 51.5 -119.5t161.5 -52.5v-15l-84 -102q-88 8 -153.5 51.5t-96.5 105.5t-31 132
q0 128 95 211.5t221 83.5q109 0 208 -61.5t220 -205.5l55 -65l340 317h182v-18l-434 -404l2 -2q46 -54 70.5 -85t60 -80.5t53 -85.5t31 -82.5t13.5 -90.5zM537 59q0 -42 -30 -71t-73 -29q-41 0 -70.5 29.5t-29.5 70.5q0 43 29.5 73t72.5 30q43 -2 72 -31t29 -72zM227 170
q0 -41 -29.5 -69.5t-72.5 -28.5q-42 0 -70.5 29t-27.5 71q0 43 28.5 71.5t71.5 28.5t71.5 -29.5t28.5 -72.5zM473 412q0 -42 -30 -71t-72 -28q-41 0 -70 29t-29 72q0 42 29.5 71t71.5 29q43 0 71.5 -29.5t28.5 -72.5zM950 160q94 0 151.5 56t57.5 138q0 68 -39 135t-145 191
l-2 2l-43 -41q-118 -109 -154.5 -171.5t-36.5 -123.5q0 -78 57.5 -132t153.5 -54z" />
    <glyph glyph-name="zerowidthnonjoiner" unicode="&#x200c;" horiz-adv-x="0" 
d="M49 -471h-96v2132h96v-2132z" />
    <glyph glyph-name="zerowidthjoiner" unicode="&#x200d;" horiz-adv-x="0" 
d="M262 1214l-67 -67l-148 153v-1771h-96v1771l-141 -149l-68 68l190 190l-194 195l67 67l195 -194l197 194l65 -65l-196 -197z" />
    <glyph glyph-name="endash" unicode="&#x2013;" horiz-adv-x="843" 
d="M842 539h-840v143h840v-143z" />
    <glyph glyph-name="emdash" unicode="&#x2014;" horiz-adv-x="1376" 
d="M1374 539h-1372v143h1372v-143z" />
    <glyph glyph-name="quoteleft" unicode="&#x2018;" horiz-adv-x="473" 
d="M346 1493l53 -84q-70 -29 -110.5 -72t-40.5 -94q0 -48 28 -80t89 -63v-15q0 -53 -35 -87.5t-90 -34.5q-66 0 -108 48t-42 134q0 123 79 218t177 130z" />
    <glyph glyph-name="quoteright" unicode="&#x2019;" horiz-adv-x="473" 
d="M127 965l-51 82q70 30 110.5 73t40.5 94q0 49 -27.5 81t-88.5 63v14q0 53 35 88t90 35q65 0 107 -48t42 -134q0 -124 -79.5 -219.5t-178.5 -128.5z" />
    <glyph glyph-name="quotedblleft" unicode="&#x201c;" horiz-adv-x="886" 
d="M346 1493l53 -84q-70 -29 -110.5 -72t-40.5 -94q0 -48 28 -80t89 -63v-15q0 -53 -35 -87.5t-90 -34.5q-66 0 -108 48t-42 134q0 123 79 218t177 130zM760 1493l51 -84q-70 -29 -111 -72t-41 -94q0 -48 28 -80t89 -63v-15q0 -53 -35 -87.5t-90 -34.5q-65 0 -107 48
t-42 134q0 124 79.5 218.5t178.5 129.5z" />
    <glyph glyph-name="quotedblright" unicode="&#x201d;" horiz-adv-x="886" 
d="M541 963l-54 84q70 29 111 71.5t41 93.5q0 49 -28 81t-89 63v14q0 53 35 89t90 36q65 0 107.5 -48.5t42.5 -133.5q0 -125 -79 -220t-177 -130zM127 963l-51 84q70 29 110.5 71.5t40.5 93.5q0 49 -27.5 81t-88.5 63v14q0 53 35 89t90 36q65 0 107 -48.5t42 -133.5
q0 -125 -79 -220t-179 -130z" />
    <glyph glyph-name="dagger" unicode="&#x2020;" horiz-adv-x="1073" 
d="M451 -272l18 1245l-379 -25v176l379 -24l-27 444h187l-29 -444l383 24v-176l-381 25l23 -1245h-174z" />
    <glyph glyph-name="daggerdbl" unicode="&#x2021;" horiz-adv-x="1073" 
d="M467 973l-375 -25v176l377 -24l-25 444h185l-27 -444l381 24v-176l-379 25l12 -338l-10 -338l377 25v-177l-381 23l29 -442h-187l27 442l-381 -23v177l377 -27l-10 340z" />
    <glyph glyph-name="bullet" unicode="&#x2022;" horiz-adv-x="925" 
d="M190 727q0 115 77.5 192.5t195.5 77.5q117 0 194.5 -77.5t77.5 -192.5t-78 -193.5t-192 -78.5q-120 0 -197.5 77.5t-77.5 194.5z" />
    <glyph glyph-name="ellipsis" unicode="&#x2026;" horiz-adv-x="1603" 
d="M102 123q0 55 36 92t87 37q55 0 92 -37t37 -92q0 -51 -37 -87t-92 -36q-51 0 -87 36t-36 87zM674 123q0 55 36 92t89 37q55 0 92 -37t37 -92q0 -51 -37 -87t-92 -36q-52 0 -88.5 36t-36.5 87zM1249 123q0 55 36 92t87 37q56 0 92.5 -37t36.5 -92q0 -51 -37 -87t-92 -36
q-51 0 -87 36t-36 87z" />
    <glyph glyph-name="guilsinglleft" unicode="&#x2039;" horiz-adv-x="606" 
d="M96 553l314 434l104 -82l-242 -352l242 -350l-104 -80z" />
    <glyph glyph-name="guilsinglright" unicode="&#x203a;" horiz-adv-x="606" 
d="M514 553l-313 434l-105 -82l242 -352l-242 -350l105 -80z" />
    <glyph glyph-name="Euro" unicode="&#x20ac;" horiz-adv-x="1224" 
d="M907 915l-33 -129h-468q-3 -35 -3 -77q0 -45 3 -86h430l-31 -127h-385q60 -367 368 -367q66 0 121 16t82 33t60 45l90 -119q-120 -120 -375 -120q-444 0 -510 512h-176v127h166v163h-166v129h180q42 248 178 382.5t359 134.5q78 0 143.5 -12.5t108 -33.5t67 -38t41.5 -35
l-102 -129q-53 47 -115.5 74.5t-159.5 27.5q-143 0 -237.5 -93.5t-124.5 -277.5h489z" />
    <glyph glyph-name="indianrupee" unicode="&#x20b9;" horiz-adv-x="980" 
d="M739 16v-16h-184l-371 463l-114 123l39 125q81 -21 156.5 -16t134.5 28.5t97.5 77t45.5 129.5h-459v131h446q-25 71 -87.5 108t-143.5 37h-215v131h887l-62 -131h-325v-8q69 -45 98 -137h289l-62 -131h-213q-6 -88 -46.5 -158t-101.5 -111.5t-133.5 -62t-146.5 -16.5
l-2 -7q23 -24 158 -180z" />
    <glyph glyph-name="trademark" unicode="&#x2122;" horiz-adv-x="1226" 
d="M1028 1337h-8l-152 -424h-88l-153 433h-9q3 -156 3 -183v-291h-93v564h158l139 -410l138 410h157v-564h-96v291zM12 1356v80h422v-80h-160v-482h-98v482h-164z" />
    <glyph glyph-name="dottedcircle" unicode="&#x25cc;" horiz-adv-x="1333" 
d="M1141 838q0 -38 -25 -62t-63 -24t-63 24t-25 62t25 62t63 24t63 -24t25 -62zM371 252q0 -38 -25 -62t-63 -24t-63 24t-25 62t25 62t63 24t63 -24t25 -62zM571 96q0 -38 -25 -62t-63 -24t-63 24t-25 62t25 62t63 24t63 -24t25 -62zM279 483q0 -38 -25 -62t-64 -24
q-38 0 -63 24t-25 62t25 62t63 24q39 0 64 -24t25 -62zM825 68q0 -38 -25 -62t-63 -24t-63 24t-25 62t25 62t63 24t63 -24t25 -62zM309 731q0 -38 -25 -62t-63 -24t-63 24t-25 62t25 62t63 24t63 -24t25 -62zM1061 162q0 -38 -25 -62t-63 -24t-63 24t-25 62t25 62t63 24
t63 -24t25 -62zM465 934q0 -38 -25 -62t-63 -24t-63 24t-25 62t25 62t63 24t63 -24t25 -62zM1210 358q0 -38 -25 -62t-63 -24t-63 24t-25 62t25 62t63 24t63 -24t25 -62zM705 1020q0 -38 -25 -62t-64 -24q-38 0 -63 24t-25 62t25 62t63 24q39 0 64 -24t25 -62zM1231 604
q0 -38 -25 -62t-63 -24t-63 24t-25 62t25 62t63 24t63 -24t25 -62zM952 989q0 -38 -25 -62t-63 -24t-63 24t-25 62t25 62t63 24t63 -24t25 -62z" />
    <glyph glyph-name="gjK_SSA" horiz-adv-x="1581" 
d="M1059 -201l-164 -39l-125 271q-97 -60 -258 -60q-196 0 -312 94.5t-116 256.5q0 116 74 193.5t200 131.5q-80 45 -131 116t-51 161q0 133 103 216t247 83q158 0 251 -89t93 -200q0 -94 -46.5 -163t-127.5 -109q58 -9 123 -9q124 0 242.5 25.5t169.5 60.5v463h147v-1202
h-147v592q-168 -57 -400 -57q-185 0 -309 40q-138 -47 -213.5 -106.5t-75.5 -151.5q0 -97 72.5 -157t218.5 -60q56 0 113.5 17.5t89.5 48.5v196l123 13q55 -59 55 -158q0 -76 -43 -129zM324 922q0 -77 52 -133.5t132 -86.5q217 69 217 226q0 67 -51.5 114.5t-143.5 47.5
q-94 0 -150 -46.5t-56 -121.5z" />
    <glyph glyph-name="gjJ_NYA" horiz-adv-x="1484" 
d="M1124 920h9v282h151v-1202h-151v723q-76 106 -229.5 176t-317.5 70q-122 0 -189 -44t-67 -114q0 -43 30.5 -77t78.5 -56.5t106.5 -44t117.5 -46.5t107 -55.5t78.5 -80t30.5 -113.5q0 -71 -36.5 -129t-96 -93.5t-127 -55.5t-136.5 -23v-8l320 -213l-170 -84l-316 295
q-138 6 -215 73t-79 146l73 73l240 -159q105 -10 193 6.5t143 60.5t55 107q0 45 -30.5 78.5t-79.5 55.5t-108 41.5t-118.5 44t-108.5 55.5t-79.5 83t-30.5 121q0 122 112 207.5t302 85.5q120 0 234 -33t182 -71t122 -82z" />
    <glyph glyph-name="ITF" horiz-adv-x="3411" 
d="M301 0v1315h406v-1315h-406zM791 930v385h405v-385h-405zM1280 0v1315h406v-1315h-406zM1769 930v385h406v-385h-406zM2259 0v1315h405v-1315h-405zM2746 930v385h408v-385h-408zM2746 465v383h408v-383h-408z" />
    <glyph glyph-name="gjReph" horiz-adv-x="0" 
d="M10 1534l51 -121q-100 -47 -215 -47q-146 0 -232.5 82.5t-86.5 202.5q0 124 85.5 209.5t233.5 85.5q66 0 119 -15l-22 -127q-60 11 -93 11q-87 0 -135.5 -45t-48.5 -119q0 -69 49 -111.5t133 -42.5q89 0 162 37z" />
    <glyph glyph-name="gjRAc2" horiz-adv-x="0" 
d="M-494 -334l-176 33l303 311h179l301 -313l-174 -31l-215 277z" />
    <glyph glyph-name="gjK" horiz-adv-x="1087" 
d="M379 637v8q-95 47 -156 119.5t-61 163.5q0 123 113 203.5t305 80.5q109 0 200 -25.5t148 -62.5l-74 -123q-45 30 -122.5 52t-143.5 22q-136 0 -205.5 -41.5t-69.5 -109.5q0 -136 289 -246q8 2 54.5 14t60.5 15t56 12.5t66.5 13t63.5 8.5t76 7t78 2h246v-121h-259
q-63 0 -143 -10.5t-131 -24.5v-8q103 -44 167 -114.5t64 -166.5q0 -45 -14 -87.5t-47.5 -84t-83 -72.5t-126 -50t-171.5 -19q-125 0 -239 37.5t-179 83.5l74 123q63 -43 156.5 -75t191.5 -32q139 0 211 50t72 128q0 73 -74 128.5t-225 117.5q-132 -41 -449 -107v138z" />
    <glyph glyph-name="gjKH" horiz-adv-x="1114" 
d="M868 975v-260h473v-135h-473q0 -162 -89 -257.5t-247 -95.5q-162 0 -258 96.5t-96 258.5v397q0 43 -24 65.5t-64 22.5q-32 0 -57 -10v131q53 16 100 16q87 0 141 -56t54 -161v-397q0 -225 204 -225q94 0 141.5 58.5t47.5 162.5v389h147z" />
    <glyph glyph-name="gjG" horiz-adv-x="894" 
d="M8 580l133 65q30 -81 97 -125.5t153 -44.5q117 0 192.5 77t75.5 230q0 133 -69.5 210t-183.5 77q-82 0 -158 -43l-68 129q95 53 230 53q177 0 291 -116t114 -312q0 -209 -120.5 -326.5t-301.5 -117.5q-130 0 -234 65.5t-151 178.5z" />
    <glyph glyph-name="gjGH" horiz-adv-x="892" 
d="M1034 489l103 -94q-220 -272 -557 -272q-189 0 -303.5 87.5t-114.5 225.5q0 89 53 148t137 86v8q-92 21 -148.5 86.5t-56.5 159.5q0 95 53.5 161t135.5 94.5t184 28.5q121 0 219 -39l-37 -133q-88 35 -180 35q-94 0 -156.5 -39t-62.5 -117q0 -77 69.5 -125.5t219.5 -48.5
h92v-133h-90q-128 0 -202.5 -44t-74.5 -122q0 -79 69.5 -130.5t203.5 -51.5q259 0 444 229z" />
    <glyph glyph-name="gjC" horiz-adv-x="966" 
d="M690 129q-102 0 -186 33.5t-141 91.5t-95 126t-61 148q-96 34 -96 144q0 84 53 147l108 12l35 -165h27q127 0 195.5 58t68.5 148t-52.5 143.5t-137.5 53.5q-79 0 -146 -29l-43 140q84 30 180 30q159 0 255 -95.5t96 -240.5q0 -149 -109 -244t-287 -104q47 -136 126 -196
t210 -60q122 0 215.5 62t153.5 164l115 -93q-177 -274 -484 -274z" />
    <glyph glyph-name="gjJ" horiz-adv-x="1286" 
d="M764 950l106 -123q272 103 588 103v-129q-269 0 -500 -80q88 -108 133.5 -193t45.5 -174q0 -133 -97 -229t-260 -96q-161 0 -258.5 95t-97.5 226q0 126 82.5 232t228.5 184l-76 88q-111 130 -180.5 175.5t-142.5 45.5q-68 0 -116 -44.5t-48 -108.5q0 -70 52 -119.5
t163 -52.5v-15l-86 -102q-88 8 -153.5 51.5t-96.5 105.5t-31 132q0 128 96 211.5t222 83.5q109 0 207 -61t219 -206zM782 160q94 0 151.5 56t57.5 138q0 65 -36.5 130t-133.5 180q-118 -62 -184 -142.5t-66 -173.5q0 -79 57 -133.5t154 -54.5z" />
    <glyph glyph-name="gjNY" horiz-adv-x="1015" 
d="M8 578l133 67q30 -82 97 -126t153 -44q120 0 195.5 77.5t75.5 229.5q0 133 -71 210t-185 77q-82 0 -158 -43l-68 129q95 53 230 53q164 0 275 -100t128 -272q79 -11 162 -11q122 0 221 29l4 -145q-94 -29 -215 -29q-94 0 -176 16q-24 -170 -138.5 -265t-277.5 -95
q-130 0 -234 64.5t-151 177.5z" />
    <glyph glyph-name="gjNN" horiz-adv-x="1239" 
d="M1159 47q-70 -46 -179 -81.5t-239 -35.5q-137 0 -244 42t-172 113.5t-98.5 161.5t-33.5 191v764h149v-758q0 -169 101 -271.5t294 -102.5q114 0 206 31t149 71zM1145 801q0 -176 -113 -283.5t-289 -107.5q-93 0 -170 26v139q69 -28 164 -28q111 0 185.5 66t74.5 188
q0 128 -73.5 198t-190.5 70q-57 0 -127 -18v137q63 18 139 18q175 0 287.5 -109.5t112.5 -295.5z" />
    <glyph glyph-name="gjT" horiz-adv-x="772" 
d="M965 940v-143h-375q-162 0 -258 -86t-96 -240q0 -159 104.5 -249t261.5 -79v-141q-103 -9 -197.5 20t-167 88.5t-116 154.5t-43.5 210q0 209 136.5 337t354.5 128h396z" />
    <glyph glyph-name="gjTH" horiz-adv-x="923" 
d="M612 289q140 0 245 69t169 179l111 -91q-189 -294 -531 -294q-212 0 -354.5 130t-159.5 347q205 34 321.5 74t167 92t50.5 129q0 68 -40 110.5t-112 42.5q-66 0 -108.5 -41.5t-42.5 -103.5q0 -56 24 -96l-139 -27q-37 58 -37 131q0 109 83 189.5t218 80.5
q136 0 220.5 -84.5t84.5 -201.5q0 -302 -512 -389q2 -24 13 -53t37 -64t62.5 -63t96.5 -47t133 -19z" />
    <glyph glyph-name="gjDH" horiz-adv-x="868" 
d="M580 254q255 0 444 229l102 -96q-224 -270 -557 -270q-183 0 -301 89t-118 230q0 91 54.5 154t137.5 92v8q-88 22 -146.5 79.5t-58.5 141.5q0 60 28 108t76 84.5t100 67.5t114.5 74t103.5 86l88 -106q-37 -40 -89.5 -78t-96 -64t-83 -53t-62.5 -58t-23 -67
q0 -69 66.5 -111t213.5 -42h113v-131h-121q-126 0 -193 -47.5t-67 -129.5t72.5 -136t202.5 -54z" />
    <glyph glyph-name="gjN" horiz-adv-x="704" 
d="M299 440l-94 -32q-59 37 -96.5 110t-38.5 158l114 88h713v-135h-598v-189z" />
    <glyph glyph-name="gjP" horiz-adv-x="739" 
d="M838 627l104 -95q-77 -108 -172.5 -161.5t-239.5 -53.5q-162 0 -260 99t-98 250v305q0 51 -19.5 75.5t-64.5 24.5q-28 0 -55 -8v129q46 14 98 14q84 0 137.5 -56.5t53.5 -166.5v-272q0 -254 227 -254q94 0 163.5 41t125.5 129z" />
    <glyph glyph-name="gjPH" horiz-adv-x="1110" 
d="M821 600v-8q93 -49 145 -110t52 -146q0 -69 -35 -127.5t-92.5 -95.5t-127 -59t-142.5 -27v-9l321 -206l-166 -88l-315 288q-136 4 -218.5 69t-84.5 140l67 82l246 -156q165 -12 280 39.5t115 149.5q0 69 -70 121t-198 100q-47 -20 -487 -111v138l303 55v8
q-105 46 -171.5 116.5t-66.5 162.5q0 122 113 204t309 82q100 0 193.5 -26t148.5 -62l-68 -118q-50 29 -127 50t-149 21q-129 0 -196.5 -42t-67.5 -111q0 -41 22.5 -76.5t68 -65.5t91 -51.5t113.5 -48.5q9 2 48.5 12t52 13.5t49.5 11.5t56 11.5t54.5 9t62.5 8t62.5 4.5
t70.5 2h183v-121h-185q-124 0 -260 -33z" />
    <glyph glyph-name="gjB" horiz-adv-x="1101" 
d="M866 836v-156h465v-137h-465v-17q0 -179 -100 -276.5t-264 -97.5q-178 0 -294 140.5t-116 385.5q0 242 129 387t342 145q143 0 250 -71l-78 -127q-78 55 -178 55q-137 0 -222 -96.5t-85 -288.5q0 -108 22.5 -187t61 -121t82.5 -61.5t94 -19.5q102 0 155.5 61.5
t53.5 169.5v312h147z" />
    <glyph glyph-name="gjBH" horiz-adv-x="1161" 
d="M254 647q0 -145 56.5 -258t175.5 -181.5t286 -68.5q51 0 125 8v-141q-57 -8 -131 -8q-201 0 -354 87.5t-232.5 234.5t-79.5 329q0 123 37.5 228.5t101.5 176.5t149.5 111.5t180.5 40.5q71 0 128.5 -20t93.5 -52.5t61 -75.5t35 -86t10 -87v-162h459v-135h-459v-160h-135
q-103 73 -109 211l101 82v164q0 84 -47 133t-134 49q-59 0 -114.5 -26.5t-102 -76t-74.5 -132t-28 -185.5z" />
    <glyph glyph-name="gjM" horiz-adv-x="700" 
d="M379 342h-143q-43 40 -72 110.5t-29 137.5l96 67v318q0 96 -100 96q-34 0 -80 -12v129q63 18 123 18q87 0 146 -57t59 -162v-323h555v-140h-555v-182z" />
    <glyph glyph-name="gjY" horiz-adv-x="868" 
d="M602 303q254 0 373 205l110 -90q-37 -53 -77.5 -94t-99 -79.5t-138.5 -59.5t-176 -21q-210 0 -348.5 139.5t-155.5 360.5q234 40 340.5 104.5t106.5 155.5q0 70 -50 106.5t-125 36.5q-67 0 -151 -35l-51 135q92 39 198 39q142 0 236 -76t94 -206q0 -134 -109.5 -224
t-306.5 -131q1 -26 12 -58t36 -69.5t61 -67.5t94 -50.5t127 -20.5z" />
    <glyph glyph-name="gjL" horiz-adv-x="915" 
d="M106 606q0 144 49 264.5t133.5 199t204 114.5t255.5 18v-139q-99 13 -187 -10.5t-154 -80t-104.5 -151t-38.5 -215.5q0 -247 140.5 -371t351.5 -94v-141q-137 -16 -257.5 21t-207 116.5t-136 201t-49.5 267.5zM1145 688v-139h-576v139h576z" />
    <glyph glyph-name="gjV" horiz-adv-x="745" 
d="M883 608l100 -104q-86 -97 -189 -150t-245 -53q-196 0 -327.5 121t-131.5 328q0 104 40 190.5t106.5 142t151.5 85.5t177 30q58 0 105 -8v-150q-57 13 -105 13q-132 0 -225.5 -82t-93.5 -221q0 -142 86 -225t231 -83q201 0 320 166z" />
    <glyph glyph-name="gjSH" horiz-adv-x="946" 
d="M518 1214q150 0 247 -99.5t97 -237.5q0 -167 -122 -277t-347 -119q-10 -45 -10 -98q0 -103 72 -176.5t198 -73.5q108 0 193 49l41 -133q-100 -57 -242 -57q-100 0 -180.5 33t-130.5 87.5t-76.5 122.5t-26.5 142q0 56 13 106q-89 6 -148 19v110h244q176 0 272.5 73
t96.5 194q0 95 -56 148.5t-133 53.5q-70 0 -116 -42.5t-46 -102.5t48 -102l-119 -54q-37 23 -57.5 66t-20.5 94q0 108 82.5 191t226.5 83z" />
    <glyph glyph-name="gjSS" horiz-adv-x="712" 
d="M918 590v-76q-72 -99 -169 -149t-208 -50q-171 0 -270 95.5t-99 248.5v314q0 98 -84 98q-22 0 -55 -10v131q49 14 92 14q45 0 83 -16t83 -55zM303 975q14 -28 14 -156v-125q0 -125 64.5 -186.5t177.5 -61.5q65 0 126 31t99 84l-477 418z" />
    <glyph glyph-name="gjS" horiz-adv-x="1011" 
d="M258 1034l-43 144q92 30 193 30q167 0 272.5 -94t105.5 -248q0 -123 -65 -209q94 -24 199 -24q166 0 288 61l41 -141q-138 -59 -315 -59q-182 0 -326 69q-95 -51 -223 -57q-18 -56 -18 -119q0 -104 71.5 -179t202.5 -75q95 0 178 45l39 -137q-92 -49 -223 -49
q-98 0 -180 33.5t-133.5 88t-80 123t-28.5 140.5q0 78 16 131q-65 5 -141 22v115h252q147 0 219 61t72 158q0 93 -59 145t-160 52q-80 0 -154 -27z" />
    <glyph glyph-name="gjLL" horiz-adv-x="1103" 
d="M1249 1151l-73 -123q-59 47 -142 47q-102 0 -155.5 -62.5t-53.5 -168.5q0 -49 12.5 -137.5t12.5 -147.5q0 -73 -23 -137t-66.5 -115t-113.5 -80.5t-158 -29.5q-173 0 -282 121.5t-109 324.5q0 174 81 325t194 244l110 -96q-231 -210 -231 -471q0 -156 66.5 -233.5
t173.5 -77.5q98 0 153 62.5t55 172.5q0 56 -13 141t-13 144q0 152 96 256t264 104q124 0 215 -63z" />
    <glyph glyph-name="gjK_SS" horiz-adv-x="1062" 
d="M1315 741v-151q-199 -64 -422 -64q-208 0 -371 49q-138 -47 -213.5 -106.5t-75.5 -151.5q0 -97 72.5 -157t218.5 -60q56 0 113.5 17.5t89.5 48.5v196l123 13q55 -59 55 -158q0 -76 -43 -129l197 -289l-164 -39l-125 271q-97 -60 -258 -60q-196 0 -312 94.5t-116 256.5
q0 116 74 193.5t200 131.5q-80 45 -131 116t-51 161q0 133 103 216t247 83q158 0 251 -89t93 -200q0 -94 -46.5 -163t-127.5 -109q59 -9 170 -9q141 0 259.5 25.5t189.5 62.5zM324 922q0 -77 52 -133.5t132 -86.5q217 69 217 226q0 67 -51.5 114.5t-143.5 47.5
q-94 0 -150 -46.5t-56 -121.5z" />
    <glyph glyph-name="gjJ_NY" horiz-adv-x="1013" 
d="M1208 866l-86 -104q-99 96 -237 151.5t-291 55.5q-137 0 -200.5 -43.5t-63.5 -114.5q0 -43 30.5 -76.5t78.5 -56.5t106.5 -44.5t117.5 -46.5t107 -56t78.5 -80.5t30.5 -112.5q0 -71 -36.5 -129t-96 -93.5t-127 -55.5t-136.5 -23v-8l320 -213l-170 -84l-316 295
q-138 6 -215 73t-79 146l73 73l240 -159q105 -10 193 6t143 59.5t55 106.5q0 45 -30.5 78.5t-79.5 55t-108 41.5t-118.5 44.5t-108.5 56.5t-79.5 84t-30.5 121q0 123 110 207t312 84q134 0 265.5 -41.5t214.5 -92.5t134 -104z" />
    <glyph glyph-name="gjK_RA" horiz-adv-x="1144" 
d="M98 588l281 53v8q-94 43 -155.5 115.5t-61.5 163.5q0 123 113 203.5t305 80.5q109 0 200 -25.5t148 -62.5l-74 -123q-45 30 -122.5 52t-143.5 22q-136 0 -205.5 -41.5t-69.5 -109.5q0 -136 289 -246q84 27 166 47.5t279 60.5v-133l-275 -53v-8q103 -46 166 -118.5
t63 -168.5q0 -45 -14 -87.5t-47.5 -84t-83 -72.5t-126 -50t-171.5 -19q-125 0 -239 37.5t-179 83.5l74 120q59 -43 153.5 -75.5t192.5 -32.5q146 0 218.5 52t72.5 130q0 57 -43.5 105t-144.5 98l-236 -225l-141 67l272 217l-4 6q-139 -49 -457 -120v133z" />
    <glyph glyph-name="gjKH_RA" horiz-adv-x="1581" 
d="M868 975v-219h359v446h149v-1202h-149v276h-8l-498 -380l-156 86l668 471v170h-365q-5 -155 -93.5 -246.5t-242.5 -91.5q-162 0 -258 96t-96 260v338q0 43 -24 65.5t-64 22.5q-32 0 -57 -10v131q53 16 100 16q87 0 141 -56t54 -161v-340q0 -223 204 -223q95 0 142 58
t47 163v330h147z" />
    <glyph glyph-name="gjG_RA" horiz-adv-x="1454" 
d="M1104 0l2 313h-10l-494 -350l-162 92l662 432v715h151v-1202h-149zM8 580l121 82q33 -76 99.5 -117t150.5 -41q117 0 190.5 74.5t73.5 218.5q0 128 -69.5 200t-182.5 72q-80 0 -153 -37l-60 129q87 47 219 47q179 0 290.5 -112.5t111.5 -302.5q0 -200 -118.5 -314
t-297.5 -114q-126 0 -226 57t-149 158z" />
    <glyph glyph-name="gjGH_RA" horiz-adv-x="1366" 
d="M1012 252h-8l-664 -377l-139 107l352 153v8q-172 5 -280.5 84.5t-108.5 212.5q0 87 53 146t137 84v8q-92 21 -149.5 86.5t-57.5 159.5q0 95 54 161t136 94.5t183 28.5q118 0 221 -39l-36 -133q-87 35 -181 35q-95 0 -157 -38.5t-62 -117.5q0 -77 69.5 -125.5t219.5 -48.5
h92v-133h-90q-129 0 -203 -44t-74 -122q0 -81 76 -132.5t223 -51.5q91 0 179 30.5t137 63.5t78 64v786h151v-1202h-151v252z" />
    <glyph glyph-name="gjC_RA" horiz-adv-x="1437" 
d="M1085 262l-739 -338l-125 113l350 127v8q-144 26 -232.5 122t-129.5 234q-98 34 -98 144q0 84 53 147l108 12l35 -165h27q127 0 195.5 58t68.5 148t-52.5 143.5t-137.5 53.5q-79 0 -146 -29l-43 140q84 30 180 30q159 0 255 -95.5t96 -240.5q0 -148 -108.5 -243.5
t-285.5 -104.5q46 -127 126 -187t208 -60q66 0 126.5 13t112.5 37.5t82.5 42.5t71.5 46v784h152v-1202h-150v262z" />
    <glyph glyph-name="gjJ_RA" horiz-adv-x="1277" 
d="M139 899l-145 33q10 124 103.5 204.5t217.5 80.5q109 0 208.5 -62t221.5 -205l56 -65l340 317h182v-18l-434 -404l2 -2q45 -54 70.5 -85t60 -80t52 -86t31 -83t13.5 -90q0 -133 -97 -229t-261 -96q-161 0 -259 94t-98 225q0 100 52.5 181t156.5 180l86 79l-55 66
q-11 14 -31 35.5t-22 23.5l-299 -272l-135 70l346 288q-92 78 -187 78q-75 0 -124.5 -52.5t-51.5 -125.5zM762 160q94 0 151.5 56t57.5 138q0 68 -39.5 134.5t-145.5 191.5l-2 2l-43 -41q-118 -109 -154 -171.5t-36 -123.5q0 -78 57.5 -132t153.5 -54z" />
    <glyph glyph-name="gjJH_RA" horiz-adv-x="1554" 
d="M997 -2q-66 0 -141.5 21.5t-120.5 48.5l47 131q34 -24 94.5 -43t118.5 -19q133 0 221.5 82t88.5 238q0 98 -41 166l-256 -285l-138 49l318 322q-75 57 -178 57q-115 0 -228 -61q-15 -181 -134.5 -291.5t-285.5 -110.5q-105 0 -194.5 44.5t-144.5 125.5l108 88
q78 -119 229 -119q113 0 191 85.5t78 226.5q0 148 -70.5 231.5t-185.5 83.5q-81 0 -158 -41l-65 127q100 53 229 53q152 0 259 -92.5t136 -255.5q105 43 240 43h26l179 299h170l-201 -332q123 -47 196.5 -157t73.5 -260q0 -144 -64 -249t-167 -155.5t-230 -50.5z" />
    <glyph glyph-name="gjNY_RA" horiz-adv-x="1464" 
d="M8 578l133 67q30 -82 97 -126t153 -44q120 0 195.5 77.5t75.5 229.5q0 133 -71 210t-185 77q-82 0 -158 -43l-68 129q95 53 230 53q164 0 275 -100t128 -272q72 -11 154 -11q85 0 143 15v362h152v-1202h-152v236l-512 -340l-172 79l684 410v309q-50 -12 -137 -12
q-89 0 -164 16q-24 -172 -138.5 -267t-277.5 -95q-130 0 -234 64.5t-151 177.5z" />
    <glyph glyph-name="gjNN_RA" horiz-adv-x="1701" 
d="M737 70l4 -140q-137 0 -244 42t-172 113.5t-98.5 161.5t-33.5 191v764h149v-758q0 -169 101 -271.5t294 -102.5zM1145 801q0 -176 -113 -283.5t-289 -107.5q-93 0 -170 26v139q69 -28 164 -28q111 0 185.5 66t74.5 188q0 128 -73.5 198t-190.5 70q-57 0 -127 -18v137
q63 18 139 18q175 0 287.5 -109.5t112.5 -295.5zM1501 0h-151v373l-375 -334l-152 74l527 428v661h151v-1202z" />
    <glyph glyph-name="gjT_RA" horiz-adv-x="1198" 
d="M848 684v518h147v-1202h-147v526l-639 -407l-109 106l523 324q-20 68 -47.5 126.5t-66 109.5t-91.5 80.5t-113 29.5q-120 0 -194 -104l-119 98q17 24 42 47.5t63 49t92 41t114 15.5q149 0 265.5 -113.5t179.5 -305.5z" />
    <glyph glyph-name="gjTH_RA" horiz-adv-x="1372" 
d="M543 166v12q-179 3 -306.5 130.5t-142.5 320.5q205 34 321.5 74t167 92t50.5 129q0 68 -40 110.5t-112 42.5q-66 0 -108.5 -41.5t-42.5 -103.5q0 -56 24 -96l-139 -27q-37 58 -37 131q0 109 83 189.5t218 80.5q136 0 220.5 -84.5t84.5 -201.5q0 -302 -512 -389
q2 -25 14 -54t40 -63.5t67 -62t102 -46t138 -18.5q127 0 234 57.5t155 126.5v727h149v-1202h-149v293l-709 -397l-139 108z" />
    <glyph glyph-name="gjD_RA" horiz-adv-x="1177" 
d="M618 360q132 0 187 48v208l110 43q39 -16 72 -61t33 -106q0 -100 -72 -168l223 -295l-178 -47l-153 280l-564 -350l-137 111l404 206v9q-80 4 -156 33t-136 78t-96 121.5t-36 156.5q0 131 89 212t271 134l209 59q56 17 80.5 42.5t24.5 64.5q0 29 -15 63h150
q18 -44 18 -82q0 -154 -203 -215l-170 -51q-163 -47 -232 -101t-69 -143q0 -100 90 -175t256 -75z" />
    <glyph glyph-name="gjDH_RA" horiz-adv-x="1341" 
d="M987 434v768h152v-1202h-152v250h-8l-649 -389l-146 100l355 170v8q-173 3 -281 82.5t-108 214.5q0 91 54.5 154t137.5 92v8q-88 22 -146.5 79.5t-58.5 141.5q0 60 28 108t76 84.5t100 67.5t113.5 74t102.5 86l90 -106q-37 -40 -89.5 -78t-96 -64t-83 -53t-62.5 -58
t-23 -67q0 -69 66.5 -111t213.5 -42h113v-131h-121q-127 0 -193.5 -47.5t-66.5 -129.5q0 -80 76.5 -132t212.5 -52q132 0 240 56.5t153 117.5z" />
    <glyph glyph-name="gjN_RA" horiz-adv-x="1101" 
d="M299 440l-94 -32q-59 37 -96.5 110t-38.5 158l114 88h566v438h149v-1202h-145v322l-447 -334l-160 84l603 403v154h-451v-189z" />
    <glyph glyph-name="gjP_RA" horiz-adv-x="1173" 
d="M174 971q0 100 -84 100q-26 0 -57 -8v129q49 14 100 14q84 0 137.5 -56.5t53.5 -166.5v-231q0 -252 227 -252q112 0 191 75t79 177v450h150v-1202h-150v469h-8l-573 -463l-160 88l409 287v8q-133 0 -224 86t-91 232v264z" />
    <glyph glyph-name="gjPH_RA" horiz-adv-x="1175" 
d="M872 338q0 55 -40 96t-115 78l-242 -221l-135 74l278 202l-2 6q-53 -18 -505 -116v131l303 55v8q-104 43 -170 113.5t-66 161.5q0 122 112.5 204t307.5 82q100 0 193.5 -25.5t150.5 -62.5l-70 -118q-50 29 -127 50t-147 21q-130 0 -198 -42t-68 -111q0 -41 23 -76
t67.5 -65t90.5 -52t112 -47q108 33 444 102v-133l-252 -49v-8q201 -105 201 -260q0 -92 -60 -162t-148 -105.5t-189 -41.5v-9l321 -206l-166 -88l-315 288q-136 4 -218.5 69t-84.5 140l67 80l252 -158q105 -8 194.5 12t145 68t55.5 115z" />
    <glyph glyph-name="gjB_RA" horiz-adv-x="1585" 
d="M1235 0v223l-502 -334l-168 80l666 402v186h-369q-18 -152 -118.5 -238t-243.5 -86q-175 0 -291.5 128t-116.5 348q0 221 129.5 361t339.5 140q143 0 250 -71l-78 -127q-78 55 -178 55q-135 0 -221 -92.5t-86 -263.5q0 -76 16 -136t41 -96.5t60 -60.5t69.5 -33.5
t71.5 -9.5q96 0 154.5 67.5t58.5 178.5v215h147v-142h365v508h151v-1202h-147z" />
    <glyph glyph-name="gjBH_RA" horiz-adv-x="1644" 
d="M598 164l-94 -117q-185 68 -294.5 231.5t-109.5 376.5q0 120 36.5 223.5t98.5 175t147 112t179 40.5q68 0 123.5 -19.5t92 -51.5t61 -74t35 -85.5t10.5 -88.5v-162h411v477h148v-1202h-144v391h-8l-436 -352l-152 74l621 471v8h-442v-156h-133q-102 73 -105 209l96 78
v160q0 85 -45 133.5t-131 48.5q-56 0 -110.5 -26.5t-99 -76t-72 -130t-27.5 -179.5q0 -178 88 -308.5t256 -180.5z" />
    <glyph glyph-name="gjM_RA" horiz-adv-x="1179" 
d="M821 367l-516 -422l-147 86l700 520v8h-479v-170h-143q-40 39 -67.5 103.5t-27.5 130.5l90 63v289q0 96 -100 96q-34 0 -80 -12v129q63 18 123 18q87 0 146 -57t59 -162v-293h450v508h148v-1202h-148v367h-8z" />
    <glyph glyph-name="gjY_RA" horiz-adv-x="1323" 
d="M604 309q127 0 228.5 48.5t142.5 115.5v729h151v-1202h-149v295l-717 -371l-139 105l385 161v9q-157 8 -277 135.5t-137 331.5q232 39 338.5 102.5t106.5 155.5q0 70 -48.5 106.5t-123.5 36.5q-68 0 -152 -35l-51 135q89 39 198 39q142 0 236 -76t94 -206
q0 -133 -110 -223.5t-306 -131.5q2 -28 14 -60.5t38.5 -68.5t63 -64.5t92.5 -47.5t122 -19z" />
    <glyph glyph-name="gjL_RA" horiz-adv-x="1370" 
d="M106 606q0 144 49 264.5t133.5 199t204 114.5t255.5 18v-139q-99 13 -187 -10.5t-154 -80t-104.5 -151t-38.5 -215.5q0 -124 38 -219.5t102.5 -152t148 -80.5t176.5 -13v-141q-130 -12 -244 26t-198 116t-132.5 198t-48.5 266zM569 592v137h449v473h151v-1202h-151v391
l-291 -209l-123 109l414 244v57h-449z" />
    <glyph glyph-name="gjV_RA" horiz-adv-x="1245" 
d="M453 315v9q-67 9 -130 40t-115.5 82.5t-84 131t-31.5 174.5q0 104 39.5 190t106.5 141t151.5 85t177.5 30q61 0 105 -8v-150q-57 13 -103 13q-133 0 -226 -81t-93 -220q0 -146 87 -228t232 -82q119 0 206.5 48t115.5 110v602h147v-1202h-147v397h-8l-629 -334l-156 105z
" />
    <glyph glyph-name="gjSH_RA" horiz-adv-x="1382" 
d="M80 463l-88 125q181 16 350 67q-147 127 -147 279q0 112 84.5 196t220.5 84q133 0 220 -81.5t87 -206.5q0 -190 -211 -305q164 -102 381 -150l57 31v700h148v-1202h-148v346h-8l-555 -305l-127 100l485 248q-84 22 -184.5 70t-177.5 100q-158 -64 -387 -96zM338 930
q0 -120 133 -225q193 82 193 221q0 75 -47 118t-115 43q-67 0 -115.5 -43t-48.5 -114z" />
    <glyph glyph-name="gjSS_RA" horiz-adv-x="1173" 
d="M174 971q0 100 -84 100q-26 0 -57 -8v129q49 14 100 14q86 0 135 -55l543 -467q10 38 10 68v450h150v-1202h-150v469h-8l-573 -463l-160 88l409 287v8q-133 0 -224 86t-91 232v264zM551 500q62 0 117 25t92 69l-436 379v-221q0 -252 227 -252z" />
    <glyph glyph-name="gjS_RA" horiz-adv-x="1542" 
d="M258 1034l-43 144q92 30 193 30q167 0 272.5 -94t105.5 -248q0 -96 -36 -164q95 -20 184 -20q162 0 256 51v469h149v-1202h-149l2 412h-8l-285 -185l-156 80l482 271l-11 18q-103 -47 -256 -47q-157 0 -294 51q-109 -85 -279 -94q-18 -56 -18 -119q0 -104 71.5 -179
t202.5 -75q89 0 166 39l37 -137q-87 -43 -209 -43q-98 0 -180 33.5t-133.5 88t-80 123t-28.5 140.5q0 78 16 131q-65 5 -141 22v115h252q147 0 219 61t72 158q0 93 -59 145t-160 52q-80 0 -154 -27z" />
    <glyph glyph-name="gjH_RA" horiz-adv-x="1185" 
d="M946 -209q-71 -16 -164 -16q-179 0 -325 65t-233 189t-87 286q0 125 55.5 223t151.5 150v8q-79 36 -125.5 104t-46.5 144q0 38 11 73t40.5 71.5t75 63t120.5 43.5t171 17q103 0 216.5 -22t186.5 -53l-39 -129q-78 29 -177 47t-185 18q-76 0 -130 -13t-80.5 -35.5t-38 -47
t-11.5 -53.5q0 -52 44 -103t120 -76q76 13 143 13q193 0 316.5 -99t123.5 -258v-266h-137v301l-301 -235l-109 86l189 139q108 79 176 109q-40 45 -109 69.5t-143 24.5q-160 0 -257 -88.5t-97 -229.5q0 -185 139 -295t354 -110q104 0 183 18z" />
    <glyph glyph-name="gjLL_RA" horiz-adv-x="1593" 
d="M1393 0h-152v240l-512 -340l-174 80l686 409v457q0 107 -56.5 168t-150.5 61q-102 0 -155.5 -62.5t-53.5 -168.5q0 -50 11.5 -132.5t11.5 -140.5q0 -154 -93 -255t-266 -101t-282 121.5t-109 322.5q0 168 80.5 314t194.5 239l110 -96q-231 -210 -231 -454
q0 -156 66.5 -233t173.5 -77q99 0 152.5 59t53.5 169q0 56 -12 135.5t-12 138.5q0 152 96 256t264 104q160 0 259.5 -101t99.5 -259v-854z" />
    <glyph glyph-name="gjK_SS_RA" horiz-adv-x="1601" 
d="M956 -201l-163 -39l-125 271q-97 -60 -254 -60q-135 0 -232.5 97t-97.5 254q0 116 74 193.5t200 131.5q-80 45 -131 116t-51 161q0 133 103 216t247 83q158 0 251 -89t93 -200q0 -94 -46.5 -163t-127.5 -109q74 -9 129 -9q51 2 113.5 7.5t167 26.5t145.5 52v463h150
v-1202h-150v242l-264 -244l-149 74l413 340v180q-126 -56 -420 -57q15 0 -1 1q-201 17 -257 27q-32 6 -51 12q-138 -47 -213.5 -106.5t-75.5 -151.5t56 -154.5t141 -62.5q52 0 107.5 17.5t87.5 48.5v196l123 13q55 -59 55 -158q0 -76 -43 -129zM324 922q0 -77 52 -133.5
t132 -86.5q217 69 217 226q0 67 -51.5 114.5t-143.5 47.5q-94 0 -150 -46.5t-56 -121.5z" />
    <glyph glyph-name="gjJ_NY_RA" horiz-adv-x="1507" 
d="M1145 920h10v282h150v-1202h-150v272l-266 -331l-150 73l416 447v262q-100 108 -254 177t-315 69q-122 0 -189 -44t-67 -114q0 -43 25.5 -77t66.5 -56.5t90 -44t98.5 -46.5t90.5 -55.5t66.5 -80t25.5 -113.5q0 -143 -85.5 -219t-224.5 -82v-8l320 -213l-170 -84l-316 295
q-138 6 -215 73t-79 146l73 73l240 -159q305 -29 305 174q0 45 -26 78.5t-67 55.5t-91 41.5t-100.5 44t-91.5 55.5t-67 83t-26 121q0 122 112 207.5t302 85.5q91 0 177 -17t159.5 -49.5t120 -58t102.5 -61.5z" />
    <glyph glyph-name="gjK_R" horiz-adv-x="1079" 
d="M600 678q10 3 56 15.5t60.5 16t55 13.5t65 13.5t63.5 8.5t77 7t80 2h246v-119h-259q-136 0 -274 -35v-8q103 -46 166 -118.5t63 -168.5q0 -45 -14 -87.5t-47.5 -84t-83 -72.5t-126 -50t-171.5 -19q-125 0 -239 37.5t-179 83.5l74 120q59 -43 153.5 -75.5t192.5 -32.5
q146 0 218.5 52t72.5 130q0 57 -43.5 105t-144.5 98l-236 -225l-141 67l272 217l-4 6q-139 -49 -457 -120v133l281 53v8q-94 43 -155.5 115.5t-61.5 163.5q0 123 113 203.5t305 80.5q109 0 200 -25.5t148 -62.5l-74 -123q-45 30 -122.5 52t-143.5 22q-134 0 -204.5 -41.5
t-70.5 -109.5q0 -136 289 -246z" />
    <glyph glyph-name="gjKH_R" horiz-adv-x="1110" 
d="M868 975v-219h453v-133h-453q-5 -155 -93.5 -246.5t-242.5 -91.5q-162 0 -258 96t-96 260v338q0 43 -24 65.5t-64 22.5q-32 0 -57 -10v131q53 16 100 16q87 0 141 -56t54 -161v-340q0 -223 204 -223q95 0 142 58t47 163v330h147zM1321 508v-156l-600 -469l-156 86z" />
    <glyph glyph-name="gjG_R" horiz-adv-x="980" 
d="M23 580l120 82q33 -76 99.5 -117t150.5 -41q116 0 190 74.5t74 218.5q0 128 -69.5 200t-184.5 72q-80 0 -153 -37l-60 129q90 47 220 47q180 0 291.5 -112.5t111.5 -302.5q0 -200 -119.5 -314t-298.5 -114q-125 0 -224 57t-148 158zM1208 549v-166l-596 -418l-161 92z
" />
    <glyph glyph-name="gjGH_R" horiz-adv-x="866" 
d="M1077 465l27 -158l-764 -432l-141 107l354 153v8q-173 5 -282 84t-109 213q0 87 53 146t137 84v8q-92 21 -148.5 86.5t-56.5 159.5q0 95 53.5 161t135.5 94.5t184 28.5q121 0 219 -39l-37 -133q-88 35 -180 35q-94 0 -156.5 -39t-62.5 -117q0 -77 69.5 -125.5
t219.5 -48.5h92v-133h-90q-128 0 -202.5 -44t-74.5 -122q0 -81 76 -132.5t223 -51.5q80 0 158.5 23t138.5 59.5t98.5 66.5t65.5 58z" />
    <glyph glyph-name="gjC_R" horiz-adv-x="899" 
d="M346 -76l-125 113l350 127v8q-144 26 -232.5 122t-129.5 234q-98 34 -98 144q0 84 53 147l108 12l35 -165h27q127 0 195.5 58t68.5 148t-52.5 143.5t-137.5 53.5q-79 0 -146 -29l-43 140q84 30 180 30q159 0 255 -95.5t96 -240.5q0 -148 -108.5 -243.5t-285.5 -104.5
q46 -127 126 -187t208 -60q82 0 167 25.5t128 48t107 61.5l26 -135z" />
    <glyph glyph-name="gjJ_R" horiz-adv-x="1273" 
d="M764 29q-161 0 -259.5 94.5t-98.5 224.5q0 128 83 234t230 184l-74 88q-10 11 -27 31t-24 28l-299 -272l-135 70l346 288q-92 78 -189 78q-74 0 -124 -53t-50 -125l-147 33q12 124 105 204.5t218 80.5q108 0 208.5 -62.5t220.5 -204.5l104 -123q275 103 588 103v-131
q-264 0 -498 -78q87 -108 132.5 -192.5t45.5 -174.5q0 -133 -96.5 -229t-259.5 -96zM766 160q94 0 151.5 56t57.5 138q0 65 -36.5 130t-133.5 180q-118 -61 -185 -141.5t-67 -174.5q0 -79 57.5 -133.5t155.5 -54.5z" />
    <glyph glyph-name="gjNY_R" horiz-adv-x="1015" 
d="M1192 289l-594 -393l-172 79l704 422zM8 578l133 67q30 -82 97 -126t153 -44q120 0 195.5 77.5t75.5 229.5q0 133 -71 210t-185 77q-82 0 -158 -43l-68 129q95 53 230 53q164 0 275 -100t128 -272q79 -11 162 -11q122 0 221 29l4 -145q-94 -29 -215 -29q-94 0 -176 16
q-24 -170 -138.5 -265t-277.5 -95q-130 0 -234 64.5t-151 177.5z" />
    <glyph glyph-name="gjNN_R" horiz-adv-x="1239" 
d="M737 70l4 -140q-137 0 -244 42t-172 113.5t-98.5 161.5t-33.5 191v764h149v-758q0 -169 101 -271.5t294 -102.5zM1145 801q0 -176 -113 -283.5t-289 -107.5q-93 0 -170 26v139q69 -28 164 -28q111 0 185.5 66t74.5 188q0 128 -73.5 198t-190.5 70q-57 0 -127 -18v137
q63 18 139 18q175 0 287.5 -109.5t112.5 -295.5zM1403 584l-33 -193l-395 -352l-152 74z" />
    <glyph glyph-name="gjT_R" horiz-adv-x="770" 
d="M948 741v-153l-733 -469l-106 106l520 324q-20 68 -47.5 126.5t-65.5 109.5t-91 80.5t-114 29.5q-118 0 -192 -104l-119 98q17 24 42 47.5t62.5 49t91.5 41t115 15.5q149 0 265 -113.5t178 -305.5z" />
    <glyph glyph-name="gjTH_R" horiz-adv-x="894" 
d="M1079 514v-188l-768 -430l-139 108l369 162v12q-179 3 -306.5 130.5t-142.5 320.5q205 34 321.5 74t167 92t50.5 129q0 68 -40 110.5t-112 42.5q-66 0 -108.5 -41.5t-42.5 -103.5q0 -56 24 -96l-139 -27q-37 58 -37 131q0 109 83 189.5t218 80.5q136 0 220.5 -84.5
t84.5 -201.5q0 -302 -512 -389q2 -25 14 -54t40 -63.5t67 -62t102 -46t138 -18.5q141 0 264.5 70.5t183.5 152.5z" />
    <glyph glyph-name="gjDH_R" horiz-adv-x="837" 
d="M1069 487v-178l-737 -448l-148 100l355 170v8q-173 3 -281 82.5t-108 214.5q0 91 54.5 154t137.5 92v8q-88 22 -146.5 79.5t-58.5 141.5q0 60 28 108t76 84.5t100 67.5t114.5 74t103.5 86l88 -106q-37 -40 -89.5 -78t-96 -64t-83 -53t-62.5 -58t-23 -67q0 -69 66.5 -111
t213.5 -42h113v-131h-121q-126 0 -193 -47.5t-67 -129.5q0 -80 76.5 -132t212.5 -52q143 0 277.5 73t197.5 154z" />
    <glyph glyph-name="gjN_R" horiz-adv-x="669" 
d="M872 559l72 -100l-637 -471l-160 84zM299 440l-94 -32q-59 37 -96.5 110t-38.5 158l114 88h713v-135h-598v-189z" />
    <glyph glyph-name="gjP_R" horiz-adv-x="731" 
d="M815 455l-569 -449l-160 88l412 287v8q-134 0 -226 86t-92 232v264q0 51 -19.5 75.5t-64.5 24.5q-28 0 -55 -8v129q46 14 98 14q84 0 137.5 -56.5t53.5 -166.5v-231q0 -252 227 -252q176 0 281 176l100 -88q-13 -26 -47.5 -64t-75.5 -69z" />
    <glyph glyph-name="gjPH_R" horiz-adv-x="1101" 
d="M872 338q0 55 -40 96t-115 78l-242 -221l-135 74l278 202l-2 6q-53 -18 -505 -116v131l303 55v8q-104 43 -170 113.5t-66 161.5q0 122 112.5 204t307.5 82q100 0 193.5 -25.5t150.5 -62.5l-70 -118q-50 29 -127 50t-147 21q-130 0 -198 -42t-68 -111q0 -41 23 -76
t67.5 -65t90.5 -52t112 -47q9 2 44 12t46 12.5t43 10.5t47.5 11t46 9t52.5 8.5t52.5 5.5t61 4t63.5 1h181v-121h-185q-139 0 -260 -33v-8q201 -105 201 -260q0 -92 -60 -162t-148 -105.5t-189 -41.5v-9l321 -206l-166 -88l-315 288q-136 4 -218.5 69t-84.5 140l67 80
l252 -158q105 -8 194.5 12t145 68t55.5 115z" />
    <glyph glyph-name="gjB_R" horiz-adv-x="1087" 
d="M1303 557h-441q-18 -152 -118.5 -238t-243.5 -86q-175 0 -291.5 128t-116.5 348q0 221 129.5 361t339.5 140q143 0 250 -71l-78 -127q-78 55 -178 55q-135 0 -221 -92.5t-86 -263.5q0 -76 16 -136t41 -96.5t60 -60.5t69.5 -33.5t71.5 -9.5q96 0 154.5 67.5t58.5 178.5
v215h147v-142h437v-137zM1450 367l-717 -478l-168 80l781 471z" />
    <glyph glyph-name="gjBH_R" horiz-adv-x="1161" 
d="M612 162l-92 -115q-185 68 -295 231.5t-110 376.5q0 159 62 286t167 196t231 69q68 0 123.5 -19.5t92 -51.5t61 -74t35 -85.5t10.5 -88.5v-162h477v-274l-506 -412l-151 74l631 479h-453v-156h-133q-102 73 -105 209l97 78v160q0 85 -45 133.5t-131 48.5
q-56 0 -110.5 -26.5t-99.5 -76t-72.5 -130t-27.5 -179.5q0 -177 88 -309.5t256 -181.5z" />
    <glyph glyph-name="gjM_R" horiz-adv-x="729" 
d="M305 -55l-147 86l714 528h-493v-170h-143q-40 39 -67.5 103.5t-27.5 130.5l90 63v289q0 96 -100 96q-34 0 -80 -12v129q63 18 123 18q92 0 148.5 -56.5t56.5 -162.5v-293h518v-276z" />
    <glyph glyph-name="gjY_R" horiz-adv-x="821" 
d="M1026 510l29 -172l-795 -414l-141 105l387 161v9q-157 8 -278 136t-138 331q234 39 340.5 102.5t106.5 155.5q0 70 -50 106.5t-125 36.5q-67 0 -151 -35l-51 135q92 39 198 39q142 0 236 -76t94 -206q0 -134 -109.5 -224t-306.5 -131q2 -36 22.5 -77.5t58 -84t103 -70.5
t146.5 -28q78 0 150.5 20.5t125 53.5t88.5 64.5t60 62.5z" />
    <glyph glyph-name="gjL_R" horiz-adv-x="915" 
d="M106 606q0 144 49 264.5t133.5 199t204 114.5t255.5 18v-139q-99 13 -187 -10.5t-154 -80t-104.5 -151t-38.5 -215.5q0 -124 38 -219.5t102.5 -152t148 -80.5t176.5 -13v-141q-130 -12 -244 26t-198 116t-132.5 198t-48.5 266zM569 592v137h578l-2 -137v-105l-418 -305
l-123 109l516 301h-551z" />
    <glyph glyph-name="gjV_R" horiz-adv-x="761" 
d="M950 608l29 -155l-729 -390l-154 105l355 147v9q-67 9 -130 40t-115.5 82.5t-84 131t-31.5 174.5q0 104 39.5 190t106.5 141t151.5 85t177.5 30q58 0 105 -8v-150q-57 13 -105 13q-133 0 -226 -81t-93 -220q0 -145 87.5 -227.5t231.5 -82.5q124 0 226 51t159 115z" />
    <glyph glyph-name="gjSH_R" horiz-adv-x="829" 
d="M80 463l-88 125q181 16 350 67q-147 127 -147 279q0 112 84.5 196t220.5 84q133 0 220 -81.5t87 -206.5q0 -190 -211 -305q164 -102 381 -150l57 31l-8 -156l-555 -305l-127 100l485 248q-84 22 -184.5 70t-177.5 100q-158 -64 -387 -96zM338 930q0 -120 133 -225
q193 82 193 221q0 75 -47 118t-115 43q-67 0 -115.5 -43t-48.5 -114z" />
    <glyph glyph-name="gjSS_R" horiz-adv-x="731" 
d="M815 455l-569 -449l-160 88l412 287v8q-134 0 -226 86t-92 232v264q0 51 -19.5 75.5t-64.5 24.5q-28 0 -55 -8v129q46 14 98 14q99 0 150 -71l545 -465l4 6l100 -88q-13 -26 -47.5 -64t-75.5 -69zM557 500q125 0 213 88l-440 381v-217q0 -252 227 -252z" />
    <glyph glyph-name="gjS_R" horiz-adv-x="1040" 
d="M258 1034l-43 144q92 30 193 30q167 0 272.5 -94t105.5 -248q0 -93 -36 -161q87 -23 182 -23q186 0 315 59l47 -227q-10 -15 -72.5 -65.5t-123.5 -90.5l-199 -131l-158 80l476 268l-5 15q-129 -41 -258 -41q-154 0 -288 51q-110 -85 -281 -94q-18 -56 -18 -119
q0 -104 71.5 -179t202.5 -75q89 0 166 39l37 -137q-87 -43 -209 -43q-98 0 -180 33.5t-133.5 88t-80 123t-28.5 140.5q0 78 16 131q-65 5 -141 22v115h252q147 0 219 61t72 158q0 93 -59 145t-160 52q-80 0 -154 -27z" />
    <glyph glyph-name="gjLL_R" horiz-adv-x="1103" 
d="M850 569q0 -153 -93.5 -251.5t-267.5 -98.5q-173 0 -282 117.5t-109 318.5q0 118 42.5 230.5t101.5 190t131 136.5l110 -96q-109 -99 -170 -209t-61 -250q0 -155 66 -228t174 -73q99 0 153.5 58.5t54.5 167.5q0 56 -13 134.5t-13 137.5q0 152 96 256t264 104
q124 0 215 -63l-73 -123q-59 47 -142 47q-102 0 -155.5 -62.5t-53.5 -168.5q0 -49 12.5 -132.5t12.5 -142.5zM1321 293l-592 -393l-174 80l707 421z" />
    <glyph glyph-name="gjK_SS_R" horiz-adv-x="1140" 
d="M1327 475l-8 -172l-332 -305l-149 74zM956 -201l-163 -39l-125 271q-97 -60 -254 -60q-135 0 -232.5 97t-97.5 254q0 116 74 193.5t200 131.5q-80 45 -131 116t-51 161q0 133 103 216t247 83q158 0 251 -89t93 -200q0 -94 -46.5 -163t-127.5 -109q74 -9 129 -9
q51 2 113.5 7.5t167 26.5t145.5 52v-147q-126 -56 -420 -57q15 0 -1 1q-201 17 -257 27q-32 6 -51 12q-138 -47 -213.5 -106.5t-75.5 -151.5t56 -154.5t141 -62.5q52 0 107.5 17.5t87.5 48.5v196l123 13q55 -59 55 -158q0 -76 -43 -129zM324 922q0 -77 52 -133.5t132 -86.5
q217 69 217 226q0 67 -51.5 114.5t-143.5 47.5q-94 0 -150 -46.5t-56 -121.5z" />
    <glyph glyph-name="gjJ_NY_R" horiz-adv-x="1026" 
d="M1231 543l-33 -217l-309 -385l-150 73zM1145 920h10v-197q-100 108 -254 177t-315 69q-122 0 -189 -44t-67 -114q0 -43 25.5 -77t66.5 -56.5t90 -44t98.5 -46.5t90.5 -55.5t66.5 -80t25.5 -113.5q0 -143 -85.5 -219t-224.5 -82v-8l320 -213l-170 -84l-316 295
q-138 6 -215 73t-79 146l73 73l240 -159q305 -29 305 174q0 45 -26 78.5t-67 55.5t-91 41.5t-100.5 44t-91.5 55.5t-67 83t-26 121q0 122 112 207.5t302 85.5q91 0 177 -17t159.5 -49.5t120 -58t102.5 -61.5z" />
    <glyph glyph-name="gjK_KA" horiz-adv-x="2172" 
d="M1001 305q0 -45 -14 -87.5t-47.5 -84t-83 -72.5t-126 -50t-171.5 -19q-125 0 -239 37.5t-179 83.5l74 123q63 -43 156.5 -75t191.5 -32q139 0 211 50t72 128q0 73 -74 128.5t-225 117.5q-106 -34 -299 -74l-150 -33v138l281 53v8q-96 48 -156.5 120.5t-60.5 162.5
q0 123 113 203.5t305 80.5q109 0 200 -25.5t148 -62.5l-74 -123q-45 30 -122.5 52t-143.5 22q-136 0 -205.5 -42t-69.5 -111q0 -127 271 -238l581 -6q55 0 207 -16v8q-84 47 -136 113t-52 147q0 121 114.5 201.5t303.5 80.5q109 0 201.5 -25.5t148.5 -62.5l-74 -123
q-45 30 -123 52t-145 22q-134 0 -203.5 -42t-69.5 -111q0 -132 289 -246q107 36 275 72l167 34v-133l-274 -53v-8q105 -46 168 -117.5t63 -165.5q0 -45 -14 -87.5t-47.5 -84t-83 -72.5t-127 -50t-172.5 -19q-124 0 -237.5 37.5t-180.5 83.5l76 123q63 -43 156 -75t190 -32
q140 0 212.5 50t72.5 128q0 70 -68.5 122.5t-208.5 115.5l-600 10q-107 3 -182 16l-2 -8q192 -102 192 -258z" />
    <glyph glyph-name="gjK_KHA" horiz-adv-x="2676" 
d="M379 637v8q-95 47 -156 119.5t-61 163.5q0 123 113 203.5t305 80.5q109 0 200 -25.5t148 -62.5l-74 -123q-45 30 -122.5 52t-143.5 22q-136 0 -205.5 -41.5t-69.5 -109.5q0 -136 289 -246q8 2 54.5 14t60.5 15t56 12.5t66.5 13t63.5 8.5t76 7t78 2h225v229q0 43 -24 65.5
t-64 22.5q-32 0 -57 -10v131q53 16 100 16q87 0 141 -56t54 -161v-397q0 -225 204 -225q94 0 141.5 58.5t47.5 162.5v389h147v-260h355v487h149v-1202h-149v580h-355q0 -162 -89 -257.5t-247 -95.5q-162 0 -258 96.5t-96 258.5v47h-238q-63 0 -143 -10.5t-131 -24.5v-8
q103 -44 167 -114.5t64 -166.5q0 -45 -14 -87.5t-47.5 -84t-83 -72.5t-126 -50t-171.5 -19q-125 0 -239 37.5t-179 83.5l74 123q63 -43 156.5 -75t191.5 -32q139 0 211 50t72 128q0 73 -74 128.5t-225 117.5q-132 -41 -449 -107v138z" />
    <glyph glyph-name="gjK_CA" horiz-adv-x="2463" 
d="M379 637v8q-95 47 -156 119.5t-61 163.5q0 123 113 203.5t305 80.5q109 0 200 -25.5t148 -62.5l-74 -123q-45 30 -122.5 52t-143.5 22q-136 0 -205.5 -41.5t-69.5 -109.5q0 -136 289 -246q8 2 54.5 14t60.5 15t56 12.5t66.5 13t63.5 8.5t76 7t78 2h94q16 43 39 69l108 12
l35 -165h27q127 0 195.5 58t68.5 148t-52.5 143.5t-137.5 53.5q-79 0 -146 -29l-43 140q84 30 180 30q159 0 255 -95.5t96 -240.5q0 -149 -109 -244t-287 -104q47 -136 126 -196t210 -60q88 0 163.5 31.5t122 78.5t73.5 93.5t34 85.5v643h152v-1202h-152v305h-8
q-12 -16 -27.5 -32.5t-51 -44t-76 -48t-102 -36t-128.5 -15.5q-102 0 -186 33.5t-141 91.5t-95 126t-61 148q-72 24 -92 101h-97q-63 0 -143 -10.5t-131 -24.5v-8q103 -44 167 -114.5t64 -166.5q0 -45 -14 -87.5t-47.5 -84t-83 -72.5t-126 -50t-171.5 -19q-125 0 -239 37.5
t-179 83.5l74 123q63 -43 156.5 -75t191.5 -32q139 0 211 50t72 128q0 73 -74 128.5t-225 117.5q-132 -41 -449 -107v138z" />
    <glyph glyph-name="gjK_JA" horiz-adv-x="2347" 
d="M1815 950l55 -65l340 317h182v-18l-434 -404l2 -2q45 -54 70.5 -85t60 -80t52 -86t31 -83t13.5 -90q0 -133 -97 -229t-261 -96q-160 0 -258 94.5t-98 224.5q0 100 52.5 181.5t157.5 179.5l84 77l-57 68q-111 130 -181.5 175.5t-144.5 45.5q-66 0 -113.5 -44.5
t-47.5 -108.5q0 -70 51.5 -119.5t161.5 -52.5v-15l-78 -94h-4l-13 -23h-307q-133 0 -260 -30v-8q227 -99 227 -275q0 -45 -14 -87.5t-47.5 -84t-83 -72.5t-126 -50t-171.5 -19q-125 0 -239 37.5t-179 83.5l74 123q63 -43 156.5 -75t191.5 -32q139 0 211 50t72 128
q0 73 -74 128.5t-225 117.5q-132 -41 -449 -107v138l281 53v8q-95 47 -156 119.5t-61 163.5q0 123 113 203.5t305 80.5q109 0 200 -25.5t148 -62.5l-74 -123q-45 30 -122.5 52t-143.5 22q-136 0 -205.5 -41.5t-69.5 -109.5q0 -136 289 -246q10 2 48 11t50.5 12t47.5 10.5
t53 10t52 7.5t61 7t62.5 3.5t72.5 1.5h90q-68 74 -68 181q0 128 94.5 211.5t220.5 83.5q109 0 208.5 -61.5t220.5 -205.5zM1831 160q94 0 151.5 56t57.5 138q0 68 -39.5 134.5t-145.5 191.5l-2 2l-43 -41q-118 -109 -154 -171.5t-36 -123.5q0 -78 57.5 -132t153.5 -54z" />
    <glyph glyph-name="gjK_TTA" horiz-adv-x="2117" 
d="M1636 137q123 0 217 36.5t138 80.5l82 -121q-60 -53 -171 -94t-264 -41q-109 0 -198 29t-144 77t-84.5 106.5t-29.5 121.5q0 144 145 246q-118 47 -278 47q-143 0 -275 -35v-8q102 -42 164.5 -111.5t62.5 -165.5q0 -45 -14 -87.5t-47.5 -84t-83 -72.5t-126 -50
t-171.5 -19q-125 0 -239 37.5t-179 83.5l74 123q63 -43 156.5 -75t191.5 -32q139 0 211 50t72 128q0 73 -74 128.5t-225 117.5q-132 -41 -449 -107v138l281 53v8q-95 47 -156 119.5t-61 163.5q0 123 113 203.5t305 80.5q109 0 200 -25.5t148 -62.5l-74 -123
q-45 30 -122.5 52t-143.5 22q-136 0 -205.5 -41.5t-69.5 -109.5q0 -136 289 -246q265 70 453 70q105 0 199.5 -20.5t135.5 -38.5t70 -36q25 13 81.5 39.5t84 40t69 38.5t61.5 45t36 48.5t16 59.5q0 64 -56 105.5t-159 41.5q-137 0 -239 -59l-66 131q123 69 303 69
q171 0 271 -84t100 -204q0 -71 -34.5 -129.5t-89.5 -99t-121.5 -76t-132.5 -66.5t-121 -62.5t-89.5 -73t-34.5 -89.5q0 -82 79 -136.5t218 -54.5z" />
    <glyph glyph-name="gjK_TTHA" horiz-adv-x="2332" 
d="M1544 690v8q-73 29 -124.5 89.5t-51.5 148.5q0 114 101 195t280 81q83 0 172 -21t150 -56l-62 -123q-125 61 -262 61q-100 0 -162.5 -37.5t-62.5 -101.5q0 -41 25 -74t67 -56t97 -43.5t115 -40.5t120.5 -41.5t115.5 -51.5t97 -66.5t67 -90t25 -118.5q0 -71 -35 -136
t-99.5 -116.5t-165 -82.5t-222.5 -31q-244 0 -389.5 104t-145.5 264q0 152 149 250q-122 17 -264 17q-187 0 -305 -29v-8q227 -98 227 -279q0 -45 -14 -87.5t-47.5 -84t-83 -72.5t-126 -50t-171.5 -19q-125 0 -239 37.5t-179 83.5l74 123q63 -43 156.5 -75t191.5 -32
q139 0 211 50t72 128q0 73 -74 128.5t-225 117.5q-132 -41 -449 -107v138l281 53v8q-95 47 -156 119.5t-61 163.5q0 123 113 203.5t305 80.5q109 0 200 -25.5t148 -62.5l-74 -123q-45 30 -122.5 52t-143.5 22q-136 0 -205.5 -41.5t-69.5 -109.5q0 -136 289 -246
q93 25 227.5 41t253.5 16q236 0 457 -45h4zM2097 350q0 26 -7 49t-23.5 43t-32.5 35.5t-47 31.5t-53 26.5t-64 25t-67 22.5t-74 23q-165 -18 -272 -85t-107 -167q0 -97 101.5 -165t277.5 -68q172 0 270 68t98 161z" />
    <glyph glyph-name="gjK_NNA" horiz-adv-x="2768" 
d="M379 637v8q-95 47 -156 119.5t-61 163.5q0 123 113 203.5t305 80.5q109 0 200 -25.5t148 -62.5l-74 -123q-45 30 -122.5 52t-143.5 22q-136 0 -205.5 -41.5t-69.5 -109.5q0 -136 289 -246q8 2 54.5 14t60.5 15t56 12.5t66.5 13t63.5 8.5t76 7t78 2h203v452h149v-758
q0 -169 101 -271.5t294 -102.5q114 0 206 31t149 71l67 -125q-70 -46 -179 -81.5t-239 -35.5q-137 0 -244 42t-172 113.5t-98.5 161.5t-33.5 191v191h-216q-63 0 -143 -10.5t-131 -24.5v-8q103 -44 167 -114.5t64 -166.5q0 -45 -14 -87.5t-47.5 -84t-83 -72.5t-126 -50
t-171.5 -19q-125 0 -239 37.5t-179 83.5l74 123q63 -43 156.5 -75t191.5 -32q139 0 211 50t72 128q0 73 -74 128.5t-225 117.5q-132 -41 -449 -107v138zM2212 801q0 -176 -113 -283.5t-289 -107.5q-93 0 -170 26v139q69 -28 164 -28q111 0 185.5 66t74.5 188
q0 128 -73.5 198t-190.5 70q-56 0 -127 -18v137q63 18 139 18q175 0 287.5 -109.5t112.5 -295.5zM2568 0h-151v1202h151v-1202z" />
    <glyph glyph-name="gjK_TA" horiz-adv-x="2353" 
d="M379 637v8q-95 47 -156 119.5t-61 163.5q0 123 113 203.5t305 80.5q109 0 200 -25.5t148 -62.5l-74 -123q-45 30 -122.5 52t-143.5 22q-136 0 -205.5 -41.5t-69.5 -109.5q0 -136 289 -246q8 2 54.5 14t60.5 15t56 12.5t66.5 13t63.5 8.5t76 7t78 2h258q65 91 171 140.5
t240 49.5h275v262h151v-1202h-151v797h-256q-162 0 -258 -86t-96 -240q0 -159 104.5 -249t261.5 -79v-141q-103 -9 -197.5 20t-167 88.5t-116 154.5t-43.5 210q0 80 22 154h-211q-63 0 -143 -10.5t-131 -24.5v-8q103 -44 167 -114.5t64 -166.5q0 -45 -14 -87.5t-47.5 -84
t-83 -72.5t-126 -50t-171.5 -19q-125 0 -239 37.5t-179 83.5l74 123q63 -43 156.5 -75t191.5 -32q139 0 211 50t72 128q0 73 -74 128.5t-225 117.5q-132 -41 -449 -107v138z" />
    <glyph glyph-name="gjK_T_YA" horiz-adv-x="3170" 
d="M379 637v8q-95 47 -156 119.5t-61 163.5q0 123 113 203.5t305 80.5q109 0 200 -25.5t148 -62.5l-74 -123q-45 30 -122.5 52t-143.5 22q-136 0 -205.5 -41.5t-69.5 -109.5q0 -136 289 -246q8 2 54.5 14t60.5 15t56 12.5t66.5 13t63.5 8.5t76 7t78 2h262q63 71 152 110
t188 39q141 0 239 -60t150 -155q177 38 254.5 98t77.5 142q0 70 -48.5 106.5t-123.5 36.5q-59 0 -144 -33l-51 135q84 37 191 37q142 0 235.5 -76t93.5 -206q0 -132 -114 -226t-305 -133q1 -21 11 -50t34.5 -67.5t60 -69.5t94.5 -53t131 -22q82 0 152 26t114.5 68t71.5 87.5
t35 90.5v627h150v-1202h-150v326h-8q-56 -67 -149 -114.5t-224 -47.5q-101 0 -185.5 32.5t-141.5 88t-94.5 121t-57.5 139.5q-24 93 -99 152t-186 59q-124 0 -209.5 -77.5t-85.5 -215.5q0 -157 106 -244.5t265 -75.5v-139q-138 -14 -258.5 38.5t-195 164.5t-74.5 260
q0 86 28 162h-205q-63 0 -143 -10.5t-131 -24.5v-8q103 -44 167 -114.5t64 -166.5q0 -45 -14 -87.5t-47.5 -84t-83 -72.5t-126 -50t-171.5 -19q-125 0 -239 37.5t-179 83.5l74 123q63 -43 156.5 -75t191.5 -32q139 0 211 50t72 128q0 73 -74 128.5t-225 117.5
q-132 -41 -449 -107v138z" />
    <glyph glyph-name="gjK_T_RA" horiz-adv-x="2359" 
d="M1493 881q-89 0 -160 -68t-112 -176q-299 -5 -451 -43v-8q103 -44 167 -114.5t64 -166.5q0 -45 -14 -87.5t-47.5 -84t-83 -72.5t-126 -50t-171.5 -19q-125 0 -239 37.5t-179 83.5l74 123q63 -43 156.5 -75t191.5 -32q139 0 211 50t72 128q0 73 -74 128.5t-225 117.5
q-132 -41 -449 -107v138l281 53v8q-95 47 -156 119.5t-61 163.5q0 123 113 203.5t305 80.5q109 0 200 -25.5t148 -62.5l-74 -123q-45 30 -122.5 52t-143.5 22q-136 0 -205.5 -41.5t-69.5 -109.5q0 -136 289 -246q9 2 42 10t43.5 10.5t41.5 10t45.5 10t45 8.5t51 8.5
t52.5 6.5t60 6l63 4.5t72 3.5q59 124 155 195t218 71q296 0 420 -401l98 61v520h148v-1202h-148v520l-627 -401l-116 106l516 324q-16 56 -33.5 101t-43.5 89.5t-55.5 74.5t-70 48.5t-86.5 18.5z" />
    <glyph glyph-name="gjK_T_VA" horiz-adv-x="3018" 
d="M379 637v8q-95 47 -156 119.5t-61 163.5q0 123 113 203.5t305 80.5q109 0 200 -25.5t148 -62.5l-74 -123q-45 30 -122.5 52t-143.5 22q-136 0 -205.5 -41.5t-69.5 -109.5q0 -136 289 -246q8 2 54.5 14t60.5 15t56 12.5t66.5 13t63.5 8.5t76 7t78 2h280q63 91 169.5 140.5
t242.5 49.5h160q57 122 176.5 190t259.5 68q57 0 104 -8v-150q-57 13 -102 13q-134 0 -226.5 -82t-92.5 -221q0 -136 86.5 -222t226.5 -86q147 0 237.5 106.5t90.5 268.5v385h147v-1202h-147v449h-11q-47 -60 -130 -104t-208 -44q-186 0 -318 128.5t-132 320.5q0 33 2 47
h-105q-162 0 -258 -86t-96 -240q0 -159 105 -249t262 -79v-141q-100 -6 -194 24t-167 89t-117.5 153t-44.5 207q0 77 23 154h-236q-63 0 -143 -10.5t-131 -24.5v-8q103 -44 167 -114.5t64 -166.5q0 -45 -14 -87.5t-47.5 -84t-83 -72.5t-126 -50t-171.5 -19q-125 0 -239 37.5
t-179 83.5l74 123q63 -43 156.5 -75t191.5 -32q139 0 211 50t72 128q0 73 -74 128.5t-225 117.5q-132 -41 -449 -107v138z" />
    </font>
</defs>
</svg>
