<?xml version="1.0" standalone="no"?>
<!DOCTYPE svg PUBLIC "-//W3C//DTD SVG 1.1//EN" "http://www.w3.org/Graphics/SVG/1.1/DTD/svg11.dtd" >
<svg xmlns="http://www.w3.org/2000/svg" xmlns:xlink="http://www.w3.org/1999/xlink" version="1.1">
<metadata>
Created by FontForge 20170731 at Fri Nov  3 00:38:15 2023
 By Aleksey,,,
Copyright 2014, 2016 Indian Type Foundry. All rights reserved.
</metadata>
<defs>
<font id="KohinoorGujarati-Semibold" horiz-adv-x="585" >
  <font-face 
    font-family="Kohinoor Gujarati"
    font-weight="600"
    font-stretch="normal"
    units-per-em="2048"
    panose-1="0 0 7 0 0 0 0 0 0 0"
    ascent="1638"
    descent="-410"
    bbox="-1061 -971 4076 2105"
    underline-thickness="102"
    underline-position="-307"
    unicode-range="U+000D-25CC"
  />
<missing-glyph horiz-adv-x="1024" 
d="M0 0v1434h1024v-1434h-1024zM512 809l348 522h-696zM573 717l349 -522v1044zM164 102h696l-348 523zM102 1239v-1044l349 522z" />
    <glyph glyph-name=".notdef" horiz-adv-x="1024" 
d="M0 0v1434h1024v-1434h-1024zM512 809l348 522h-696zM573 717l349 -522v1044zM164 102h696l-348 523zM102 1239v-1044l349 522z" />
    <glyph glyph-name=".null" horiz-adv-x="0" 
 />
    <glyph glyph-name="nonmarkingreturn" horiz-adv-x="682" 
 />
    <glyph glyph-name="NULL" horiz-adv-x="0" 
 />
    <glyph glyph-name="NULL" horiz-adv-x="0" 
 />
    <glyph glyph-name="CR" unicode="&#xd;" horiz-adv-x="559" 
 />
    <glyph glyph-name="space" unicode=" " horiz-adv-x="559" 
 />
    <glyph glyph-name="exclam" unicode="!" horiz-adv-x="620" 
d="M410 547h-201q-2 47 -27.5 470.5t-27.5 467.5h309q-2 -48 -26.5 -472t-26.5 -466zM147 150q0 71 46.5 119t113.5 48q71 0 118.5 -47.5t47.5 -119.5q0 -65 -48 -111.5t-118 -46.5q-66 0 -113 46.5t-47 111.5z" />
    <glyph glyph-name="quotedbl" unicode="&#x22;" horiz-adv-x="778" 
d="M303 971h-182l-39 504h260zM657 971h-180l-41 504h260z" />
    <glyph glyph-name="numbersign" unicode="#" horiz-adv-x="1417" 
d="M98 580h228l45 276h-226l23 188h229l60 383h215l-58 -383h310l59 383h217l-59 -383h198l-20 -188h-207l-41 -276h201l-23 -189h-207l-59 -391h-215l59 391h-311l-59 -391h-215l59 391h-223zM588 856l-47 -276h313l43 276h-309z" />
    <glyph glyph-name="dollar" unicode="$" horiz-adv-x="1122" 
d="M668 -268h-211l4 276q-237 20 -404 164l144 193q60 -56 155 -101t205 -45t164.5 45.5t54.5 118.5q0 37 -13.5 65.5t-46.5 54t-71 45.5t-104 50l-123 55q-150 66 -224.5 157.5t-74.5 219.5q0 156 103 260t263 131l-6 269h211l-6 -267q66 -9 123 -28t94.5 -43t58.5 -40.5
t35 -31.5l-149 -178q-49 47 -120 77.5t-150 30.5q-96 0 -149.5 -43t-53.5 -116q0 -70 53 -116.5t166 -98.5l106 -50q87 -39 143 -72.5t102.5 -78t67.5 -100t21 -127.5q0 -141 -96.5 -251t-275.5 -141z" />
    <glyph glyph-name="percent" unicode="%" horiz-adv-x="1765" 
d="M1673 379q0 -196 -90.5 -296.5t-249.5 -100.5q-327 0 -327 387q0 190 91 291.5t249 101.5q157 0 242 -96.5t85 -286.5zM1341 133q74 0 107 56t33 182q0 239 -148 239q-69 0 -103 -57.5t-34 -181.5q0 -119 38.5 -178.5t106.5 -59.5zM393 53l-117 111l1123 1227l119 -111z
M428 819q-69 0 -107 58.5t-38 179.5q0 123 34 180t103 57q147 0 147 -239q0 -125 -33 -180.5t-106 -55.5zM760 1065q0 190 -85.5 285.5t-242.5 95.5q-158 0 -250 -101t-92 -290q0 -197 85.5 -293t244.5 -96q158 0 249 101.5t91 297.5z" />
    <glyph glyph-name="ampersand" unicode="&#x26;" horiz-adv-x="1447" 
d="M57 375q0 151 88 246t244 155q-119 136 -119 293q0 155 109.5 261t288.5 106q176 0 279.5 -101.5t103.5 -257.5q0 -134 -80.5 -235t-237.5 -154q160 -167 295 -278q39 62 61.5 157t22.5 191h219q0 -126 -38.5 -256.5t-106.5 -222.5q40 -35 92 -76t128 -98.5t91 -69.5v-35
h-305q-87 63 -152 119q-179 -156 -481 -156q-127 0 -226.5 36t-158 96.5t-88 131.5t-29.5 148zM592 162q175 0 285 92q-254 233 -367 358q-104 -29 -157.5 -81.5t-53.5 -137.5q0 -96 78.5 -163.5t214.5 -67.5zM496 1069q0 -65 35 -131t71 -96q121 36 173 90.5t52 136.5
q0 75 -45.5 121.5t-122.5 46.5q-73 0 -118 -43.5t-45 -124.5z" />
    <glyph glyph-name="quotesingle" unicode="'" horiz-adv-x="423" 
d="M303 971h-182l-39 504h260z" />
    <glyph glyph-name="parenleft" unicode="(" horiz-adv-x="731" 
d="M164 598q0 176 36 344t87 287t115 222t112 159t86 88h240v-25q-92 -87 -171 -195t-146 -242.5t-105.5 -299.5t-38.5 -338t38.5 -338.5t105.5 -300.5t146 -243.5t171 -194.5v-23h-240q-38 31 -86 87.5t-112 159.5t-115 223t-87 287.5t-36 342.5z" />
    <glyph glyph-name="parenright" unicode=")" horiz-adv-x="731" 
d="M565 598q0 176 -35.5 344t-86.5 287t-115 222t-111.5 159t-85.5 88h-240v-25q92 -86 171 -194.5t145.5 -243t104.5 -299.5t38 -338t-38 -338.5t-104.5 -300.5t-145.5 -243.5t-171 -194.5v-23h238q38 31 86 87.5t112 159.5t115 223t87 287.5t36 342.5z" />
    <glyph glyph-name="asterisk" unicode="*" horiz-adv-x="854" 
d="M524 1300l-28 -145l129 72l114 37l60 -187l-113 -37l-147 -16l110 -102l70 -97l-158 -112l-72 94l-61 133l-63 -133l-70 -96l-158 114l70 97l108 98l-147 20l-113 37l60 185l112 -35l129 -72l-26 143v121h194v-119z" />
    <glyph glyph-name="plus" unicode="+" horiz-adv-x="1120" 
d="M664 213h-209v393h-392v203h392v393h209v-393h391v-203h-391v-393z" />
    <glyph glyph-name="comma" unicode="," horiz-adv-x="563" 
d="M139 -338l-78 117q90 39 140.5 92t50.5 115q0 56 -33.5 91t-99.5 60v25q0 64 45.5 109.5t116.5 45.5q86 0 138 -60t52 -159q0 -76 -28.5 -148.5t-76 -128.5t-106.5 -97t-121 -62z" />
    <glyph glyph-name="hyphen" unicode="-" horiz-adv-x="749" 
d="M698 535h-649v208h649v-208z" />
    <glyph glyph-name="period" unicode="." horiz-adv-x="548" 
d="M100 158q0 75 50 125.5t122 50.5q74 0 124 -50.5t50 -125.5q0 -71 -50.5 -120.5t-123.5 -49.5q-72 0 -122 49.5t-50 120.5z" />
    <glyph glyph-name="slash" unicode="/" horiz-adv-x="768" 
d="M561 1495l-569 -1802h213l571 1802h-215z" />
    <glyph glyph-name="zero" unicode="0" horiz-adv-x="1198" 
d="M586 -20q-256 0 -371 174.5t-115 543.5q0 374 127.5 555t382.5 181t371.5 -176t116.5 -547q0 -731 -512 -731zM354 711q0 -265 58.5 -389.5t189.5 -124.5q137 0 189.5 116.5t52.5 384.5q0 263 -60 391t-192 128q-134 0 -186 -118.5t-52 -387.5z" />
    <glyph glyph-name="one" unicode="1" horiz-adv-x="942" 
d="M461 1413h258v-1413h-252v733q0 216 8 404h-8l-143 -99l-156 -108l-145 200z" />
    <glyph glyph-name="two" unicode="2" horiz-adv-x="1067" 
d="M383 213v-8q95 10 295 10h297v-215h-854l-43 215q116 109 279 285.5t216 249.5q117 152 117 278q0 91 -46 138.5t-122 47.5q-80 0 -122.5 -55t-49.5 -139l-256 49q22 156 135.5 259.5t307.5 103.5q192 0 303.5 -102t111.5 -269q0 -118 -44 -226.5t-140 -224.5
q-123 -143 -197 -217q-7 -7 -85 -82t-103 -98z" />
    <glyph glyph-name="three" unicode="3" horiz-adv-x="1075" 
d="M715 735v-8q52 -5 96.5 -23.5t82.5 -53t59.5 -93t21.5 -135.5q0 -212 -130.5 -326t-361.5 -114q-169 0 -283 75.5t-161 188.5l233 114q81 -167 242 -167q211 0 211 217q0 101 -66 148.5t-204 47.5h-95v211h93q118 0 170.5 52t52.5 165q0 89 -44 138t-132 49
q-80 0 -125 -46.5t-53 -125.5l-244 28q13 154 125 255.5t299 101.5q207 0 316.5 -96t109.5 -283q0 -124 -60 -207t-153 -113z" />
    <glyph glyph-name="four" unicode="4" horiz-adv-x="1144" 
d="M668 322h-568l-53 202l567 889h297v-881h195v-210h-195v-322h-243v322zM684 1153h-8q-66 -125 -152 -262l-219 -359h363v236q0 254 16 385z" />
    <glyph glyph-name="five" unicode="5" horiz-adv-x="1140" 
d="M549 -18q224 0 351.5 133.5t127.5 359.5q0 206 -102.5 313t-307.5 107q-57 0 -112.5 -17.5t-87.5 -43.5l-10 2l36 364h517v213h-740l-59 -713l223 -79q69 73 172 73q108 0 163.5 -62.5t55.5 -185.5q0 -121 -52.5 -187t-156.5 -66q-159 0 -225 174l-248 -111
q113 -274 455 -274z" />
    <glyph glyph-name="six" unicode="6" horiz-adv-x="1142" 
d="M455 901l6 -4q57 33 168 33q193 0 306.5 -109.5t113.5 -331.5q0 -233 -132 -371t-346 -138q-454 0 -454 538q0 145 39 284t106.5 252.5t151 204.5t178.5 154h332v-33q-174 -98 -286 -215.5t-183 -263.5zM561 721q-83 0 -180 -37q-14 -62 -14 -160q0 -178 63 -256t166 -78
q102 0 151.5 66t49.5 203q0 127 -60.5 194.5t-175.5 67.5z" />
    <glyph glyph-name="seven" unicode="7" horiz-adv-x="962" 
d="M635 1190v8q-148 -12 -303 -12h-326v227h854l53 -235q-209 -278 -320.5 -567t-111.5 -566v-45h-254v49q0 282 114 586.5t294 554.5z" />
    <glyph glyph-name="eight" unicode="8" horiz-adv-x="1187" 
d="M594 817q-99 0 -148 57t-49 162q0 90 49 140.5t148 50.5q96 0 146.5 -52t50.5 -141q0 -217 -197 -217zM590 -20q229 0 358 109.5t129 320.5q0 75 -20.5 133.5t-57.5 95.5t-80.5 59t-95.5 33v8q93 32 154 113t61 201q0 190 -112.5 285.5t-327.5 95.5q-207 0 -326.5 -104.5
t-119.5 -295.5q0 -127 60.5 -207t152.5 -102v-8q-113 -35 -182.5 -118.5t-69.5 -215.5q0 -403 477 -403zM592 612q235 0 235 -213q0 -215 -231 -215q-118 0 -176 55.5t-58 159.5q0 96 55 154.5t175 58.5z" />
    <glyph glyph-name="nine" unicode="9" horiz-adv-x="1105" 
d="M674 526l-4 4q-67 -26 -166 -26q-193 0 -310.5 108t-117.5 326q0 231 131.5 363.5t345.5 132.5q451 0 451 -533q0 -140 -38.5 -278.5t-104 -254t-148.5 -210t-176 -158.5h-332v33q343 196 469 493zM557 715q90 0 186 41q9 79 9 137q0 173 -61.5 251.5t-160.5 78.5
q-204 0 -204 -250q0 -258 231 -258z" />
    <glyph glyph-name="colon" unicode=":" horiz-adv-x="548" 
d="M100 954q0 75 50 125.5t122 50.5q74 0 124 -50.5t50 -125.5q0 -71 -50.5 -120.5t-123.5 -49.5q-72 0 -122 49.5t-50 120.5zM100 164q0 75 50 125.5t122 50.5q74 0 124 -50.5t50 -125.5q0 -71 -50.5 -120.5t-123.5 -49.5q-72 0 -122 49.5t-50 120.5z" />
    <glyph glyph-name="semicolon" unicode=";" horiz-adv-x="563" 
d="M111 954q0 76 49.5 127.5t120.5 51.5q75 0 125.5 -51.5t50.5 -127.5q0 -71 -50.5 -120.5t-125.5 -49.5q-71 0 -120.5 50t-49.5 120zM129 -338l-78 115q91 39 141 93t50 116q0 57 -35 91.5t-98 59.5v25q0 65 44.5 110t114.5 45q87 0 139 -60t52 -159q0 -150 -99.5 -271.5
t-230.5 -164.5z" />
    <glyph glyph-name="less" unicode="&#x3c;" horiz-adv-x="1120" 
d="M348 711v8l301 106l406 168v252l-992 -436v-197l992 -434v254l-408 168z" />
    <glyph glyph-name="equal" unicode="=" horiz-adv-x="1120" 
d="M63 840v204h992v-204h-992zM63 371v204h992v-204h-992z" />
    <glyph glyph-name="greater" unicode="&#x3e;" horiz-adv-x="1120" 
d="M770 713v-8l-299 -107l-408 -166v-254l992 436v197l-992 434v-252l408 -170z" />
    <glyph glyph-name="question" unicode="?" horiz-adv-x="888" 
d="M391 1282q-46 0 -85 -11.5t-69.5 -33.5t-48 -38t-38.5 -40l-166 189q146 151 432 151q187 0 293 -89t106 -251q0 -126 -49.5 -215.5t-169.5 -195.5l-268 -234q-113 41 -113 141q0 52 35.5 100t86 86.5t101 78.5t86 92t35.5 110q0 74 -45 117t-123 43zM252 150
q0 73 47 120t115 47q74 0 119 -46t45 -121q0 -67 -46.5 -112.5t-119.5 -45.5q-69 0 -114.5 45t-45.5 113z" />
    <glyph glyph-name="at" unicode="@" horiz-adv-x="2002" 
d="M1331 -203l-80 174q-56 -37 -143.5 -60.5t-179.5 -23.5q-284 0 -435 145t-151 429q0 155 54 294.5t149 242.5t233 164t297 61q283 0 435.5 -133t152.5 -377q0 -100 -28.5 -192t-89.5 -156t-142 -64q-76 0 -76 82q0 26 12 104l70 437q-51 35 -132 55t-161 20
q-78 0 -151 -18.5t-142.5 -61t-121 -105.5t-82.5 -158.5t-31 -213.5q0 -147 78.5 -238t236.5 -91q153 0 234 108h8q58 -110 227 -110q228 0 367 175.5t139 456.5q0 307 -209.5 490.5t-558.5 183.5q-213 0 -397 -75.5t-313 -206t-202 -312.5t-73 -389q0 -347 197 -544
t571 -197q261 0 438 104zM948 301q-72 0 -105.5 42.5t-33.5 137.5q0 146 78.5 236t193.5 90q44 0 90 -12l-49 -312q-10 -57 -10 -102q-64 -80 -164 -80z" />
    <glyph glyph-name="bracketleft" unicode="[" horiz-adv-x="708" 
d="M430 1522v-1848h279v-172h-500v2194h500v-174h-279z" />
    <glyph glyph-name="backslash" unicode="\" horiz-adv-x="768" 
d="M205 1495l571 -1802h-213l-571 1802h213z" />
    <glyph glyph-name="bracketright" unicode="]" horiz-adv-x="708" 
d="M279 1522v-1848h-279v-172h500v2194h-500v-174h279z" />
    <glyph glyph-name="asciicircum" unicode="^" horiz-adv-x="1138" 
d="M563 1235l-108 -299l-142 -342h-241l366 842h262l369 -842h-248l-141 342l-109 299h-8z" />
    <glyph glyph-name="underscore" unicode="_" horiz-adv-x="1052" 
d="M1047 -272h-1041v190h1041v-190z" />
    <glyph glyph-name="grave" unicode="`" horiz-adv-x="1036" 
d="M221 1542l455 -274l137 112l-367 293z" />
    <glyph glyph-name="braceleft" unicode="{" horiz-adv-x="727" 
d="M133 711v-207q97 -6 139.5 -50t42.5 -112q0 -96 -28.5 -267t-28.5 -261q0 -154 83.5 -235t246.5 -81q77 0 129 23l-25 168q-51 -15 -90 -15q-121 0 -121 146q0 88 25.5 251t25.5 246q0 109 -48.5 183.5t-147.5 101.5v8q99 27 147.5 102.5t48.5 184.5q0 83 -25.5 237
t-25.5 242q0 146 121 146q39 0 90 -15l25 170q-59 23 -144 23q-315 0 -315 -318q0 -90 28.5 -252t28.5 -260q0 -149 -182 -159z" />
    <glyph glyph-name="bar" unicode="|" horiz-adv-x="569" 
d="M373 -549h-176v2296h176v-2296z" />
    <glyph glyph-name="braceright" unicode="}" horiz-adv-x="727" 
d="M594 711v-207q-180 -11 -180 -162q0 -96 27.5 -267t27.5 -261q0 -153 -83 -234.5t-245 -81.5q-76 0 -131 23l27 168q47 -15 88 -15q64 0 93.5 40t29.5 106q0 88 -26.5 251t-26.5 246q0 109 48.5 183.5t147.5 101.5v8q-99 27 -147.5 102.5t-48.5 184.5q0 83 26.5 237
t26.5 242q0 66 -29.5 106t-93.5 40q-41 0 -88 -15l-27 170q62 23 144 23q315 0 315 -318q0 -90 -27.5 -252t-27.5 -260q0 -148 180 -159z" />
    <glyph glyph-name="asciitilde" unicode="~" horiz-adv-x="1136" 
d="M53 461q-4 24 -4 39q0 133 69.5 217t200.5 84q60 0 132 -23t126.5 -50t117 -50t106.5 -23q86 0 86 111q0 26 -6 53q10 -2 45 -7.5t76 -12t83 -13.5q0 -50 -2 -77q-11 -121 -77 -192t-187 -71q-62 0 -134 23t-126 50t-116.5 50t-106.5 23q-84 0 -84 -111q0 -17 4 -53
q-70 8 -203 33z" />
    <glyph glyph-name="cent" unicode="&#xa2;" horiz-adv-x="1009" 
d="M385 -272h-137l106 292q-264 115 -264 537q0 296 140 450t370 154q92 0 160 -18l96 264h137l-114 -315q52 -34 88 -86l-181 -166l-233 -645q17 -5 47 -5q126 0 203 111l155 -162q-17 -25 -43 -48t-70.5 -50.5t-115 -44t-156.5 -16.5q-49 0 -96 6zM342 580q0 -227 90 -324
h6l250 686q-41 14 -94 14q-252 0 -252 -376z" />
    <glyph glyph-name="sterling" unicode="&#xa3;" horiz-adv-x="1157" 
d="M106 193q70 31 108 87.5t44 165.5l10 175h-151v198h166l16 205q17 205 142 314.5t311 109.5q140 0 223 -42.5t139 -115.5l-162 -168q-39 52 -90 81.5t-131 29.5q-165 0 -182 -205l-17 -209h392v-198h-404l-10 -154q-12 -174 -109 -244v-8h682v-215h-933z" />
    <glyph glyph-name="yen" unicode="&#xa5;" horiz-adv-x="1187" 
d="M76 674v-203h389v-471h256v471h385v203h-287l357 753h-273l-186 -421l-115 -318h-8l-111 318l-184 421h-287l355 -753h-291z" />
    <glyph glyph-name="copyright" unicode="&#xa9;" horiz-adv-x="1710" 
d="M279 711q0 -250 161.5 -410t415.5 -160q249 0 411.5 161t162.5 407q0 252 -159.5 410.5t-416.5 158.5q-255 0 -415 -159t-160 -408zM92 709q0 211 100.5 382.5t275.5 268t388 96.5q163 0 304 -55.5t241.5 -153t157.5 -236.5t57 -300q0 -211 -100 -382.5t-274.5 -268.5
t-387.5 -97q-162 0 -303.5 56t-242 154.5t-158.5 237t-58 298.5zM518 709q0 196 95.5 310t263.5 114q102 0 162.5 -29.5t88.5 -67.5l-102 -127q-52 72 -152 72q-169 0 -169 -268q0 -271 172 -271q56 0 90 19t59 53l98 -125q-90 -100 -252 -100q-175 0 -264.5 112t-89.5 308z
" />
    <glyph glyph-name="guillemotleft" unicode="&#xab;" horiz-adv-x="1155" 
d="M551 569l377 494l159 -127l-272 -367l272 -364l-159 -125zM68 569l376 494l158 -127l-272 -367l272 -364l-158 -125z" />
    <glyph glyph-name="registered" unicode="&#xae;" horiz-adv-x="1024" 
d="M510 676q144 0 239 90.5t95 247.5q0 159 -96 249.5t-236 90.5q-143 0 -238.5 -89.5t-95.5 -248.5q0 -157 95 -248.5t237 -91.5zM510 580q-190 0 -314 117.5t-124 316.5t126 318.5t314 119.5q190 0 315 -118.5t125 -317.5q0 -198 -124.5 -317t-317.5 -119zM504 963h-39
v-170h-100v467h155q74 0 119 -35t45 -105q0 -115 -86 -133l117 -194h-119zM465 1047h43q41 0 57.5 15.5t16.5 51.5q0 62 -66 62h-51v-129z" />
    <glyph glyph-name="degree" unicode="&#xb0;" horiz-adv-x="802" 
d="M84 1137q0 137 92 224t230 87q139 0 226 -83t87 -220q0 -138 -91.5 -226t-230.5 -88q-138 0 -225.5 84t-87.5 222zM236 1143q0 -75 48 -126.5t122 -51.5q75 0 117 48t42 124q0 75 -46.5 125.5t-121.5 50.5q-74 0 -117.5 -47.5t-43.5 -122.5z" />
    <glyph glyph-name="periodcentered" unicode="&#xb7;" horiz-adv-x="555" 
d="M104 715q0 75 50 125.5t122 50.5q74 0 124.5 -50.5t50.5 -125.5q0 -71 -51 -120.5t-124 -49.5q-72 0 -122 49.5t-50 120.5z" />
    <glyph glyph-name="guillemotright" unicode="&#xbb;" horiz-adv-x="1155" 
d="M602 569l-375 494l-159 -127l272 -367l-272 -364l159 -125zM1087 569l-376 494l-160 -127l272 -367l-272 -364l160 -125z" />
    <glyph glyph-name="danda" unicode="&#x964;" horiz-adv-x="782" 
d="M647 0h-241v1229h241v-1229z" />
    <glyph glyph-name="doubledanda" unicode="&#x965;" horiz-adv-x="1269" 
d="M608 0h-239v1229h239v-1229zM1098 0h-240v1229h240v-1229z" />
    <glyph glyph-name="gjCandrabindu" unicode="&#xa81;" horiz-adv-x="0" 
d="M-434 1960q0 63 40 104t99 41q62 0 102.5 -41t40.5 -104q0 -58 -41 -98.5t-102 -40.5q-58 0 -98.5 41t-40.5 98zM-291 1456q-168 0 -289 78t-174 205l183 94q33 -87 104.5 -134.5t175.5 -47.5t176 47t105 133l182 -92q-53 -129 -172.5 -206t-290.5 -77z" />
    <glyph glyph-name="gjAnusvara" unicode="&#xa82;" horiz-adv-x="0" 
d="M-449 1642q0 67 44 111.5t108 44.5q67 0 111.5 -44t44.5 -112q0 -64 -44.5 -107.5t-111.5 -43.5q-63 0 -107.5 44t-44.5 107z" />
    <glyph glyph-name="gjVisarga" unicode="&#xa83;" horiz-adv-x="534" 
d="M127 268q0 67 43 111.5t106 44.5q66 0 110 -44.5t44 -111.5q0 -62 -44 -104.5t-110 -42.5q-63 0 -106 42.5t-43 104.5zM127 940q0 67 43 111.5t106 44.5q66 0 110 -44.5t44 -111.5q0 -62 -44 -104.5t-110 -42.5q-63 0 -106 42.5t-43 104.5z" />
    <glyph glyph-name="gjA" unicode="&#xa85;" horiz-adv-x="1888" 
d="M776 887q0 -143 -85 -239t-236 -122q2 -97 65 -163t187 -66q127 0 192.5 77.5t65.5 217.5v434h233v-260h281v463h237v-1229h-237v557h-281q-3 -97 -36.5 -181.5t-93.5 -149t-153.5 -101.5t-209.5 -37q-113 0 -206.5 37.5t-152.5 99.5t-91 139t-32 158q-71 6 -133 27v182
h238q104 0 156.5 39.5t52.5 112.5q0 65 -41 103t-111 38q-71 0 -147 -33l-72 203q88 45 229 45q175 0 278 -97t103 -255z" />
    <glyph glyph-name="gjAA" unicode="&#xa86;" horiz-adv-x="2473" 
d="M2302 0h-242v1229h242v-1229zM776 887q0 -143 -85 -239t-236 -122q2 -97 65 -163t187 -66q127 0 192.5 77.5t65.5 217.5v434h233v-260h281v463h237v-1229h-237v557h-281q-3 -97 -36.5 -181.5t-93.5 -149t-153.5 -101.5t-209.5 -37q-113 0 -206.5 37.5t-152.5 99.5
t-91 139t-32 158q-71 6 -133 27v182h238q104 0 156.5 39.5t52.5 112.5q0 65 -41 103t-111 38q-71 0 -147 -33l-72 203q88 45 229 45q175 0 278 -97t103 -255z" />
    <glyph glyph-name="gjI" unicode="&#xa87;" horiz-adv-x="1302" 
d="M1155 530q0 -258 -148.5 -401t-390.5 -143q-121 0 -215.5 30.5t-152 83t-86.5 116.5t-29 136q0 78 34.5 139t80 92.5t98.5 45.5v8q-82 25 -141.5 97t-59.5 186q0 136 103 227.5t282 91.5q146 0 246 -43l-49 -201q-78 35 -160 35q-85 0 -130.5 -40.5t-45.5 -106.5
q0 -68 54.5 -111t152.5 -43h100v-203h-106q-102 0 -157.5 -45t-55.5 -119t61 -121.5t174 -47.5q149 0 229.5 89t80.5 244v553q0 97 20.5 170t59 119t81.5 72.5t99 44.5l108 -180q-26 -12 -41.5 -21.5t-36 -28.5t-32 -42t-19.5 -61.5t-8 -88.5v-533z" />
    <glyph glyph-name="gjII" unicode="&#xa88;" horiz-adv-x="1310" 
d="M1155 530q0 -258 -148.5 -401t-390.5 -143q-121 0 -215.5 30.5t-152 83t-86.5 116.5t-29 136q0 59 19.5 109t51.5 83t67.5 54.5t74.5 32.5v8q-85 26 -143 98t-58 183q0 149 111 234t276 85q119 0 232 -43l-51 -201q-75 35 -150 35q-74 0 -123 -38t-49 -107
q0 -72 56.5 -114t154.5 -42h96v-203h-106q-102 0 -157.5 -45t-55.5 -119t61 -121.5t174 -47.5q149 0 229.5 89t80.5 244v817q0 90 25.5 160.5t70.5 113.5t101.5 65t121.5 22q171 0 270 -141l-157 -140q-46 68 -103 68q-44 0 -71 -29.5t-27 -95.5v-836z" />
    <glyph glyph-name="gjU" unicode="&#xa89;" horiz-adv-x="1351" 
d="M1260 1583l-101 -199q-128 70 -287 70q-88 0 -165.5 -24.5t-144.5 -77.5t-115 -130t-75.5 -188t-27.5 -246q0 -281 124 -434t327 -153q97 0 153 44.5t56 112.5q0 71 -49 110.5t-142 39.5h-92v207h82q91 0 142.5 41.5t51.5 111.5q0 61 -40 98.5t-109 37.5q-58 0 -143 -41
l-87 196q113 62 250 62q164 0 262.5 -92t98.5 -232q0 -100 -52 -170.5t-135 -101.5v-9q81 -24 141 -93t60 -183q0 -65 -28.5 -126t-83 -111.5t-143 -80.5t-197.5 -30q-144 0 -267.5 53.5t-215.5 152.5t-144.5 252t-52.5 341q0 210 59.5 379t163 278t241.5 167t297 58
q216 0 388 -90z" />
    <glyph glyph-name="gjUU" unicode="&#xa8a;" horiz-adv-x="1865" 
d="M1235 340q0 -65 -29 -126t-83.5 -111.5t-143 -80.5t-197.5 -30q-144 0 -267.5 53.5t-215.5 152.5t-144.5 252t-52.5 341q0 201 63.5 368t175 279.5t264.5 174.5t331 62q176 0 320.5 -58t239.5 -159t146.5 -236t51.5 -290v-932h-234v915q0 246 -147 394.5t-377 148.5
q-128 0 -237 -44.5t-190 -127.5t-127 -211t-46 -287q0 -281 123.5 -434t326.5 -153q97 0 153 44.5t56 112.5q0 71 -48.5 110.5t-141.5 39.5h-92v207h82q91 0 142.5 41.5t51.5 111.5q0 61 -40 98.5t-109 37.5q-59 0 -144 -41l-86 196q113 62 250 62q164 0 262.5 -92
t98.5 -232q0 -100 -52 -170.5t-135 -101.5v-9q81 -24 141 -93t60 -183z" />
    <glyph glyph-name="gjvR" unicode="&#xa8b;" horiz-adv-x="1861" 
d="M1634 1153q-17 -146 -153 -276q86 -60 138.5 -103.5t99.5 -95.5t68 -106.5t21 -118.5q0 -147 -99.5 -241.5t-272.5 -94.5q-115 0 -213 45l71 190q65 -30 136 -30q67 0 107 34t40 99q0 67 -70.5 134.5t-210.5 145.5q-36 -25 -73 -47l-123 -76v-612h-236v475l-602 -381
l-158 174l535 318q-13 52 -33 97.5t-50 88t-74.5 67.5t-98.5 25q-60 0 -108 -31.5t-78 -80.5l-185 147q16 25 37.5 49.5t56 51t73.5 46.5t92.5 33t111.5 13q167 0 284.5 -107.5t159.5 -284.5l60 37q-21 171 -21 355v137h234v-383q162 97 224 163.5t75 143.5h235z" />
    <glyph glyph-name="gjvL" unicode="&#xa8c;" horiz-adv-x="1472" 
d="M1225 -174q-95 0 -173.5 31.5t-131 103t-52.5 172.5q0 63 26 121.5t63 102.5t74 85t63 88t26 93q0 63 -37 102t-96 39q-70 0 -113 -45t-43 -133v-137h-217v145q0 82 -35.5 125t-99.5 43q-63 0 -105 -50.5t-42 -152.5q0 -121 66.5 -229.5t213.5 -186.5l-137 -168
q-173 89 -277 247.5t-104 344.5q0 97 31 174t83 124t115 71.5t132 24.5q92 0 158.5 -42t99.5 -114h8q25 53 74 92.5t114 58.5v273h213v-277q104 -34 166 -122t62 -209q0 -69 -26.5 -134.5t-64.5 -113.5t-76 -90.5t-64.5 -84t-26.5 -75.5q0 -53 37.5 -80t99.5 -27
q56 0 111 18t94 48l75 -176q-113 -80 -284 -80z" />
    <glyph glyph-name="gjEcandra" unicode="&#xa8d;" horiz-adv-x="1888" 
d="M776 887q0 -143 -85 -239t-236 -122q2 -97 65 -163t187 -66q127 0 192.5 77.5t65.5 217.5v434h233v-260h281v463h237v-1229h-237v557h-281q-3 -97 -36.5 -181.5t-93.5 -149t-153.5 -101.5t-209.5 -37q-113 0 -206.5 37.5t-152.5 99.5t-91 139t-32 158q-71 6 -133 27v182
h238q104 0 156.5 39.5t52.5 112.5q0 65 -41 103t-111 38q-71 0 -147 -33l-72 203q88 45 229 45q175 0 278 -97t103 -255zM2060 1704q-55 -134 -174 -217.5t-293 -83.5q-175 0 -293.5 83.5t-173.5 217.5l168 96q96 -196 299 -196q200 0 299 196z" />
    <glyph glyph-name="gjE" unicode="&#xa8f;" horiz-adv-x="1888" 
d="M776 887q0 -143 -85 -239t-236 -122q2 -97 65 -163t187 -66q127 0 192.5 77.5t65.5 217.5v434h233v-260h281v463h237v-1229h-237v557h-281q-3 -97 -36.5 -181.5t-93.5 -149t-153.5 -101.5t-209.5 -37q-113 0 -206.5 37.5t-152.5 99.5t-91 139t-32 158q-71 6 -133 27v182
h238q104 0 156.5 39.5t52.5 112.5q0 65 -41 103t-111 38q-71 0 -147 -33l-72 203q88 45 229 45q175 0 278 -97t103 -255zM1708 1442l-170 -53q-261 205 -489 475l264 59z" />
    <glyph glyph-name="gjAI" unicode="&#xa90;" horiz-adv-x="1888" 
d="M776 887q0 -143 -85 -239t-236 -122q2 -97 65 -163t187 -66q127 0 192.5 77.5t65.5 217.5v434h233v-260h281v463h237v-1229h-237v557h-281q-3 -97 -36.5 -181.5t-93.5 -149t-153.5 -101.5t-209.5 -37q-113 0 -206.5 37.5t-152.5 99.5t-91 139t-32 158q-71 6 -133 27v182
h238q104 0 156.5 39.5t52.5 112.5q0 65 -41 103t-111 38q-71 0 -147 -33l-72 203q88 45 229 45q175 0 278 -97t103 -255zM1509 1421l-120 -41q-353 164 -570 387l215 127zM1737 1413h-131q-43 47 -123 172t-156 287l254 31z" />
    <glyph glyph-name="gjOcandra" unicode="&#xa91;" horiz-adv-x="2473" 
d="M776 887q0 -143 -85 -239t-236 -122q2 -97 65 -163t187 -66q127 0 192.5 77.5t65.5 217.5v434h233v-260h281v463h237v-1229h-237v557h-281q-3 -97 -36.5 -181.5t-93.5 -149t-153.5 -101.5t-209.5 -37q-113 0 -206.5 37.5t-152.5 99.5t-91 139t-32 158q-71 6 -133 27v182
h238q104 0 156.5 39.5t52.5 112.5q0 65 -41 103t-111 38q-71 0 -147 -33l-72 203q88 45 229 45q175 0 278 -97t103 -255zM2302 0h-242v1229h242v-1229zM2648 1704q-55 -134 -174 -217.5t-293 -83.5q-175 0 -293.5 83.5t-173.5 217.5l168 96q96 -196 299 -196q200 0 299 196z
" />
    <glyph glyph-name="gjO" unicode="&#xa93;" horiz-adv-x="2473" 
d="M776 887q0 -143 -85 -239t-236 -122q2 -97 65 -163t187 -66q127 0 192.5 77.5t65.5 217.5v434h233v-260h281v463h237v-1229h-237v557h-281q-3 -97 -36.5 -181.5t-93.5 -149t-153.5 -101.5t-209.5 -37q-113 0 -206.5 37.5t-152.5 99.5t-91 139t-32 158q-71 6 -133 27v182
h238q104 0 156.5 39.5t52.5 112.5q0 65 -41 103t-111 38q-71 0 -147 -33l-72 203q88 45 229 45q175 0 278 -97t103 -255zM2302 0h-242v1229h242v-1229zM2292 1442l-170 -53q-264 207 -490 475l264 59z" />
    <glyph glyph-name="gjAU" unicode="&#xa94;" horiz-adv-x="2473" 
d="M776 887q0 -143 -85 -239t-236 -122q2 -97 65 -163t187 -66q127 0 192.5 77.5t65.5 217.5v434h233v-260h281v463h237v-1229h-237v557h-281q-3 -97 -36.5 -181.5t-93.5 -149t-153.5 -101.5t-209.5 -37q-113 0 -206.5 37.5t-152.5 99.5t-91 139t-32 158q-71 6 -133 27v182
h238q104 0 156.5 39.5t52.5 112.5q0 65 -41 103t-111 38q-71 0 -147 -33l-72 203q88 45 229 45q175 0 278 -97t103 -255zM2302 0h-242v1229h242v-1229zM2095 1421l-121 -41q-351 163 -569 387l215 127zM2322 1413h-131q-42 46 -122 171.5t-156 287.5l254 31z" />
    <glyph glyph-name="gjKA" unicode="&#xa95;" horiz-adv-x="1206" 
d="M330 664v8q-77 40 -126.5 105t-49.5 149q0 135 123.5 225t332.5 90q253 0 389 -100l-114 -185q-44 32 -125 56t-152 24q-106 0 -159.5 -29.5t-53.5 -84.5q0 -111 236 -199q168 48 471 115v-197l-221 -43v-8q194 -91 194 -262q0 -64 -28 -122.5t-85 -108.5t-156 -79.5
t-228 -29.5q-144 0 -258.5 39.5t-180.5 89.5l115 184q60 -46 148.5 -77t187.5 -31q117 0 179 38.5t62 104.5q0 55 -64 100.5t-200 98.5q-180 -55 -465 -115v201z" />
    <glyph glyph-name="gjKHA" unicode="&#xa96;" horiz-adv-x="1626" 
d="M932 1016v-256h282v469h240v-1229h-240v549h-282q-8 -167 -107 -261.5t-274 -94.5q-181 0 -283 101t-102 277v361q0 40 -20 63t-58 23q-33 0 -63 -12v196q78 29 147 29q102 0 165.5 -66.5t63.5 -191.5v-391q0 -179 152 -179q145 0 145 179v434h234z" />
    <glyph glyph-name="gjGA" unicode="&#xa97;" horiz-adv-x="1531" 
d="M1360 0h-240v1229h240v-1229zM-10 578l211 98q25 -78 81.5 -126t139.5 -48q98 0 158.5 68t60.5 204q0 112 -56 181t-153 69q-80 0 -151 -49l-109 196q115 66 272 66q191 0 316 -125t125 -340t-126.5 -348t-334.5 -133q-161 0 -276 83t-158 204z" />
    <glyph glyph-name="gjGHA" unicode="&#xa98;" horiz-adv-x="1388" 
d="M977 229h-8q-61 -61 -169.5 -99t-228.5 -38t-218 37t-159 113t-61 180q0 96 55 159.5t138 90.5v8q-89 22 -147 87t-58 165q0 99 57 169.5t145 102t195 31.5q120 0 223 -35l-41 -199q-71 31 -159 31q-76 0 -125 -31.5t-49 -97.5q0 -58 52.5 -94.5t160.5 -36.5h112v-199
h-110q-99 0 -153 -36t-54 -103q0 -64 59 -103.5t162 -39.5q126 0 233 63.5t148 161.5v713h240v-1229h-240v229z" />
    <glyph glyph-name="gjNGA" unicode="&#xa99;" horiz-adv-x="1210" 
d="M57 152l125 182q164 -137 369 -137q103 0 158 40t55 107q0 40 -35 73.5t-90.5 59t-123.5 52t-135.5 59.5t-123 73.5t-90.5 102.5t-35 139q0 143 124 239.5t347 96.5q93 0 186.5 -20.5t151.5 -47.5l-68 -202q-134 61 -280 61q-113 0 -164 -34t-51 -87q0 -44 34.5 -79.5
t90 -61.5t123 -52t134.5 -58.5t122.5 -72.5t90 -102t34.5 -139q0 -155 -121.5 -256.5t-341.5 -101.5q-93 0 -180.5 19t-148 47t-99.5 53.5t-58 46.5zM926 776q0 61 39 101.5t96 40.5q60 0 99.5 -40.5t39.5 -101.5q0 -57 -39.5 -95t-99.5 -38q-57 0 -96 38t-39 95z" />
    <glyph glyph-name="gjCA" unicode="&#xa9a;" horiz-adv-x="1482" 
d="M1311 0h-238v238h-10q-13 -14 -27.5 -28t-47.5 -36.5t-69.5 -38.5t-93 -28.5t-118.5 -12.5q-188 0 -322 109.5t-182 279.5q-115 37 -115 162q0 46 20 95t52 85l129 19l45 -156h6q115 0 169 51.5t54 124.5q0 76 -42.5 120t-114.5 44q-88 0 -154 -39l-66 205q92 45 224 45
q179 0 284 -102t105 -260q0 -146 -98.5 -259t-274.5 -137q33 -94 99 -135t175 -41q78 0 147 25t114 63t73.5 78.5t38.5 77.5v680h238v-1229z" />
    <glyph glyph-name="gjCHA" unicode="&#xa9b;" horiz-adv-x="1521" 
d="M680 1210l-39 -200q-56 20 -119 20q-79 0 -121.5 -40t-42.5 -103q0 -71 57.5 -117.5t176.5 -46.5h86v-195h-80q-107 0 -160 -43t-53 -112q0 -30 12 -58.5t39 -55t79 -42.5t124 -16q165 0 306.5 87t230.5 226q-80 1 -156 26t-138 71t-99.5 119.5t-37.5 162.5q0 148 98 245
t255 97q167 0 272 -115t105 -301q0 -160 -67 -312t-180 -265.5t-271 -182.5t-330 -69q-227 0 -355.5 105.5t-128.5 260.5q0 106 58 174t133 95v8q-101 31 -158 105t-57 175q0 144 104 234t269 90q102 0 188 -27zM969 887q0 -91 75 -143t203 -50q17 70 17 125
q0 101 -45.5 155t-114.5 54q-59 0 -97 -38.5t-38 -102.5z" />
    <glyph glyph-name="gjJA" unicode="&#xa9c;" horiz-adv-x="1353" 
d="M834 952l10 -12l284 289h275v-23l-420 -428q108 -126 161.5 -221t53.5 -205q0 -69 -25 -131t-72 -111.5t-122.5 -78.5t-169.5 -29q-173 0 -279 100t-106 242q0 104 50.5 187.5t154.5 187.5l61 63l-16 19q-118 136 -178.5 181.5t-122.5 45.5q-55 0 -91 -33.5t-36 -83.5
q0 -59 46.5 -100.5t143.5 -44.5v-16l-135 -152q-137 18 -213 104t-76 207q0 145 104 239.5t253 94.5q69 0 129 -18.5t117 -60t105 -88.5t114 -124zM813 201q74 0 119 46t45 111q0 55 -32 108.5t-118 154.5l-12 -13q-101 -103 -132.5 -157.5t-31.5 -102.5q0 -63 45 -105
t117 -42z" />
    <glyph glyph-name="gjJHA" unicode="&#xa9d;" horiz-adv-x="1630" 
d="M2 465l160 131q81 -113 209 -113q97 0 160 71t63 198q0 125 -58.5 198.5t-154.5 73.5q-79 0 -154 -45l-106 192q128 66 272 66q153 0 266.5 -85t153.5 -241q119 52 242 52h22l148 266h258l-191 -322q118 -60 188 -173.5t70 -258.5q0 -219 -141 -350t-362 -131
q-73 0 -147.5 21.5t-125.5 50.5l70 194q92 -55 200 -55q106 0 183.5 70.5t77.5 201.5q0 120 -75.5 196.5t-187.5 76.5q-113 0 -211 -64q-19 -187 -142.5 -299.5t-315.5 -112.5q-121 0 -216.5 52.5t-154.5 138.5z" />
    <glyph glyph-name="gjNYA" unicode="&#xa9e;" horiz-adv-x="1525" 
d="M-10 575l211 101q25 -78 81.5 -126t139.5 -48q99 0 159 68.5t60 203.5q0 112 -56 181t-153 69q-80 0 -151 -49l-109 196q115 66 272 66q168 0 288 -99.5t147 -275.5q62 -8 110 -8q69 0 123 14v361h242v-1229h-242v645q-50 -12 -117 -12q-65 0 -123 12
q-36 -162 -154.5 -258t-293.5 -96q-161 0 -276 82.5t-158 201.5z" />
    <glyph glyph-name="gjTTA" unicode="&#xa9f;" horiz-adv-x="1064" 
d="M549 203q123 0 216.5 39.5t137.5 87.5l125 -180q-56 -59 -179 -108.5t-290 -49.5q-119 0 -215 31t-154 82.5t-89 114t-31 128.5q0 72 33 132t86 101.5t117 77t128 65t117 57.5t86 62t33 72q0 47 -42 78t-118 31q-144 0 -248 -66l-108 193q138 88 352 88q101 0 181 -27
t128 -72t73 -100t25 -114q0 -75 -32.5 -137.5t-84.5 -105t-115 -79t-126.5 -66.5t-115.5 -58t-84.5 -62.5t-32.5 -73.5q0 -61 59.5 -101t167.5 -40z" />
    <glyph glyph-name="gjTTHA" unicode="&#xaa0;" horiz-adv-x="1277" 
d="M379 707v8q-53 27 -93 82.5t-40 136.5q0 60 27 114t78 97.5t133 69.5t184 26q100 0 197.5 -25.5t160.5 -64.5l-102 -188q-117 69 -267 69q-78 0 -125 -27t-47 -73q0 -39 40 -69t103.5 -52t140 -44.5t153.5 -53.5t140.5 -72t103.5 -107.5t40 -152.5q0 -78 -36 -149
t-103.5 -127t-176.5 -89.5t-243 -33.5q-259 0 -412 111.5t-153 281.5q0 67 26 124t71 96.5t94 66.5t106 45zM965 377q0 54 -49.5 94.5t-96.5 57t-159 48.5q-24 7 -37 11q-127 -14 -213 -69.5t-86 -137.5q0 -84 85.5 -140.5t237.5 -56.5q153 0 235.5 57t82.5 136z" />
    <glyph glyph-name="gjDDA" unicode="&#xaa1;" horiz-adv-x="1079" 
d="M51 152l125 182q164 -137 369 -137q103 0 158 40t55 107q0 40 -35 73.5t-90.5 59t-123.5 52t-135.5 59.5t-123 73.5t-90.5 102.5t-35 139q0 143 124 239.5t347 96.5q93 0 186.5 -20.5t151.5 -47.5l-68 -202q-134 61 -280 61q-113 0 -164 -34t-51 -87q0 -44 34.5 -79.5
t90 -61.5t122.5 -52t134 -58.5t122.5 -72.5t90 -102t34.5 -139q0 -155 -121 -256.5t-341 -101.5q-93 0 -180.5 19t-148 47t-99.5 53.5t-58 46.5z" />
    <glyph glyph-name="gjDDHA" unicode="&#xaa2;" horiz-adv-x="1212" 
d="M678 338l-166 113q22 96 112 170.5t216 74.5q136 0 225.5 -83.5t89.5 -221.5q0 -169 -137.5 -277t-364.5 -108q-114 0 -218 32t-184 91t-127.5 150.5t-47.5 201.5q0 94 32.5 170t84.5 125.5t114.5 89.5t125 69.5t114.5 57t84.5 61.5t32.5 74q0 54 -43 93v8h247
q39 -59 39 -131q0 -68 -32 -122t-83.5 -90.5t-113 -68.5t-123.5 -64.5t-113.5 -69t-83.5 -92t-32 -124.5q0 -117 94 -184.5t237 -67.5q128 0 202.5 50t74.5 122q0 47 -28.5 74.5t-74.5 27.5q-49 0 -93 -37t-60 -114z" />
    <glyph glyph-name="gjNNA" unicode="&#xaa3;" horiz-adv-x="1751" 
d="M1178 39q-179 -113 -416 -113q-121 0 -221 29t-169.5 80t-117 121t-70 151t-22.5 172v750h239v-748q0 -172 94.5 -257t264.5 -85q101 0 186.5 28t140.5 64zM1176 813q0 -181 -115.5 -294t-308.5 -113q-85 0 -162 22v207q62 -23 139 -23q91 0 154 50.5t63 152.5
q0 100 -61.5 154.5t-155.5 54.5q-67 0 -115 -14v207q72 20 150 20q177 0 294.5 -114t117.5 -310zM1579 0h-238v1229h238v-1229z" />
    <glyph glyph-name="gjTA" unicode="&#xaa4;" horiz-adv-x="1255" 
d="M315 487q0 -136 88.5 -208t221.5 -60v-213q-106 -15 -206.5 11.5t-178.5 87t-125 160t-47 222.5q0 220 142.5 355t360.5 135h271v252h241v-1229h-241v754h-242q-131 0 -208 -72t-77 -195z" />
    <glyph glyph-name="gjTHA" unicode="&#xaa5;" horiz-adv-x="1413" 
d="M1008 274h-9q-52 -60 -148.5 -107.5t-234.5 -47.5q-149 0 -269.5 64.5t-193 186t-79.5 281.5q207 36 323.5 77t161.5 89t45 117q0 55 -31.5 87t-85.5 32q-49 0 -80.5 -31.5t-31.5 -77.5q0 -51 26 -90l-208 -43q-46 65 -46 145q0 118 92.5 203.5t243.5 85.5q161 0 257 -89
t96 -216q0 -167 -130.5 -273t-359.5 -147q2 -24 17.5 -54t46.5 -63.5t90 -56t135 -22.5q82 0 151 26.5t112.5 67.5t70 83.5t35.5 82.5v645h237v-1229h-233v274z" />
    <glyph glyph-name="gjDA" unicode="&#xaa6;" horiz-adv-x="1030" 
d="M911 1163l-71 -194q-44 22 -110 38.5t-132 16.5q-106 0 -162.5 -42t-56.5 -108q0 -67 55.5 -110t169.5 -43h211v-209h-211q-113 0 -168 -44t-55 -114q0 -73 60.5 -117t185.5 -44q89 0 166 28.5t127 65.5l92 -191q-154 -110 -400 -110q-96 0 -176.5 20t-135.5 53.5
t-93.5 79t-56 95t-17.5 102.5q0 60 21 111t54.5 84t66.5 53t65 30v9q-83 25 -146 95.5t-63 174.5q0 143 118.5 240.5t332.5 97.5q107 0 194 -20.5t135 -47.5z" />
    <glyph glyph-name="gjDHA" unicode="&#xaa7;" horiz-adv-x="1382" 
d="M123 920q0 53 21.5 98t54.5 76t81.5 64t94.5 59t100.5 62.5t93.5 72.5l127 -162q-43 -46 -107.5 -89.5t-110 -68t-79.5 -59.5t-34 -74q0 -54 49.5 -86.5t154.5 -32.5h127v-200h-123q-98 0 -148 -36t-50 -104q0 -66 60 -106.5t161 -40.5q121 0 227.5 62t149.5 157v717h237
v-1229h-237v221h-8q-65 -61 -170.5 -97t-223.5 -36t-216.5 38t-161 116.5t-62.5 183.5q0 94 55.5 159.5t137.5 94.5v8q-85 20 -143 80.5t-58 151.5z" />
    <glyph glyph-name="gjNA" unicode="&#xaa8;" horiz-adv-x="1167" 
d="M369 406l-121 -54q-85 43 -139 132t-54 218l166 121h535v406h239v-1229h-239v616h-387v-210z" />
    <glyph glyph-name="gjPA" unicode="&#xaaa;" horiz-adv-x="1210" 
d="M799 414h-8q-29 -50 -101.5 -87.5t-167.5 -37.5q-167 0 -262.5 102t-95.5 264v277q0 90 -78 90q-30 0 -61 -10v194q73 27 145 27q102 0 166.5 -66.5t64.5 -191.5v-260q0 -215 179 -215q98 0 158.5 69.5t60.5 216.5v443h239v-1229h-239v414z" />
    <glyph glyph-name="gjPHA" unicode="&#xaab;" horiz-adv-x="1214" 
d="M1006 1141l-115 -185q-45 33 -125.5 57.5t-153.5 24.5q-104 0 -156.5 -30.5t-52.5 -85.5q0 -61 61.5 -108.5t176.5 -88.5q83 30 469 113v-197l-211 -41v-8q182 -89 182 -254q0 -123 -106 -211.5t-279 -110.5v-8l336 -203l-246 -129l-325 304q-78 1 -141 23.5t-100.5 57
t-58 71.5t-22.5 71l97 131l262 -148q147 -9 244.5 36.5t97.5 123.5q0 55 -62 98t-192 93q-97 -33 -480 -117v201l236 43v8q-80 41 -131 106t-51 148q0 134 123.5 224.5t334.5 90.5q248 0 388 -100z" />
    <glyph glyph-name="gjBA" unicode="&#xaac;" horiz-adv-x="1644" 
d="M944 834v-134h287v529h242v-1229h-242v496h-287q-4 -186 -112.5 -290t-290.5 -104q-198 0 -323.5 152t-125.5 420q0 256 140 411.5t370 155.5q174 0 281 -80l-127 -178q-64 51 -158 51q-115 0 -187.5 -86t-72.5 -260q0 -83 13 -148.5t33.5 -105.5t49 -66t57.5 -36t60 -10
q160 0 160 182v330h233z" />
    <glyph glyph-name="gjBHA" unicode="&#xaad;" horiz-adv-x="1675" 
d="M332 666q0 -93 30 -174t88.5 -144.5t154 -100t216.5 -36.5q75 0 154 12v-211q-71 -12 -170 -12q-168 0 -304 53t-223.5 144.5t-134.5 212t-47 258.5q0 127 41 234t110 178.5t159.5 111t189.5 39.5q85 0 153 -22.5t109.5 -58t69.5 -82.5t38.5 -91.5t10.5 -89.5v-101h293
v443h233v-1229h-233v580h-295v-166h-211q-68 42 -101.5 112t-35.5 154l125 104v99q0 63 -38.5 100t-105.5 37q-112 0 -194 -93t-82 -261z" />
    <glyph glyph-name="gjMA" unicode="&#xaae;" horiz-adv-x="1253" 
d="M1081 0h-237v485h-367v-204h-221q-67 47 -106 137.5t-39 177.5l137 100v240q0 90 -90 90q-38 0 -82 -14v194q78 29 164 29q104 0 170.5 -65t66.5 -185v-287h367v531h237v-1229z" />
    <glyph glyph-name="gjYA" unicode="&#xaaf;" horiz-adv-x="1370" 
d="M965 260h-9q-49 -53 -135 -95t-215 -42q-227 0 -374.5 153t-153.5 400q136 28 227 59t133 62.5t57 58t15 57.5q0 51 -37.5 80t-107.5 29q-88 0 -164 -39l-70 201q110 47 244 47q170 0 271.5 -86.5t101.5 -222.5q0 -277 -398 -375q3 -30 18.5 -64t46 -70t87 -59.5
t129.5 -23.5q129 0 217.5 69t112.5 162v668h237v-1229h-233v260z" />
    <glyph glyph-name="gjRA" unicode="&#xab0;" horiz-adv-x="1015" 
d="M80 520v174h348q117 0 171 45.5t54 124.5q0 71 -49.5 114.5t-136.5 43.5q-95 0 -182 -43l-76 211q118 49 260 49q203 0 316.5 -105.5t113.5 -263.5q0 -170 -116 -275.5t-332 -109.5q-9 -52 -9 -73q0 -87 60 -148t174 -61q95 0 188 55l58 -209q-104 -61 -269 -61
q-102 0 -188 33.5t-142 89.5t-87 128.5t-31 151.5q0 57 12 103q-83 9 -137 26z" />
    <glyph glyph-name="gjLA" unicode="&#xab2;" horiz-adv-x="1429" 
d="M98 616q0 205 90.5 357t250.5 220t356 32v-211q-199 35 -325 -68t-126 -330q0 -223 125.5 -330.5t327.5 -70.5v-213q-144 -22 -271.5 10t-222.5 110t-150 205.5t-55 288.5zM598 514v221h420v494h239v-1229h-239v514h-420z" />
    <glyph glyph-name="gjLLA" unicode="&#xab3;" horiz-adv-x="1648" 
d="M1477 0h-238v825q0 97 -43.5 150t-120.5 53q-82 0 -124 -50.5t-42 -141.5q0 -48 13.5 -139.5t13.5 -147.5q0 -174 -108.5 -289t-292.5 -115q-201 0 -324 133.5t-123 370.5q0 186 83.5 346.5t205.5 249.5l172 -153q-219 -175 -219 -439q0 -155 57 -227t145 -72
q79 0 124.5 55t45.5 158q0 47 -15 136t-15 149q0 168 108 279.5t293 111.5q189 0 296.5 -112t107.5 -287v-844z" />
    <glyph glyph-name="gjVA" unicode="&#xab5;" horiz-adv-x="1286" 
d="M877 1229h237v-1229h-237v383h-11q-42 -48 -120 -84.5t-189 -36.5q-208 0 -339.5 135t-131.5 342q0 140 67 249.5t177.5 167.5t242.5 58q63 0 107 -8v-225q-48 10 -88 10q-113 0 -187.5 -69t-74.5 -187t72 -189t196 -71t201.5 90.5t77.5 237.5v426z" />
    <glyph glyph-name="gjSHA" unicode="&#xab6;" horiz-adv-x="1562" 
d="M528 1245q94 0 171 -31t126.5 -83.5t76 -118.5t26.5 -138q0 -81 -28 -150.5t-84 -126.5t-151 -93t-219 -43q-4 -28 -4 -45q0 -91 61 -152t175 -61q104 0 190 53l58 -209q-106 -59 -273 -59q-106 0 -192.5 34.5t-141.5 92t-84.5 130.5t-29.5 152q0 26 4 66q-77 7 -127 18
v168h291q149 0 233 62t84 170q0 82 -46 128t-107 46q-55 0 -89 -33t-34 -78q0 -65 63 -94l-141 -102q-71 22 -111.5 76t-40.5 132q0 117 94 203t250 86zM1153 1229h238v-1229h-238v1229z" />
    <glyph glyph-name="gjSSA" unicode="&#xab7;" horiz-adv-x="1236" 
d="M827 403h-8q-89 -118 -280 -118q-177 0 -276 98t-99 264v285q0 90 -78 90q-24 0 -61 -12v196q70 25 127 25q63 0 115 -25t120 -84l436 -366q6 15 6 135v338h236v-1229h-238v403zM373 926q24 -58 24 -174v-72q0 -105 52 -154t141 -49q56 0 109 29.5t83 79.5l-403 344z" />
    <glyph glyph-name="gjSA" unicode="&#xab8;" horiz-adv-x="1572" 
d="M285 983l-74 211q109 45 244 45q198 0 311 -104.5t113 -264.5q0 -97 -37 -172q72 -20 137 -20q111 0 186 41v510h236v-1229h-236v489q-71 -26 -178 -26q-172 0 -301 80q-100 -52 -237 -58q-9 -35 -9 -71q0 -87 61 -149t175 -62q93 0 178 51l55 -211q-104 -55 -258 -55
q-102 0 -188 34t-142 90.5t-87 129t-31 151.5q0 49 10 101q-82 10 -135 26v174h332q113 0 168 45.5t55 124.5q0 72 -47 114t-135 42t-166 -37z" />
    <glyph glyph-name="gjHA" unicode="&#xab9;" horiz-adv-x="1226" 
d="M557 991l49 43q48 44 82 88.5t45.5 68.5t14.5 38h284q-26 -59 -82 -123.5t-119 -108.5v-8l39 -10q43 -12 79.5 -32t69.5 -51.5t52 -78.5t19 -104q0 -129 -93.5 -213t-244.5 -84q-162 0 -273 73l82 183q86 -58 184 -58q61 0 94 29.5t33 75.5q0 47 -38 79.5t-125 53.5
l-152 35v104zM119 895l223 -68q-43 -84 -43 -202q0 -187 130.5 -305.5t324.5 -118.5q208 0 340 118l123 -190q-66 -60 -180.5 -103.5t-280.5 -43.5q-196 0 -352.5 79t-247 226.5t-90.5 339.5q0 146 53 268z" />
    <glyph glyph-name="gjNukta" unicode="&#xabc;" horiz-adv-x="0" 
d="M-836 -438q0 64 41.5 105.5t102.5 41.5q63 0 105 -41.5t42 -105.5q0 -60 -42 -101t-105 -41q-60 0 -102 41t-42 101z" />
    <glyph glyph-name="gjAvagraha" unicode="&#xabd;" horiz-adv-x="1089" 
d="M51 147l127 189q67 -54 164 -98.5t209 -44.5q104 0 156.5 40t52.5 105q0 29 -14 55t-34 45t-57 40.5t-67.5 35.5t-81.5 35q-44 19 -71 31.5t-68.5 35t-67 42t-56 48.5t-47.5 59.5t-28.5 71t-11.5 85.5q0 136 100.5 221.5t267.5 85.5h437v-209h-414q-148 0 -148 -102
q0 -16 4.5 -30.5t14.5 -28t20.5 -24t30 -23t35 -21t42 -20.5t44.5 -20t50.5 -22t51.5 -22q66 -29 112.5 -57t94.5 -71.5t73 -103.5t25 -135q0 -157 -118.5 -254.5t-329.5 -97.5q-310 0 -498 159z" />
    <glyph glyph-name="gjmAA" unicode="&#xabe;" 
d="M414 0h-242v1229h242v-1229z" />
    <glyph glyph-name="gjmI" unicode="&#xabf;" 
d="M1628 1589l-125 -172q-50 42 -121.5 84t-165 81.5t-210 64t-232.5 24.5q-176 0 -268 -90t-92 -242v-1339h-242v1352q0 239 165 386.5t439 147.5q145 0 288 -31t251.5 -79.5t185.5 -95.5t127 -91z" />
    <glyph glyph-name="gjmII" unicode="&#xac0;" 
d="M-2 1886q193 0 304.5 -113t111.5 -282v-1491h-242v1481q0 87 -44 136.5t-130 49.5q-103 0 -149 -75.5t-25 -176.5l-232 62q-5 76 19.5 148.5t74 131t131 94t181.5 35.5z" />
    <glyph glyph-name="gjmU" unicode="&#xac1;" horiz-adv-x="0" 
d="M-451 -246l-122 172q112 92 280 92q155 0 253.5 -91.5t98.5 -229.5q0 -52 -14.5 -101.5t-47.5 -95.5t-81.5 -80.5t-120.5 -55.5t-160 -21q-107 0 -209.5 35t-181.5 91.5t-136 113t-95 112.5l164 141q53 -77 117 -138.5t157 -106t191 -44.5q90 0 139 40.5t49 103.5
q0 55 -37 89t-96 34q-80 0 -148 -60z" />
    <glyph glyph-name="gjmUU" unicode="&#xac2;" horiz-adv-x="0" 
d="M328 -563l-209 -58q-46 206 -159 325.5t-251 119.5q-63 0 -105 -38t-42 -95q0 -59 40 -96t103 -37q55 0 113 26v-196q-57 -29 -150 -29q-145 0 -244.5 95t-99.5 233q0 150 108 245t273 95q103 0 197.5 -38t165 -99t126 -139t88.5 -158t46 -156z" />
    <glyph glyph-name="gjmvR" unicode="&#xac3;" horiz-adv-x="0" 
d="M80 -539q-68 -45 -178.5 -81.5t-245.5 -36.5q-99 0 -181.5 29t-135 76.5t-81 107.5t-28.5 125q0 50 12.5 95t46.5 91.5t87.5 80t142.5 54.5t205 21q48 0 104 -3v-192q-62 4 -84 4q-105 0 -171 -22.5t-90 -54.5t-24 -74q0 -63 49 -99.5t138 -36.5t174.5 27.5t146.5 69.5z
" />
    <glyph glyph-name="gjmvRR" unicode="&#xac4;" horiz-adv-x="0" 
d="M98 -690q-166 -105 -340 -105q-148 0 -228.5 67t-80.5 163q0 53 28.5 101t86.5 79q-87 12 -136 68t-49 131q0 91 59.5 154.5t160 92t229.5 23.5v-166q-122 -1 -185 -32.5t-63 -78.5q0 -71 103 -71q58 0 145 20l35 -170q-217 -39 -217 -131q0 -71 106 -71q121 0 256 86z
" />
    <glyph glyph-name="gjmEcandra" unicode="&#xac5;" horiz-adv-x="0" 
d="M174 1704q-55 -134 -174 -217.5t-293 -83.5q-175 0 -293.5 83.5t-173.5 217.5l168 96q96 -196 299 -196q200 0 299 196z" />
    <glyph glyph-name="gjmE" unicode="&#xac7;" horiz-adv-x="0" 
d="M-160 1442l-170 -53q-261 205 -489 475l264 59z" />
    <glyph glyph-name="gjmAI" unicode="&#xac8;" horiz-adv-x="0" 
d="M-362 1423l-121 -41q-353 164 -570 387l215 127zM-135 1415h-131q-43 47 -123 172t-156 287l254 31z" />
    <glyph glyph-name="gjmOcandra" unicode="&#xac9;" 
d="M760 1704q-55 -134 -174 -217.5t-293 -83.5q-175 0 -293.5 83.5t-173.5 217.5l168 96q96 -196 299 -196t299 196zM414 0h-242v1229h242v-1229z" />
    <glyph glyph-name="gjmO" unicode="&#xacb;" 
d="M414 0h-242v1229h242v-1229zM408 1442l-170 -53q-264 207 -490 475l264 59z" />
    <glyph glyph-name="gjmAU" unicode="&#xacc;" 
d="M414 0h-242v1229h242v-1229zM219 1423l-121 -41q-351 163 -569 387l215 127zM446 1415h-131q-42 46 -122 171.5t-156 287.5l254 31z" />
    <glyph glyph-name="gjVirama" unicode="&#xacd;" horiz-adv-x="0" 
d="M115 -543v-8h-308l-223 315l185 74z" />
    <glyph glyph-name="gjOm" unicode="&#xad0;" horiz-adv-x="2285" 
d="M670 649q69 -19 115 -59.5t89 -108.5q24 -39 42.5 -62.5t46 -50.5t61.5 -40t74 -13q33 0 63.5 13.5t53 30.5t53.5 56.5t49 66t56 85.5q7 11 11 17q12 18 38 59.5t38.5 61t38 56.5t40.5 56t41 48.5t45.5 45t47.5 35t54 28.5t57.5 16t64.5 7q155 0 260 -119.5t105 -332.5
q0 -196 -110.5 -330.5t-272.5 -134.5q-76 0 -139.5 21.5t-110.5 61t-77 75.5t-60 84q-68 -93 -143.5 -145t-174.5 -52q-163 0 -256 135q-39 -114 -137 -180t-256 -66q-145 0 -251.5 61t-174.5 156l154 127q105 -153 278 -153q89 0 142 49.5t53 122.5q0 76 -57 119t-160 43
h-90v186h55q94 0 145.5 45.5t51.5 130.5q0 69 -43.5 112.5t-118.5 43.5q-114 0 -180 -88l-144 131q48 65 135 108t195 43q161 0 265 -91.5t104 -235.5q0 -58 -17 -107t-44.5 -80.5t-53.5 -50.5t-51 -29v-8zM1561 496q44 -110 112.5 -169t141.5 -59q91 0 142.5 79.5
t51.5 217.5q0 109 -49 171.5t-119 62.5q-55 0 -104.5 -50t-114.5 -153zM1137 1550q0 62 41 104t100 42q62 0 102.5 -41.5t40.5 -104.5q0 -58 -41 -98.5t-102 -40.5q-58 0 -99.5 41t-41.5 98zM1282 1047q-171 0 -291 77.5t-172 204.5l178 92q35 -87 107.5 -136.5t177.5 -49.5
q104 0 177.5 48t107.5 134l176 -88q-51 -128 -171.5 -205t-289.5 -77z" />
    <glyph glyph-name="gjvRR" unicode="&#xae0;" horiz-adv-x="1955" 
d="M1825 813v-192q-179 -99 -244 -164t-65 -127q0 -49 37.5 -86t117.5 -37q114 0 189 55l71 -184q-47 -31 -114 -50.5t-138 -19.5q-184 0 -291.5 86.5t-107.5 229.5q0 198 268 350v8q-113 7 -209 80q-5 -3 -19 -12t-42 -26.5t-57 -35.5l-123 -76v-612h-236v475l-600 -381
l-160 174l535 318q-13 52 -33 98t-50 88t-74 67t-97 25q-61 0 -109.5 -31.5t-78.5 -80.5l-185 147q16 25 37.5 49.5t56 51t73.5 46.5t92.5 33t111.5 13q167 0 284.5 -107.5t159.5 -284.5l62 37q-23 141 -23 355v137h234v-383q163 98 223 161t78 146h233q-13 -145 -119 -248
q84 -92 248 -92h64z" />
    <glyph glyph-name="gjvLL" unicode="&#xae1;" horiz-adv-x="1472" 
d="M1329 -303q-150 0 -230.5 66.5t-80.5 164.5q0 112 106 172q-84 7 -131 60.5t-47 126.5q0 45 18 86t43.5 72t51 60t43.5 62.5t18 67.5q0 57 -38 93t-97 36q-67 0 -110.5 -45t-43.5 -133v-137h-217v145q0 82 -35.5 125t-99.5 43q-63 0 -105 -50.5t-42 -152.5
q0 -121 66.5 -229.5t213.5 -186.5l-137 -168q-173 89 -277 247.5t-104 344.5q0 96 31 173.5t82.5 124.5t112.5 71.5t126 24.5q93 0 162.5 -42.5t104.5 -113.5h8q25 53 74 92.5t114 58.5v273h213v-277q105 -32 166.5 -116.5t61.5 -196.5q0 -41 -9.5 -77t-30.5 -70.5
t-39.5 -58.5t-51.5 -62q-54 -58 -54 -86q0 -56 90 -56q55 0 140 21l35 -172q-218 -37 -218 -131q0 -33 29.5 -51.5t81.5 -18.5q117 0 252 86l90 -160q-168 -106 -336 -106z" />
    <glyph glyph-name="gjmvL" unicode="&#xae2;" horiz-adv-x="0" 
d="M-207 -621q0 52 25.5 99.5t61.5 82t72 66t61.5 65.5t25.5 66q0 44 -30 70.5t-81 26.5q-57 0 -95 -38.5t-38 -119.5v-72h-188v72q0 158 -117 158q-54 0 -87.5 -41t-33.5 -115q0 -158 152 -270l-125 -129q-96 60 -159.5 164.5t-63.5 232.5q0 149 83.5 239.5t215.5 90.5
q82 0 140 -38t85 -102h8q24 59 87 99.5t151 40.5q123 0 202.5 -74t79.5 -191q0 -57 -25 -106t-60 -82.5t-70.5 -63.5t-60.5 -62.5t-25 -65.5q0 -82 120 -82q108 0 187 59l84 -143q-111 -80 -273 -80q-142 0 -225.5 68t-83.5 175z" />
    <glyph glyph-name="gjmvLL" unicode="&#xae3;" horiz-adv-x="0" 
d="M250 -741q112 0 201 69l75 -133q-131 -88 -276 -88q-126 0 -199.5 48.5t-73.5 137.5q0 91 86 138v6q-61 9 -97 47t-36 96q0 34 15.5 67.5t34 55t34 46.5t15.5 44q0 31 -23 49.5t-61 18.5q-65 0 -110.5 -49.5t-45.5 -124.5v-62h-182v72q0 158 -117 158q-54 0 -87.5 -41
t-33.5 -115q0 -158 152 -270l-127 -129q-95 60 -158 164.5t-63 232.5q0 149 83 239.5t214 90.5q82 0 140.5 -38.5t84.5 -103.5h8q21 57 89 99.5t155 42.5q127 0 198.5 -63t71.5 -161q1 -34 -10.5 -63.5t-28.5 -50t-33.5 -38t-28.5 -36.5t-12 -37q0 -45 76 -45q61 0 127 23
l35 -129q-103 -28 -145.5 -50.5t-42.5 -60.5q0 -57 96 -57z" />
    <glyph glyph-name="gjZero" unicode="&#xae6;" horiz-adv-x="1062" 
d="M528 1038q97 0 152 -111.5t55 -314.5q0 -204 -50.5 -313t-149.5 -109q-98 0 -153.5 112t-55.5 314q0 204 51.5 313t150.5 109zM528 -20q95 0 175.5 39.5t142 116.5t96.5 200.5t35 281.5t-34 280.5t-94.5 198t-139.5 114t-174 38.5t-176 -40t-142 -117t-96 -200t-35 -280
q0 -159 34 -282t94.5 -198.5t139.5 -113.5t174 -38z" />
    <glyph glyph-name="gjOne" unicode="&#xae7;" horiz-adv-x="1097" 
d="M508 621q79 0 154 30v260q0 129 -119 129q-92 0 -153.5 -73.5t-61.5 -169.5q0 -87 49 -131.5t131 -44.5zM899 -14q-120 0 -178.5 73.5t-58.5 204.5v199q-93 -51 -201 -51q-173 0 -272 103t-99 276q0 87 33 169.5t91 146.5t144.5 103t186.5 39q162 0 256 -86.5t94 -234.5
v-647q0 -50 21.5 -70.5t68.5 -20.5h45v-176q-47 -28 -131 -28z" />
    <glyph glyph-name="gjTwo" unicode="&#xae8;" horiz-adv-x="1015" 
d="M680 -12q-88 0 -167 27.5t-145.5 82.5t-107.5 147.5t-45 211.5q-143 38 -143 170q0 68 42.5 112.5t112.5 44.5q131 0 172 -127q119 9 189.5 60t70.5 141q0 76 -48 119t-140 43q-83 0 -182 -35l-70 209q95 43 242 43q207 0 322.5 -104t115.5 -277q0 -93 -38 -169
t-103.5 -125.5t-146.5 -79t-173 -38.5q15 -120 80.5 -179.5t188.5 -59.5q85 0 151 35l19 -226q-79 -26 -197 -26z" />
    <glyph glyph-name="gjThree" unicode="&#xae9;" horiz-adv-x="1003" 
d="M53 154l162 151q32 -49 100 -87t150 -38q97 0 142.5 43.5t45.5 132.5q0 86 -59 126t-188 40h-74v189h67q108 0 158.5 45t50.5 139q0 152 -157 152q-65 0 -112.5 -30.5t-72.5 -80.5l-186 113q45 87 142 140.5t231 53.5q199 0 298 -87.5t99 -242.5q0 -115 -58.5 -186
t-136.5 -88v-6q101 -8 169.5 -75t68.5 -196q0 -184 -119 -281t-338 -97q-127 0 -226.5 49t-156.5 121z" />
    <glyph glyph-name="gjFour" unicode="&#xaea;" horiz-adv-x="1103" 
d="M166 336q0 105 50.5 195t150.5 190l36 39l-350 356l156 146l344 -351l344 351l154 -146l-351 -356l39 -39q99 -99 149 -189t50 -196q0 -142 -105.5 -242t-279.5 -100t-280.5 100t-106.5 242zM553 193q72 0 116 42t44 105q0 51 -31 109.5t-129 158.5q-99 -99 -129.5 -158
t-30.5 -110q0 -63 43.5 -105t116.5 -42z" />
    <glyph glyph-name="gjFive" unicode="&#xaeb;" horiz-adv-x="1177" 
d="M989 -14q-121 0 -181 74t-60 204v182h-9q-71 -112 -233 -112q-164 0 -255 95.5t-91 258.5v246q0 86 -76 86q-19 0 -64 -10v192q72 29 148 29q101 0 165 -67t64 -191v-232q0 -109 38.5 -153.5t119.5 -44.5q85 0 133.5 46.5t59.5 131.5v508h237v-948q0 -50 22.5 -70.5
t69.5 -20.5h43v-176q-47 -28 -131 -28z" />
    <glyph glyph-name="gjSix" unicode="&#xaec;" horiz-adv-x="1044" 
d="M670 -133v-8h252q39 67 39 139q0 54 -30.5 98t-78.5 73.5t-106.5 54.5t-117.5 46.5t-107 43.5t-78.5 51.5t-30.5 64.5q0 53 47 83t141 30h227v213h-174q-124 0 -190 37t-66 106q0 63 54 96t155 33q72 0 142.5 -15t113.5 -40l92 194q-137 72 -331 72q-232 0 -352.5 -89
t-120.5 -228q0 -106 66.5 -169t158.5 -83v-6q-104 -21 -164.5 -83t-60.5 -159q0 -83 42 -146.5t104.5 -99t136 -65.5t136 -49t104.5 -46.5t42 -60.5q0 -47 -45 -88z" />
    <glyph glyph-name="gjSeven" unicode="&#xaed;" horiz-adv-x="1382" 
d="M66 1165l233 43q3 -443 134.5 -676t346.5 -233q139 0 216 102t77 289q0 161 -62.5 253.5t-152.5 92.5q-62 0 -99.5 -37t-37.5 -102q0 -87 70.5 -133t189.5 -37l-68 -186q-187 -12 -303 91.5t-116 268.5q0 149 100.5 246.5t253.5 97.5q92 0 172.5 -37t141.5 -106
t96.5 -175t35.5 -235q0 -285 -141.5 -448.5t-370.5 -163.5q-330 0 -514.5 284t-201.5 801z" />
    <glyph glyph-name="gjEight" unicode="&#xaee;" horiz-adv-x="1003" 
d="M694 1237l197 -141l-485 -502q-46 -48 -71.5 -91t-25.5 -97q0 -86 69 -141.5t185 -55.5q88 0 171 30t136 74l105 -196q-145 -121 -402 -121q-141 0 -258 50.5t-186.5 145.5t-69.5 216q0 59 15.5 112.5t45 100t56.5 78.5t66 71z" />
    <glyph glyph-name="gjNine" unicode="&#xaef;" horiz-adv-x="1058" 
d="M842 0v213q-58 -10 -103 -10q-174 0 -284.5 106t-110.5 307q0 203 109 306.5t284 103.5q47 0 105 -10v213q-74 12 -117 12q-104 0 -198 -26t-172.5 -78.5t-135.5 -126.5t-89 -175t-32 -219q0 -150 49 -270.5t135 -198t199 -118.5t244 -41q43 0 117 12zM1008 731v-223
h-426v223h426z" />
    <glyph glyph-name="gjAbbreviationsign" unicode="&#xaf0;" horiz-adv-x="849" 
d="M78 612q0 152 97 245t253 93q155 0 249.5 -90t94.5 -244q0 -153 -96.5 -245t-251.5 -92q-156 0 -251 89t-95 244zM274 616q0 -75 41.5 -119t112.5 -44q69 0 107 43t38 116q0 76 -39 120t-110 44q-70 0 -110 -43.5t-40 -116.5z" />
    <glyph glyph-name="gjRupeesign" unicode="&#xaf1;" horiz-adv-x="1918" 
d="M590 53v-8l315 -182l-256 -129l-315 293q-137 8 -220.5 72.5t-86.5 174.5l100 107l217 -152q166 -25 273.5 23t107.5 151q0 138 -205 138q-79 0 -176 -17l-53 205l147 16q217 23 217 168q0 56 -44 91.5t-130 35.5q-73 0 -137 -28t-106 -70l-158 170q149 137 381 137
q200 0 319 -90.5t119 -226.5q0 -98 -48.5 -159.5t-119.5 -88.5v-8q98 -17 169 -85.5t71 -184.5q0 -70 -24 -128.5t-62.5 -97.5t-89 -67.5t-102 -42.5t-103.5 -17zM1147 612q0 152 97 245t253 93q155 0 249.5 -90t94.5 -244q0 -153 -96.5 -245t-251.5 -92q-156 0 -251 89
t-95 244zM1343 616q0 -75 41.5 -119t112.5 -44q69 0 107 43t38 116q0 76 -39 120t-110 44q-70 0 -110 -43.5t-40 -116.5z" />
    <glyph glyph-name="gjZHA" unicode="&#xaf9;" horiz-adv-x="1536" 
d="M1380 352q0 -69 -25.5 -131t-73 -111.5t-123 -78.5t-169.5 -29q-173 0 -278 100t-105 242q0 104 50 188t153 187l61 63l-16 19q-118 136 -178.5 181.5t-122.5 45.5q-54 0 -89.5 -33.5t-35.5 -83.5q0 -59 46 -100.5t142 -44.5v-16l-135 -152q-136 18 -212 104t-76 207
q0 145 103.5 239.5t252.5 94.5q70 0 129.5 -18.5t117 -60t105.5 -89t113 -123.5l12 -14l285 291h274v-23l-422 -428q109 -125 163 -220t54 -206zM602 14q0 -54 -39 -90t-96 -35q-54 0 -90.5 37.5t-36.5 91.5q1 58 38.5 95t92.5 37q58 0 94.5 -38.5t36.5 -97.5zM270 109
q-2 -55 -39.5 -90.5t-93.5 -34.5q-54 0 -91 37.5t-36 91.5q1 58 37.5 94.5t91.5 36.5q57 0 94.5 -38.5t36.5 -96.5zM512 373q0 -54 -38.5 -89.5t-96.5 -35.5q-54 0 -90 38t-35 93q0 57 37.5 94t91.5 35q58 0 94.5 -38t36.5 -97zM995 201q73 0 117.5 46t44.5 111
q0 56 -32 110.5t-117 154.5l-13 -15q-101 -103 -132.5 -157.5t-31.5 -102.5q0 -63 45 -105t119 -42z" />
    <glyph glyph-name="zerowidthnonjoiner" unicode="&#x200c;" horiz-adv-x="0" 
d="M49 -471h-96v2132h96v-2132z" />
    <glyph glyph-name="zerowidthjoiner" unicode="&#x200d;" horiz-adv-x="0" 
d="M262 1214l-67 -67l-148 153v-1771h-96v1771l-141 -149l-68 68l190 190l-194 195l67 67l195 -194l197 194l65 -65l-196 -197z" />
    <glyph glyph-name="endash" unicode="&#x2013;" horiz-adv-x="935" 
d="M932 535h-926v208h926v-208z" />
    <glyph glyph-name="emdash" unicode="&#x2014;" horiz-adv-x="1503" 
d="M1497 535h-1491v208h1491v-208z" />
    <glyph glyph-name="quoteleft" unicode="&#x2018;" horiz-adv-x="542" 
d="M416 1530l80 -119q-191 -83 -191 -207q0 -56 33.5 -90.5t97.5 -60.5v-23q0 -66 -45 -112t-115 -46q-86 0 -138 61.5t-52 160.5q0 149 99 270.5t231 165.5z" />
    <glyph glyph-name="quoteright" unicode="&#x2019;" horiz-adv-x="542" 
d="M129 874l-78 119q191 83 191 207q0 57 -34 92t-99 60v22q0 66 45 112t116 46q86 0 138.5 -61t52.5 -160q0 -149 -100 -271t-232 -166z" />
    <glyph glyph-name="quotedblleft" unicode="&#x201c;" horiz-adv-x="1032" 
d="M416 1530l80 -119q-191 -83 -191 -207q0 -56 33.5 -90.5t97.5 -60.5v-23q0 -66 -45 -112t-115 -46q-86 0 -138 61.5t-52 160.5q0 149 99 270.5t231 165.5zM905 1530l80 -119q-190 -83 -190 -207q0 -56 33.5 -90.5t97.5 -60.5v-23q0 -66 -45 -112t-115 -46
q-87 0 -139 61.5t-52 160.5q0 149 99 270.5t231 165.5z" />
    <glyph glyph-name="quotedblright" unicode="&#x201d;" horiz-adv-x="1032" 
d="M618 874l-79 117q91 39 141.5 92t50.5 115q0 56 -33.5 91.5t-99.5 62.5v22q0 64 46 110t116 46q86 0 137 -60t51 -159q0 -149 -99 -271t-231 -166zM129 874l-78 117q90 39 140.5 92t50.5 115q0 56 -33.5 91.5t-99.5 62.5v22q0 65 45.5 110.5t115.5 45.5q86 0 138.5 -60.5
t52.5 -158.5q0 -149 -100 -271t-232 -166z" />
    <glyph glyph-name="dagger" unicode="&#x2020;" horiz-adv-x="1112" 
d="M424 -336l27 1268l-359 -25v238l359 -23l-29 430h268l-31 -430l361 23v-238l-358 25l26 -1268h-264z" />
    <glyph glyph-name="daggerdbl" unicode="&#x2021;" horiz-adv-x="1114" 
d="M444 928l-350 -21v238l357 -23l-29 430h268l-28 -430l360 23v-238l-352 21l4 -318l-4 -321l350 20v-237l-358 22l30 -430h-268l29 430l-361 -22v237l352 -22l-4 321z" />
    <glyph glyph-name="bullet" unicode="&#x2022;" horiz-adv-x="950" 
d="M203 721q0 113 77 190.5t193 77.5q124 0 199.5 -76.5t75.5 -191.5t-77.5 -192.5t-195.5 -77.5q-122 0 -197 77t-75 193z" />
    <glyph glyph-name="ellipsis" unicode="&#x2026;" horiz-adv-x="1744" 
d="M100 158q0 75 50 125.5t122 50.5q74 0 124 -50.5t50 -125.5q0 -71 -50.5 -120.5t-123.5 -49.5q-72 0 -122 49.5t-50 120.5zM700 158q0 75 49.5 125.5t120.5 50.5q75 0 126 -50.5t51 -125.5q0 -71 -51 -120.5t-126 -49.5q-70 0 -120 50t-50 120zM1298 158q0 75 49.5 125.5
t120.5 50.5q75 0 126 -50.5t51 -125.5q0 -71 -51 -120.5t-126 -49.5q-70 0 -120 50t-50 120z" />
    <glyph glyph-name="guilsinglleft" unicode="&#x2039;" horiz-adv-x="686" 
d="M82 569l377 494l157 -127l-272 -367l272 -364l-157 -125z" />
    <glyph glyph-name="guilsinglright" unicode="&#x203a;" horiz-adv-x="686" 
d="M616 569l-374 494l-160 -127l272 -367l-272 -364l160 -125z" />
    <glyph glyph-name="Euro" unicode="&#x20ac;" horiz-adv-x="1247" 
d="M938 954l-53 -182h-422v-55q0 -50 2 -70h389l-43 -182h-322q56 -266 318 -266q63 0 117 21.5t78 42t57 54.5l137 -186q-130 -149 -414 -149q-243 0 -373.5 124.5t-170.5 358.5h-162v182h145v125h-145v182h166q51 235 192 363.5t373 128.5q264 0 407 -150l-165 -192
q-35 37 -61 59t-81 43t-121 21q-119 0 -198.5 -68.5t-108.5 -204.5h459z" />
    <glyph glyph-name="indianrupee" unicode="&#x20b9;" horiz-adv-x="1071" 
d="M821 20v-20h-297l-321 387l-135 133l51 189q69 -17 136.5 -17.5t127.5 16.5t103 59t59 105h-459v181h449q-50 127 -238 127h-211v180h989l-84 -180h-307v-9q63 -37 98 -118h293l-84 -181h-190q-12 -86 -59 -153.5t-112 -106t-133.5 -57t-131.5 -16.5l-3 -9
q73 -65 166 -172z" />
    <glyph glyph-name="trademark" unicode="&#x2122;" horiz-adv-x="1306" 
d="M1087 1286h-8l-129 -366h-110l-129 370h-9q9 -96 9 -180v-244h-133v570h192l127 -373l123 373h192v-570h-133v228zM16 1321v115h473v-115h-159v-455h-144v455h-170z" />
    <glyph glyph-name="dottedcircle" unicode="&#x25cc;" horiz-adv-x="1333" 
d="M1141 838q0 -38 -25 -62t-63 -24t-63 24t-25 62t25 62t63 24t63 -24t25 -62zM371 252q0 -38 -25 -62t-63 -24t-63 24t-25 62t25 62t63 24t63 -24t25 -62zM571 96q0 -38 -25 -62t-63 -24t-63 24t-25 62t25 62t63 24t63 -24t25 -62zM279 483q0 -38 -25 -62t-64 -24
q-38 0 -63 24t-25 62t25 62t63 24q39 0 64 -24t25 -62zM825 68q0 -38 -25 -62t-63 -24t-63 24t-25 62t25 62t63 24t63 -24t25 -62zM309 731q0 -38 -25 -62t-63 -24t-63 24t-25 62t25 62t63 24t63 -24t25 -62zM1061 162q0 -38 -25 -62t-63 -24t-63 24t-25 62t25 62t63 24
t63 -24t25 -62zM465 934q0 -38 -25 -62t-63 -24t-63 24t-25 62t25 62t63 24t63 -24t25 -62zM1210 358q0 -38 -25 -62t-63 -24t-63 24t-25 62t25 62t63 24t63 -24t25 -62zM705 1020q0 -38 -25 -62t-64 -24q-38 0 -63 24t-25 62t25 62t63 24q39 0 64 -24t25 -62zM1231 604
q0 -38 -25 -62t-63 -24t-63 24t-25 62t25 62t63 24t63 -24t25 -62zM952 989q0 -38 -25 -62t-63 -24t-63 24t-25 62t25 62t63 24t63 -24t25 -62z" />
    <glyph glyph-name="gjK_SSA" horiz-adv-x="1613" 
d="M1110 -201l-250 -59l-121 264q-89 -39 -211 -39q-125 0 -226 41.5t-163.5 127.5t-62.5 204q0 119 71.5 199t196.5 137q-73 37 -120.5 104t-47.5 154q0 141 110.5 229t268.5 88q93 0 169 -27.5t122 -72.5t71 -98t25 -107q0 -74 -33 -140.5t-96 -101.5q25 -6 82 -6
q89 0 178.5 24t136.5 58v451h232v-1229h-232v561q-131 -41 -295 -41q-184 0 -321 45q-143 -47 -210 -99t-67 -132t59.5 -128t164.5 -48q103 0 157 51v162l168 41q37 -27 64.5 -77.5t27.5 -107.5q0 -94 -59 -153zM410 924q0 -64 43.5 -112t103.5 -62q75 21 118.5 67t43.5 111
q0 57 -42 94t-112 37q-71 0 -113 -37.5t-42 -97.5z" />
    <glyph glyph-name="gjJ_NYA" horiz-adv-x="1540" 
d="M1118 961h10v268h240v-1229h-240v662q-64 105 -217 179t-301 74q-92 0 -140 -29.5t-48 -78.5q0 -26 22 -49.5t58 -41.5t82 -39.5t94 -42t94 -49.5t82 -61.5t58 -79t22 -100.5q0 -68 -34 -126t-89.5 -95.5t-121 -61t-134.5 -30.5v-8l326 -216l-252 -120l-330 325
q-67 3 -120.5 21.5t-87 44.5t-55.5 59t-31 64t-9 61l125 117l235 -164q93 -13 168 -3.5t121.5 42.5t46.5 80q0 35 -29 63t-75 49.5t-102 43.5t-112 50t-102 62.5t-75 88t-29 120.5q0 132 117.5 222.5t322.5 90.5q272 0 510 -163z" />
    <glyph glyph-name="ITF" horiz-adv-x="3497" 
d="M301 0v1352h418v-1352h-418zM805 956v396h418v-396h-418zM1309 0v1352h415v-1352h-415zM1810 956v396h418v-396h-418zM2314 0v1352h418v-1352h-418zM2816 956v396h418v-396h-418zM2816 477v395h418v-395h-418z" />
    <glyph glyph-name="gjReph" horiz-adv-x="0" 
d="M2 1583l72 -178q-104 -49 -230 -49q-155 0 -249.5 86t-94.5 225q0 131 91.5 219t246.5 88q72 0 150 -20l-35 -193q-63 13 -100 13q-67 0 -103.5 -31.5t-36.5 -83.5q0 -51 40 -81t102 -30q73 0 147 35z" />
    <glyph glyph-name="gjRAc2" horiz-adv-x="0" 
d="M-483 -389l-262 61l333 332h238l328 -340l-260 -53l-183 254z" />
    <glyph glyph-name="gjK" horiz-adv-x="1169" 
d="M330 664v8q-77 40 -126.5 105t-49.5 149q0 135 123.5 225t332.5 90q253 0 389 -100l-114 -185q-44 32 -125 56t-152 24q-106 0 -159.5 -29.5t-53.5 -84.5q0 -111 236 -199q3 1 69.5 17t96.5 21.5t93 17t119.5 16t114.5 4.5h262v-176h-266q-63 0 -137 -9t-102 -16v-8
q194 -95 194 -262q0 -64 -28 -122.5t-85 -108.5t-156 -79.5t-228 -29.5q-144 0 -258.5 39.5t-180.5 89.5l115 184q60 -46 148.5 -77t187.5 -31q117 0 179 38.5t62 104.5q0 55 -64 100.5t-200 98.5q-180 -55 -465 -115v201z" />
    <glyph glyph-name="gjKH" horiz-adv-x="1140" 
d="M932 1016v-256h461v-211h-461q-8 -167 -107 -261.5t-274 -94.5q-181 0 -283 101t-102 277v361q0 40 -20 63t-58 23q-33 0 -63 -12v196q78 29 147 29q102 0 165.5 -66.5t63.5 -191.5v-391q0 -179 152 -179q145 0 145 179v434h234z" />
    <glyph glyph-name="gjG" horiz-adv-x="966" 
d="M-10 578l211 98q25 -78 81.5 -126t139.5 -48q98 0 158.5 68t60.5 204q0 112 -56 181t-153 69q-80 0 -151 -49l-109 196q115 66 272 66q191 0 316 -125t125 -340t-126.5 -348t-334.5 -133q-161 0 -276 83t-158 204z" />
    <glyph glyph-name="gjGH" horiz-adv-x="866" 
d="M1018 506l145 -152q-120 -131 -262 -196.5t-330 -65.5q-120 0 -218 37t-159 113t-61 180q0 96 55 159.5t138 90.5v8q-89 22 -147 87t-58 165q0 99 57 169.5t145 102t195 31.5q120 0 223 -35l-41 -199q-71 31 -159 31q-76 0 -125 -31.5t-49 -97.5q0 -58 52.5 -94.5
t160.5 -36.5h112v-199h-110q-99 0 -153 -36t-54 -103q0 -64 59 -103.5t162 -39.5q137 1 238 59t184 156z" />
    <glyph glyph-name="gjC" horiz-adv-x="968" 
d="M707 94q-188 0 -322 109.5t-182 279.5q-115 37 -115 162q0 46 20 95t52 85l129 19l45 -156h6q115 0 169 51.5t54 124.5q0 76 -42.5 120t-114.5 44q-88 0 -154 -39l-66 205q92 45 224 45q179 0 284 -102t105 -260q0 -146 -98.5 -259t-274.5 -137q33 -94 99 -135t175 -41
q222 0 357 201l157 -148q-81 -113 -209 -188.5t-298 -75.5z" />
    <glyph glyph-name="gjJ" horiz-adv-x="1312" 
d="M834 952l75 -88q270 97 588 97v-195q-251 0 -453 -61q75 -94 114.5 -177.5t39.5 -175.5q0 -69 -25 -131.5t-72 -111.5t-122.5 -78t-169.5 -29q-87 0 -160.5 28t-121.5 75.5t-74.5 109.5t-26.5 131q0 124 73 231t206 189l-31 35q-118 136 -178.5 181.5t-122.5 45.5
q-55 0 -91 -33.5t-36 -83.5q0 -59 46.5 -100.5t143.5 -44.5v-16l-135 -152q-137 18 -213 104t-76 207q0 145 104 239.5t253 94.5q69 0 129 -18.5t117 -60t105 -88.5t114 -124zM813 201q74 0 119 46t45 111q0 54 -30.5 106.5t-110.5 147.5q-185 -114 -185 -262
q0 -62 45 -105.5t117 -43.5z" />
    <glyph glyph-name="gjNY" horiz-adv-x="1079" 
d="M-10 575l211 101q25 -78 81.5 -126t139.5 -48q99 0 159 68.5t60 203.5q0 112 -56 181t-153 69q-80 0 -151 -49l-109 196q115 66 272 66q169 0 289 -99.5t146 -275.5q65 -10 131 -10q111 0 225 31l14 -224q-88 -30 -215 -30q-94 0 -162 16q-36 -162 -154.5 -258
t-293.5 -96q-161 0 -276 82.5t-158 201.5z" />
    <glyph glyph-name="gjNN" horiz-adv-x="1251" 
d="M1178 39q-179 -113 -416 -113q-121 0 -221 29t-169.5 80t-117 121t-70 151t-22.5 172v750h239v-748q0 -172 94.5 -257t264.5 -85q101 0 186.5 28t140.5 64zM1176 813q0 -181 -115.5 -294t-308.5 -113q-85 0 -162 22v207q62 -23 139 -23q91 0 154 50.5t63 152.5
q0 100 -61.5 154.5t-155.5 54.5q-67 0 -115 -14v207q72 20 150 20q177 0 294.5 -114t117.5 -310z" />
    <glyph glyph-name="gjT" horiz-adv-x="837" 
d="M1012 977v-223h-412q-131 0 -208 -72t-77 -195q0 -136 88.5 -208t221.5 -60v-213q-106 -15 -206.5 11.5t-178.5 87t-125 160t-47 222.5q0 220 142.5 355t360.5 135h441z" />
    <glyph glyph-name="gjTH" horiz-adv-x="940" 
d="M635 324q72 0 136.5 20.5t111 55.5t79 70.5t56.5 74.5l158 -148q-204 -278 -560 -278q-149 0 -269.5 64.5t-193 186t-79.5 281.5q207 36 323.5 77t161.5 89t45 117q0 55 -31.5 87t-85.5 32q-49 0 -80.5 -31.5t-31.5 -77.5q0 -51 26 -90l-208 -43q-46 65 -46 145
q0 118 92.5 203.5t243.5 85.5q161 0 257 -89t96 -216q0 -167 -130.5 -273t-359.5 -147q2 -24 17.5 -54t46.5 -63.5t90 -56t135 -22.5z" />
    <glyph glyph-name="gjDH" horiz-adv-x="860" 
d="M596 293q72 0 135.5 16.5t115 47.5t92 66t79.5 81l143 -152q-119 -131 -261 -197.5t-329 -66.5q-118 0 -216.5 38t-161 116.5t-62.5 183.5q0 94 55.5 159.5t137.5 94.5v8q-85 20 -143 80.5t-58 151.5q0 53 21.5 98t54.5 76t81.5 64t94.5 59t100.5 62.5t93.5 72.5
l127 -162q-43 -46 -107.5 -89.5t-110 -68t-79.5 -59.5t-34 -74q0 -54 49.5 -86.5t154.5 -32.5h127v-200h-123q-98 0 -148 -36t-50 -104q0 -66 60 -106.5t161 -40.5z" />
    <glyph glyph-name="gjN" horiz-adv-x="745" 
d="M369 406l-121 -54q-85 43 -139 132t-54 218l166 121h692v-207h-544v-210z" />
    <glyph glyph-name="gjP" horiz-adv-x="727" 
d="M836 643l147 -154q-73 -94 -180 -147t-281 -53q-167 0 -262.5 102t-95.5 264v277q0 90 -78 90q-30 0 -61 -10v194q73 27 145 27q102 0 166.5 -66.5t64.5 -191.5v-260q0 -215 179 -215q86 0 145.5 34.5t110.5 108.5z" />
    <glyph glyph-name="gjPH" horiz-adv-x="1189" 
d="M907 598v-8q174 -95 174 -252q0 -123 -106 -211.5t-279 -110.5v-8l336 -203l-246 -129l-325 304q-78 1 -141 23.5t-100.5 57t-58 71.5t-22.5 71l97 131l262 -148q147 -9 244.5 36.5t97.5 123.5q0 55 -62 98t-192 93q-97 -33 -480 -117v201l236 43v8q-80 41 -131 106
t-51 148q0 134 123.5 224.5t334.5 90.5q248 0 388 -100l-115 -185q-45 33 -125.5 57.5t-153.5 24.5q-104 0 -156.5 -30.5t-52.5 -85.5q0 -61 61.5 -108.5t176.5 -88.5q297 70 502 70h239v-170h-239q-123 0 -236 -27z" />
    <glyph glyph-name="gjB" horiz-adv-x="1150" 
d="M944 834v-134h422v-204h-422q-4 -186 -112.5 -290t-290.5 -104q-198 0 -323.5 152t-125.5 420q0 256 140 411.5t370 155.5q174 0 281 -80l-127 -178q-64 51 -158 51q-115 0 -187.5 -86t-72.5 -260q0 -83 13 -148.5t33.5 -105.5t49 -66t57.5 -36t60 -10q160 0 160 182v330
h233z" />
    <glyph glyph-name="gjBH" horiz-adv-x="1198" 
d="M332 666q0 -93 30 -174t88.5 -144.5t154 -100t216.5 -36.5q75 0 154 12v-211q-71 -12 -170 -12q-168 0 -304 53t-223.5 144.5t-134.5 212t-47 258.5q0 127 41 234t110 178.5t159.5 111t189.5 39.5q85 0 153 -22.5t109.5 -58t69.5 -82.5t38.5 -91.5t10.5 -89.5v-101h430
v-206h-432v-166h-211q-68 42 -101.5 112t-35.5 154l125 104v99q0 63 -38.5 100t-105.5 37q-112 0 -194 -93t-82 -261z" />
    <glyph glyph-name="gjM" horiz-adv-x="749" 
d="M477 281h-221q-67 47 -106 137.5t-39 177.5l137 100v240q0 90 -90 90q-38 0 -82 -14v194q78 29 164 29q104 0 170.5 -65t66.5 -185v-287h533v-213h-533v-204z" />
    <glyph glyph-name="gjY" horiz-adv-x="856" 
d="M633 330q123 0 208 59t134 146l158 -148q-30 -39 -56.5 -68.5t-75.5 -68.5t-101 -64.5t-129.5 -44t-164.5 -18.5q-227 0 -374.5 153t-153.5 400q136 28 227 59t133 62.5t57 58t15 57.5q0 51 -37.5 80t-107.5 29q-88 0 -164 -39l-70 201q110 47 244 47q170 0 271.5 -86.5
t101.5 -222.5q0 -277 -398 -375q3 -30 18.5 -64t46 -70t87.5 -59.5t131 -23.5z" />
    <glyph glyph-name="gjL" horiz-adv-x="937" 
d="M98 616q0 205 90.5 357t250.5 220t356 32v-211q-199 35 -325 -68t-126 -330q0 -223 125.5 -330.5t327.5 -70.5v-213q-144 -22 -271.5 10t-222.5 110t-150 205.5t-55 288.5zM1178 735v-221h-580v221h580z" />
    <glyph glyph-name="gjV" horiz-adv-x="745" 
d="M881 629l147 -154q-37 -43 -73.5 -75.5t-91 -66t-126 -51.5t-155.5 -18q-221 0 -358.5 130t-137.5 345q0 140 67 249.5t177.5 167.5t242.5 58q63 0 107 -8v-225q-48 10 -88 10q-113 0 -187.5 -69t-74.5 -187q0 -120 72 -190t200 -70q169 0 279 154z" />
    <glyph glyph-name="gjSH" horiz-adv-x="1005" 
d="M528 1245q94 0 171 -31t126.5 -83.5t76 -118.5t26.5 -138q0 -79 -27.5 -148.5t-83.5 -127.5t-151 -94t-220 -43q-4 -28 -4 -45q0 -91 61 -152t175 -61q104 0 190 53l58 -209q-106 -59 -273 -59q-106 0 -192.5 34.5t-141.5 92t-84.5 130.5t-29.5 152q0 24 4 64
q-90 11 -127 20v168h291q149 0 233 62t84 170q0 82 -46 128t-107 46q-55 0 -89 -33t-34 -78q0 -65 63 -94l-141 -102q-71 22 -111.5 76t-40.5 132q0 117 94 203t250 86z" />
    <glyph glyph-name="gjSS" horiz-adv-x="718" 
d="M973 631v-121q-165 -225 -434 -225q-177 0 -276 98t-99 264v285q0 90 -78 90q-24 0 -61 -12v196q70 25 127 25q63 0 115 -25t120 -84zM373 926q24 -58 24 -174v-72q0 -105 52 -154t141 -49q56 0 109 29.5t83 79.5l-403 344z" />
    <glyph glyph-name="gjS" horiz-adv-x="1048" 
d="M285 983l-74 211q109 45 244 45q198 0 311 -104.5t113 -264.5q0 -98 -39 -172q61 -20 151 -20q144 0 275 72l63 -211q-171 -76 -340 -76q-175 0 -305 78q-102 -50 -235 -56q-9 -35 -9 -71q0 -87 61 -149t175 -62q93 0 178 51l55 -211q-104 -55 -258 -55q-102 0 -188 34
t-142 90.5t-87 129t-31 151.5q0 49 10 101q-82 10 -135 26v174h332q113 0 168 45.5t55 124.5q0 72 -47 114t-135 42t-166 -37z" />
    <glyph glyph-name="gjLL" horiz-adv-x="1107" 
d="M1325 1167l-119 -190q-58 51 -131 51q-82 0 -124 -50.5t-42 -141.5q0 -48 13.5 -139.5t13.5 -147.5q0 -174 -108.5 -289t-292.5 -115q-201 0 -324 133.5t-123 370.5q0 186 83.5 346.5t205.5 249.5l172 -153q-219 -175 -219 -439q0 -155 57 -227t145 -72q79 0 124.5 55
t45.5 158q0 47 -15 136t-15 149q0 168 108 279.5t293 111.5q150 0 252 -76z" />
    <glyph glyph-name="gjK_SS" horiz-adv-x="1110" 
d="M1354 815v-237q-183 -68 -375 -68q-206 0 -385 55q-143 -47 -210 -99t-67 -132t59.5 -128t164.5 -48q103 0 157 51v162l168 41q37 -27 64.5 -77.5t27.5 -107.5q0 -94 -59 -153l211 -275l-250 -59l-121 264q-89 -39 -211 -39q-125 0 -226 41.5t-163.5 127.5t-62.5 204
q0 119 71.5 199t196.5 137q-73 37 -120.5 104t-47.5 154q0 141 110.5 229t268.5 88q93 0 169 -27.5t122 -72.5t71 -98t25 -107q0 -74 -33 -140.5t-96 -101.5q25 -6 100 -6q273 3 441 119zM410 924q0 -64 43.5 -112t103.5 -62q75 21 118.5 67t43.5 111q0 57 -42 94t-112 37
q-71 0 -113 -37.5t-42 -97.5z" />
    <glyph glyph-name="gjJ_NY" horiz-adv-x="1013" 
d="M1247 905l-123 -157q-102 76 -231.5 121.5t-261.5 45.5q-110 0 -159.5 -29.5t-49.5 -78.5q0 -26 22 -49.5t58 -41.5t82 -39.5t94 -42t94 -49.5t82 -61.5t58 -79t22 -100.5q0 -68 -34 -126t-89.5 -95.5t-121 -61t-134.5 -30.5v-8l326 -216l-252 -120l-330 325
q-67 3 -120.5 21.5t-87 44.5t-55.5 59t-31 64t-9 61l125 117l235 -164q93 -13 168 -3.5t121.5 42.5t46.5 80q0 34 -29 62t-75 49.5t-102 43.5t-112 50.5t-102 63t-75 88t-29 120.5q0 133 121 222t340 89q106 0 211 -22.5t183.5 -58t135 -70t88.5 -66.5z" />
    <glyph glyph-name="gjK_RA" horiz-adv-x="1191" 
d="M102 633l228 39v8q-77 37 -126.5 100t-49.5 146q0 135 123.5 225t332.5 90q253 0 389 -100l-114 -185q-44 32 -125 56t-152 24q-106 0 -159.5 -29.5t-53.5 -84.5q0 -111 236 -199q197 69 471 133v-201l-219 -45v-8q89 -42 140.5 -111.5t51.5 -162.5q0 -64 -28 -122.5
t-85 -108.5t-156 -79.5t-228 -29.5q-144 0 -258.5 39.5t-180.5 89.5l111 176q59 -46 149 -79.5t183 -33.5q141 0 204.5 45.5t63.5 112.5q0 98 -137 158l-183 -197l-198 76l237 209l-4 6q-64 -29 -103.5 -45.5t-137.5 -48t-222 -62.5v199z" />
    <glyph glyph-name="gjKH_RA" horiz-adv-x="1640" 
d="M932 1016v-219h303v432h231v-1229h-237v248h-8l-408 -344l-225 131l663 491v70h-325q-21 -144 -117.5 -224.5t-257.5 -80.5q-180 0 -282.5 102.5t-102.5 278.5v260q0 40 -20 63t-58 23q-33 0 -63 -12v196q78 29 147 29q102 0 165.5 -66.5t63.5 -191.5v-291
q0 -86 35.5 -132t116.5 -46q145 0 145 178v334h234z" />
    <glyph glyph-name="gjG_RA" horiz-adv-x="1495" 
d="M1090 0l6 272h-9l-487 -301l-231 146l714 401v711h240v-1229h-233zM-10 580l170 151q71 -133 219 -133q101 0 155 58t54 169q0 94 -54.5 148.5t-148.5 54.5q-71 0 -139 -35l-84 199q92 45 239 45q197 0 316 -114.5t119 -303.5q0 -190 -122 -309t-327 -119q-145 0 -245 53
t-152 136z" />
    <glyph glyph-name="gjGH_RA" horiz-adv-x="1392" 
d="M981 217h-8l-621 -369l-200 160l309 127v10q-134 6 -229 82t-95 205q0 93 54.5 153.5t138.5 86.5v8q-88 22 -146.5 87t-58.5 165q0 99 57 169.5t145 102t195 31.5q119 0 226 -35l-43 -199q-71 31 -160 31q-76 0 -125 -31.5t-49 -97.5q0 -58 52.5 -94.5t160.5 -36.5h112
v-199h-110q-99 0 -153 -36t-54 -103q0 -65 62 -105t169 -40q117 0 219.5 51t151.5 117v772h240v-1229h-240v217z" />
    <glyph glyph-name="gjC_RA" horiz-adv-x="1482" 
d="M1073 213l-655 -340l-195 162l307 110v9q-126 29 -208 108t-121 221q-113 37 -113 162q0 46 20 95t52 85l129 19l45 -156h6q115 0 169 51.5t54 124.5q0 76 -42.5 120t-114.5 44q-88 0 -154 -39l-66 205q92 45 224 45q179 0 284 -102t105 -260q0 -146 -98.5 -259
t-274.5 -137q33 -91 100 -132.5t174 -41.5q238 0 373 164v758h238v-1229h-238v213z" />
    <glyph glyph-name="gjJ_RA" horiz-adv-x="1345" 
d="M193 850l-213 59q19 145 121.5 239.5t252.5 94.5q91 0 173.5 -37.5t148.5 -96.5t149 -157l13 -14l284 291h275v-23l-422 -428q109 -125 163 -220t54 -206q0 -69 -25.5 -131t-73 -111.5t-123 -78.5t-169.5 -29q-173 0 -278 100t-105 242q0 104 50 188t153 187l65 67
l-12 15q-54 62 -72 80l-252 -269l-184 88l311 297q-58 39 -115 39q-78 0 -121 -58.5t-48 -127.5zM807 201q73 0 117.5 46t44.5 111q0 55 -32 109.5t-118 155.5l-12 -15q-101 -103 -132.5 -157.5t-31.5 -102.5q0 -63 45 -105t119 -42z" />
    <glyph glyph-name="gjJH_RA" horiz-adv-x="1630" 
d="M1047 -6q-73 0 -147.5 21.5t-125.5 50.5l70 194q92 -55 200 -55q112 0 190.5 73t78.5 205q0 88 -43 156l-211 -266l-174 53l278 305q-55 25 -114 25q-105 0 -218 -70q-19 -188 -142 -300t-316 -112q-121 0 -216.5 52.5t-154.5 138.5l160 131q81 -113 209 -113
q97 0 160 71t63 198q0 125 -58.5 198.5t-154.5 73.5q-79 0 -154 -45l-106 192q128 66 272 66q153 0 266.5 -85t153.5 -241q119 52 242 52h22l148 266h258l-191 -322q118 -60 188 -173.5t70 -258.5q0 -219 -141 -350t-362 -131z" />
    <glyph glyph-name="gjNY_RA" horiz-adv-x="1525" 
d="M-10 575l211 101q25 -78 81.5 -126t139.5 -48q99 0 159 68.5t60 203.5q0 112 -56 181t-153 69q-80 0 -151 -49l-109 196q115 66 272 66q168 0 288 -99.5t147 -275.5q62 -8 110 -8q69 0 123 14v361h242v-1229h-242v182l-434 -313l-260 119l694 418v239q-50 -12 -117 -12
q-65 0 -123 12q-36 -162 -154.5 -258t-293.5 -96q-161 0 -276 82.5t-158 201.5z" />
    <glyph glyph-name="gjNN_RA" horiz-adv-x="1751" 
d="M760 139l2 -213q-121 0 -221 29t-169.5 80t-117 121t-70 151t-22.5 172v750h239v-748q0 -172 94.5 -257t264.5 -85zM1176 813q0 -181 -115.5 -294t-308.5 -113q-85 0 -162 22v207q62 -23 139 -23q91 0 154 50.5t63 152.5q0 100 -61.5 154.5t-155.5 54.5q-67 0 -115 -14
v207q72 20 150 20q177 0 294.5 -114t117.5 -310zM1579 0h-238v293l-305 -295l-207 123l512 428v680h238v-1229z" />
    <glyph glyph-name="gjT_RA" horiz-adv-x="1269" 
d="M862 707v522h236v-1229h-240v465l-590 -385l-168 166l531 332q-58 136 -123.5 204t-151.5 68q-110 0 -182 -109l-186 150q18 29 45.5 57.5t70.5 59.5t105.5 50t134.5 19q158 0 278 -103t197 -292z" />
    <glyph glyph-name="gjTH_RA" horiz-adv-x="1419" 
d="M492 162v12q-179 19 -291.5 149.5t-118.5 327.5q206 36 322.5 77t162 89t45.5 117q0 55 -31 87t-85 32q-49 0 -82 -31.5t-33 -77.5q0 -50 27 -90l-207 -43q-45 60 -45 145q0 118 92 203.5t244 85.5q160 0 256 -89t96 -216q0 -168 -131 -273.5t-361 -146.5q2 -18 11.5 -41
t32.5 -51t54.5 -50.5t83.5 -38t115 -15.5q74 0 139 22t108.5 57.5t71.5 71t42 70.5v684h237v-1229h-233v252l-658 -406l-198 166z" />
    <glyph glyph-name="gjD_RA" horiz-adv-x="1232" 
d="M610 406q109 0 162 47v194l162 60q55 -23 98 -76.5t43 -130.5q0 -109 -82 -187l238 -299l-275 -69l-135 272l-497 -350l-209 170l356 180v10q-66 9 -130 39.5t-119 81t-88.5 127.5t-33.5 168q0 141 94 228t287 141l205 57q78 20 78 82q0 38 -25 78h234q33 -56 33 -117
q0 -169 -203 -229l-180 -49q-156 -45 -218.5 -91.5t-62.5 -124.5q0 -88 73 -150t195 -62z" />
    <glyph glyph-name="gjDH_RA" horiz-adv-x="1382" 
d="M971 500v729h239v-1229h-239v215h-10l-558 -399l-219 141l299 154v10q-151 2 -251.5 84t-100.5 221q0 94 55.5 159.5t137.5 94.5v8q-86 20 -144.5 80.5t-58.5 151.5q0 63 28.5 113t79 89t104.5 70.5t122 74.5t114 85l127 -162q-37 -38 -86.5 -73.5t-90 -59t-77 -47.5
t-57 -51.5t-20.5 -59.5q0 -119 204 -119h125v-200h-121q-99 0 -149.5 -36t-50.5 -104q0 -66 61.5 -104.5t165.5 -38.5q117 0 222 57t149 146z" />
    <glyph glyph-name="gjN_RA" horiz-adv-x="1167" 
d="M369 406l-121 -54q-85 43 -139 132t-54 218l166 121h535v406h239v-1229h-225v242l-397 -299l-254 120l637 398v155h-387v-210z" />
    <glyph glyph-name="gjP_RA" horiz-adv-x="1214" 
d="M170 932q0 90 -78 90q-30 0 -61 -10v194q73 27 145 27q102 0 167 -66.5t65 -191.5v-221q0 -211 178 -211q95 0 157 61t62 168v457h237v-1229h-237v414h-8l-484 -447l-256 135l398 291v8q-53 -2 -102 14.5t-91 50.5t-67 93.5t-25 136.5v236z" />
    <glyph glyph-name="gjPH_RA" horiz-adv-x="1216" 
d="M864 348q0 81 -119 133l-196 -190l-180 96l239 176l-4 6q-63 -27 -453 -122q-30 -7 -45 -11v199l236 39v8q-81 37 -130.5 100t-49.5 144q0 134 124 224.5t335 90.5q247 0 387 -100l-115 -185q-45 32 -126 57t-153 25q-104 0 -157.5 -30.5t-53.5 -85.5q0 -58 63 -107
t171 -86q303 89 477 129v-203l-217 -41v-8q186 -105 186 -268q0 -123 -106 -211.5t-279 -110.5v-8l336 -203l-246 -129l-325 304q-78 1 -141 23.5t-100.5 57t-58 71.5t-22.5 71l97 125l274 -154q143 -12 247.5 38.5t104.5 135.5z" />
    <glyph glyph-name="gjB_RA" horiz-adv-x="1644" 
d="M1243 0v172l-450 -324l-242 121l678 418v115h-307q-40 -131 -143.5 -204t-246.5 -73q-194 0 -318 131t-124 361q0 234 140.5 379t369.5 145q174 0 281 -80l-127 -178q-64 51 -158 51q-114 0 -186 -78t-72 -231q0 -79 17.5 -136.5t48 -87.5t63.5 -43.5t70 -13.5
q77 0 125.5 55t48.5 152v183h231v-127h287v522h241v-1229h-227z" />
    <glyph glyph-name="gjBH_RA" horiz-adv-x="1640" 
d="M627 262l-140 -176q-174 68 -282.5 227t-108.5 379q0 234 136.5 386.5t336.5 152.5q76 0 138 -20.5t101.5 -53.5t66 -77.5t38 -90.5t11.5 -94v-102h311v436h233v-1229h-219v313h-8l-367 -315l-204 123l598 467v8h-346v-154h-207q-61 39 -93 108t-34 146l117 95v86
q0 65 -33 101t-97 36q-101 0 -173 -88.5t-72 -235.5t71.5 -258t225.5 -170z" />
    <glyph glyph-name="gjM_RA" horiz-adv-x="1253" 
d="M842 295l-492 -389l-196 153l733 494v8h-410v-168h-221q-56 43 -89.5 114t-33.5 150l115 93v186q0 90 -90 90q-38 0 -82 -14v194q78 29 164 29q104 0 170.5 -65t66.5 -185v-223h373v467h231v-1229h-231v295h-8z" />
    <glyph glyph-name="gjY_RA" horiz-adv-x="1372" 
d="M629 332q109 0 201 48.5t135 127.5v721h237v-1229h-233v240l-643 -363l-201 158l321 137v10q-151 26 -254.5 155.5t-109.5 338.5q110 23 191 48.5t126.5 48.5t72 49t34.5 46.5t8 44.5q0 51 -37.5 80t-105.5 29q-90 0 -166 -39l-68 201q106 47 242 47q170 0 271.5 -86.5
t101.5 -222.5q0 -277 -398 -375q10 -80 84.5 -147.5t190.5 -67.5z" />
    <glyph glyph-name="gjL_RA" horiz-adv-x="1429" 
d="M98 616q0 205 90.5 357t250.5 220t356 32v-211q-199 35 -325 -68t-126 -330q0 -109 31.5 -191t84.5 -127.5t116.5 -66.5t134.5 -16v-213q-95 -5 -184 15t-167 68.5t-136.5 120t-92 177t-33.5 233.5zM598 561v215h420v453h239v-1229h-239v334l-209 -172l-170 149l379 226
v24h-420z" />
    <glyph glyph-name="gjV_RA" horiz-adv-x="1296" 
d="M451 301v8q-57 7 -116.5 36.5t-115 80.5t-90.5 133.5t-35 181.5q0 139 67.5 248.5t178 167t242.5 57.5q62 0 106 -8v-225q-48 10 -88 10q-112 0 -187 -68.5t-75 -185.5q0 -119 74.5 -191.5t201.5 -72.5q94 0 166.5 38t104.5 93v625h237v-1229h-237v332h-8l-539 -328
l-244 137z" />
    <glyph glyph-name="gjSH_RA" horiz-adv-x="1472" 
d="M135 412l-155 174q164 29 348 88q-146 112 -146 274q0 121 95.5 209t252.5 88q156 0 256.5 -85.5t100.5 -223.5q0 -198 -191 -301q56 -37 152 -82t178 -72l43 21v727h231v-1229h-231v272h-8l-486 -276l-200 154l442 223q-69 26 -160.5 75.5t-142.5 86.5
q-146 -66 -379 -123zM401 936q0 -108 117 -182q144 63 144 182q0 60 -36.5 95.5t-93.5 35.5t-94 -37.5t-37 -93.5z" />
    <glyph glyph-name="gjSS_RA" horiz-adv-x="1214" 
d="M170 932q0 90 -78 90q-30 0 -61 -10v194q73 27 145 27q113 0 174 -76l455 -377v449h237v-1229h-237v414h-8l-484 -447l-256 135l398 291v8q-53 -2 -102 14.5t-91 50.5t-67 93.5t-25 136.5v236zM586 543q118 0 178 88l-356 299v-176q0 -211 178 -211z" />
    <glyph glyph-name="gjS_RA" horiz-adv-x="1660" 
d="M285 983l-74 211q109 45 244 45q198 0 311 -104.5t113 -264.5q0 -55 -17 -118q73 -17 131 -17q152 0 256 68v426h240v-1229h-240l8 330h-8l-248 -164l-182 151l486 258l-13 25q-115 -59 -274 -59q-134 0 -264 47q-115 -94 -305 -103q-9 -35 -9 -71q0 -87 61 -149t175 -62
q66 0 141 30l45 -210q-87 -35 -211 -35q-102 0 -188 34t-142 90.5t-87 129t-31 151.5q0 49 10 101q-82 10 -135 26v174h332q113 0 168 45.5t55 124.5q0 72 -47 114t-135 42t-166 -37z" />
    <glyph glyph-name="gjH_RA" horiz-adv-x="1234" 
d="M977 -256q-72 -10 -146 -10q-206 0 -369 71t-256 202.5t-93 301.5q0 134 57 237.5t154 160.5v8q-77 32 -122.5 99.5t-45.5 146.5q0 41 12 78.5t44 76.5t82 67t133 46t189 18q115 0 238 -20t201 -49l-49 -201q-187 59 -383 59q-215 0 -215 -110q0 -38 32.5 -77t96.5 -63
q65 9 125 9q213 0 348 -111.5t135 -290.5l2 -266h-207v254l-266 -219l-152 137l148 104q100 77 223 123q-37 35 -98 55.5t-131 20.5q-128 0 -219 -78.5t-91 -212.5q0 -174 136.5 -276.5t353.5 -102.5q81 0 168 17z" />
    <glyph glyph-name="gjLL_RA" horiz-adv-x="1648" 
d="M1477 0h-238v199l-436 -316l-258 119l694 418v405q0 97 -43.5 150t-120.5 53q-82 0 -124 -50.5t-42 -141.5q0 -47 9.5 -122t9.5 -132q0 -172 -103.5 -275.5t-289.5 -103.5q-201 0 -324 133.5t-123 370.5q0 164 82.5 305.5t206.5 232.5l172 -153q-106 -85 -162.5 -177
t-56.5 -204q0 -155 57 -227t145 -72q81 0 121.5 43.5t40.5 144.5q0 48 -11 120.5t-11 131.5q0 168 108 279.5t293 111.5q189 0 296.5 -112t107.5 -287v-844z" />
    <glyph glyph-name="gjK_SS_RA" horiz-adv-x="1685" 
d="M1008 -201l-250 -59l-121 264q-89 -39 -197 -39q-71 0 -135.5 24.5t-116 70t-82 118t-30.5 160.5q0 119 71.5 199t196.5 137q-73 37 -120.5 104t-47.5 154q0 141 110.5 229t268.5 88q93 0 169 -27.5t122 -72.5t71 -98t25 -107q0 -74 -33 -140.5t-96 -101.5
q11 -3 31.5 -4.5t35.5 -1.5h15q68 0 203.5 23t183.5 59v451h231v-1229h-231v158l-203 -201l-207 123l410 344v137q-44 -17 -131.5 -27t-142.5 -12t-93 -2q-50 0 -156 13t-165 32q-143 -47 -210 -99t-67 -132q0 -78 43.5 -127t106.5 -49q75 0 129 51v162l168 41
q37 -27 64.5 -77.5t27.5 -107.5q0 -94 -59 -153zM410 924q0 -64 43.5 -112t103.5 -62q75 21 118.5 67t43.5 111q0 57 -42 94t-112 37q-71 0 -113 -37.5t-42 -97.5z" />
    <glyph glyph-name="gjJ_NY_RA" horiz-adv-x="1611" 
d="M1190 961h10v268h240v-1229h-240v209l-209 -299l-207 123l416 461v168q-137 112 -293.5 182.5t-296.5 70.5q-92 0 -140 -29.5t-48 -78.5q0 -33 31 -63.5t77 -53.5t100 -55.5t100 -68t77 -93.5t31 -129q0 -140 -73.5 -219.5t-209.5 -93.5v-8l326 -216l-252 -120l-330 325
q-67 3 -120.5 21.5t-87 44.5t-55.5 59t-31 64t-9 61l125 117l235 -164q130 -21 185 10.5t55 108.5q0 35 -23.5 63t-61.5 49.5t-83.5 43.5t-91 50t-83.5 62.5t-61.5 88t-23.5 120.5q0 132 117.5 222.5t322.5 90.5q87 0 173.5 -18t141.5 -38.5t138.5 -55.5t128.5 -51z" />
    <glyph glyph-name="gjK_R" horiz-adv-x="1153" 
d="M627 723q84 27 135.5 41t152.5 29.5t207 15.5h262v-172h-266q-65 0 -140 -9.5t-99 -17.5v-8q88 -42 139 -111.5t51 -162.5q0 -51 -17 -98.5t-55.5 -92t-95 -77.5t-141.5 -52.5t-189 -19.5q-144 0 -258 39.5t-180 89.5l111 176q59 -46 149.5 -79.5t184.5 -33.5
q139 0 203.5 45.5t64.5 112.5q0 97 -139 158l-183 -197l-198 76l239 209l-6 6q-59 -28 -101.5 -45.5t-140 -48.5t-221.5 -62v199l228 39v8q-77 37 -127 100.5t-50 145.5q0 135 124 225t335 90q249 0 389 -100l-116 -185q-44 32 -124 56t-151 24q-213 0 -213 -114
q0 -112 236 -199z" />
    <glyph glyph-name="gjKH_R" horiz-adv-x="1134" 
d="M932 1016v-219h422v-201h-428q-21 -144 -117.5 -224.5t-257.5 -80.5q-180 0 -282.5 102.5t-102.5 278.5v260q0 40 -20 63t-58 23q-33 0 -63 -12v196q78 29 147 29q102 0 165.5 -66.5t63.5 -191.5v-291q0 -86 35.5 -132t116.5 -46q145 0 145 178v334h234zM1354 582v-242
l-541 -440l-225 131z" />
    <glyph glyph-name="gjG_R" horiz-adv-x="1028" 
d="M33 580l172 151q71 -133 219 -133q100 0 154.5 58t54.5 169q0 94 -54.5 148.5t-148.5 54.5q-73 0 -141 -35l-82 199q88 45 239 45q196 0 314.5 -114.5t118.5 -303.5q0 -190 -121.5 -309t-325.5 -119q-145 0 -246 53t-153 136zM1237 582v-242l-600 -367l-231 146z" />
    <glyph glyph-name="gjGH_R" horiz-adv-x="862" 
d="M1028 487l86 -188l-766 -451l-201 160l310 127v10q-134 6 -229 82t-95 205q0 93 54.5 153.5t138.5 86.5v8q-89 22 -147 87t-58 165q0 99 57 169.5t145 102t195 31.5q120 0 223 -35l-41 -199q-71 31 -159 31q-76 0 -125 -31.5t-49 -97.5q0 -58 52.5 -94.5t160.5 -36.5h112
v-199h-110q-99 0 -153 -36t-54 -103q0 -65 62 -105t169 -40q93 0 183.5 36t143.5 76.5t95 85.5z" />
    <glyph glyph-name="gjC_R" horiz-adv-x="909" 
d="M418 -127l-195 162l307 110v9q-126 29 -208 108t-121 221q-113 37 -113 162q0 46 20 95t52 85l129 19l45 -156h6q115 0 169 51.5t54 124.5q0 76 -42.5 120t-114.5 44q-88 0 -154 -39l-66 205q92 45 224 45q179 0 284 -102t105 -260q0 -146 -98.5 -259t-274.5 -137
q33 -91 100 -132.5t174 -41.5q235 0 430 168l91 -188z" />
    <glyph glyph-name="gjJ_R" horiz-adv-x="1333" 
d="M811 2q-87 0 -160.5 28t-121.5 75.5t-74.5 109.5t-26.5 131q0 125 74.5 232.5t208.5 189.5l-27 33q-54 62 -72 80l-252 -269l-184 88l311 297q-58 39 -114 39q-78 0 -121.5 -58.5t-48.5 -127.5l-215 59q21 145 123.5 239.5t253.5 94.5q91 0 173.5 -37.5t148.5 -96.5
t149 -157l75 -88q270 97 588 97v-197q-248 0 -450 -62q75 -94 114 -176.5t39 -173.5q0 -69 -25.5 -131t-73 -111.5t-123 -78.5t-169.5 -29zM817 201q73 0 117.5 46t44.5 111q0 54 -30.5 106t-110.5 148q-185 -114 -185 -262q0 -63 45.5 -106t118.5 -43z" />
    <glyph glyph-name="gjNY_R" horiz-adv-x="1079" 
d="M1241 276l-563 -407l-260 119l715 430zM-10 575l211 101q25 -78 81.5 -126t139.5 -48q99 0 159 68.5t60 203.5q0 112 -56 181t-153 69q-80 0 -151 -49l-109 196q115 66 272 66q169 0 289 -99.5t146 -275.5q65 -10 131 -10q111 0 225 31l14 -224q-88 -30 -215 -30
q-94 0 -162 16q-36 -162 -154.5 -258t-293.5 -96q-161 0 -276 82.5t-158 201.5z" />
    <glyph glyph-name="gjNN_R" horiz-adv-x="1251" 
d="M760 139l2 -213q-121 0 -221 29t-169.5 80t-117 121t-70 151t-22.5 172v750h239v-748q0 -172 94.5 -257t264.5 -85zM1176 813q0 -181 -115.5 -294t-308.5 -113q-85 0 -162 22v207q62 -23 139 -23q91 0 154 50.5t63 152.5q0 100 -61.5 154.5t-155.5 54.5q-67 0 -115 -14
v207q72 20 150 20q177 0 294.5 -114t117.5 -310zM1389 588l-27 -275l-326 -315l-207 123z" />
    <glyph glyph-name="gjT_R" horiz-adv-x="821" 
d="M1030 801v-240l-737 -481l-168 166l530 332q-58 136 -123 204t-151 68q-110 0 -182 -109l-187 150q18 29 45.5 57.5t71 59.5t106 50t134.5 19q159 0 278.5 -102.5t196.5 -292.5z" />
    <glyph glyph-name="gjTH_R" horiz-adv-x="925" 
d="M1108 610v-293l-758 -471l-200 166l335 150v12q-180 19 -291.5 149t-119.5 328q207 36 323.5 77t161.5 89t45 117q0 55 -31.5 87t-85.5 32q-49 0 -80.5 -31.5t-31.5 -77.5q0 -51 26 -90l-208 -43q-46 65 -46 145q0 118 92.5 203.5t243.5 85.5q161 0 257 -89t96 -216
q0 -167 -130.5 -273t-359.5 -147q2 -23 18 -53.5t48 -64t92 -56t137 -22.5q103 0 203.5 47t166.5 110.5t97 128.5z" />
    <glyph glyph-name="gjDH_R" horiz-adv-x="845" 
d="M1075 571v-270l-669 -485l-220 141l299 154v10q-153 2 -253.5 84t-100.5 221q0 94 55.5 159.5t137.5 94.5v8q-85 20 -143 80.5t-58 151.5q0 53 21.5 98t54.5 76t81.5 64t94.5 59t100.5 62.5t93.5 72.5l127 -162q-43 -46 -107.5 -89.5t-110 -68t-79.5 -59.5t-34 -74
q0 -54 49.5 -86.5t154.5 -32.5h127v-200h-123q-98 0 -148 -36t-50 -104q0 -66 61 -104.5t164 -38.5q124 0 247.5 70t227.5 204z" />
    <glyph glyph-name="gjN_R" horiz-adv-x="630" 
d="M842 518l112 -139l-581 -436l-254 120zM369 406l-121 -54q-85 43 -139 132t-54 218l166 121h692v-207h-544v-210z" />
    <glyph glyph-name="gjP_R" horiz-adv-x="724" 
d="M870 449l-536 -482l-254 135l395 291v8q-52 -2 -101 14.5t-91 50.5t-67.5 93.5t-25.5 136.5v236q0 90 -75 90q-30 0 -64 -10v194q76 27 148 27q100 0 164.5 -66.5t64.5 -191.5v-221q0 -211 180 -211q49 0 89.5 17t69 49t41.5 52t30 52l145 -144q-5 -10 -40.5 -49
t-72.5 -71z" />
    <glyph glyph-name="gjPH_R" horiz-adv-x="1163" 
d="M864 348q0 81 -119 133l-196 -190l-180 96l239 176l-4 6q-63 -27 -453 -122q-30 -7 -45 -11v199l236 39v8q-81 37 -130.5 100t-49.5 144q0 134 124 224.5t335 90.5q247 0 387 -100l-115 -185q-45 32 -126 57t-153 25q-104 0 -157.5 -30.5t-53.5 -85.5q0 -58 63 -107
t171 -86q80 25 135 39.5t153.5 28.5t204.5 14h238v-172h-238q-63 0 -133.5 -9t-99.5 -16v-8q186 -105 186 -268q0 -123 -106 -211.5t-279 -110.5v-8l336 -203l-246 -129l-325 304q-78 1 -141 23.5t-100.5 57t-58 71.5t-22.5 71l97 125l274 -154q143 -12 247.5 38.5
t104.5 135.5z" />
    <glyph glyph-name="gjB_R" horiz-adv-x="1153" 
d="M1372 502h-450q-40 -131 -143.5 -204t-246.5 -73q-194 0 -318 131t-124 361q0 234 140.5 379t369.5 145q174 0 281 -80l-127 -178q-64 51 -158 51q-114 0 -186 -78t-72 -231q0 -79 17.5 -136.5t48 -87.5t63.5 -43.5t70 -13.5q77 0 125.5 55t48.5 152v183h231v-127h430
v-205zM1505 365l-712 -517l-242 121l838 518z" />
    <glyph glyph-name="gjBH_R" horiz-adv-x="1210" 
d="M674 258l-135 -172q-174 68 -285 226.5t-111 375.5q0 235 136.5 389t336.5 154q76 0 138 -20.5t101.5 -53.5t66 -77.5t38 -90.5t11.5 -94v-102h430v-387l-477 -408l-207 123l612 475h-360v-154h-207q-61 39 -93 108t-34 146l117 95v86q0 65 -32.5 101t-96.5 36
q-100 0 -173 -90.5t-73 -237.5q0 -92 28.5 -171t96.5 -148.5t172 -108.5z" />
    <glyph glyph-name="gjM_R" horiz-adv-x="770" 
d="M350 -94l-196 153l753 502h-430v-168h-221q-56 43 -89.5 114t-33.5 150l115 93v186q0 90 -90 90q-38 0 -82 -14v194q78 29 164 29q105 0 171 -65t66 -185v-223h494v-395z" />
    <glyph glyph-name="gjY_R" horiz-adv-x="839" 
d="M1016 545l92 -217l-786 -451l-201 158l321 137v10q-151 26 -254.5 155.5t-109.5 338.5q110 23 191 48.5t126.5 48.5t72 49t34.5 46.5t8 44.5q0 51 -37.5 80t-107.5 29q-88 0 -164 -39l-70 201q110 47 244 47q170 0 271.5 -86.5t101.5 -222.5q0 -277 -398 -375
q8 -80 83 -147.5t192 -67.5q69 0 133.5 20t113 53.5t83.5 67.5t61 72z" />
    <glyph glyph-name="gjL_R" horiz-adv-x="937" 
d="M98 616q0 205 90.5 357t250.5 220t356 32v-211q-199 35 -325 -68t-126 -330q0 -109 31.5 -191t84.5 -127.5t116.5 -66.5t134.5 -16v-213q-95 -5 -184 15t-167 68.5t-136.5 120t-92 177t-33.5 233.5zM598 561v215h580v-301l-369 -313l-170 149l418 250h-459z" />
    <glyph glyph-name="gjV_R" horiz-adv-x="778" 
d="M940 639l90 -207l-700 -428l-244 137l356 160v8q-57 7 -116.5 36.5t-114.5 80.5t-90 133.5t-35 181.5q0 140 67 249t177.5 166.5t242.5 57.5q63 0 107 -8v-225q-48 10 -88 10q-113 0 -187.5 -68t-74.5 -186q0 -119 74.5 -191.5t201.5 -72.5q105 0 191 45t143 121z" />
    <glyph glyph-name="gjSH_R" horiz-adv-x="864" 
d="M135 412l-155 174q164 29 348 88q-146 112 -146 274q0 121 95.5 209t252.5 88q156 0 256.5 -85.5t100.5 -223.5q0 -198 -191 -301q56 -37 152 -82t178 -72l43 21l-8 -230l-486 -276l-200 154l442 223q-69 26 -160.5 75.5t-142.5 86.5q-146 -66 -379 -123zM401 936
q0 -108 117 -182q144 63 144 182q0 60 -36.5 95.5t-93.5 35.5t-94 -37.5t-37 -93.5z" />
    <glyph glyph-name="gjSS_R" horiz-adv-x="724" 
d="M870 449l-536 -482l-254 135l395 291v8q-52 -2 -101 14.5t-91 50.5t-67.5 93.5t-25.5 136.5v236q0 90 -75 90q-30 0 -64 -10v194q76 27 148 27q137 0 198 -113l596 -495l-28 -37l18 -19q-5 -10 -40.5 -49t-72.5 -71zM608 543q103 0 172 80l-352 290v-159q0 -211 180 -211
z" />
    <glyph glyph-name="gjS_R" horiz-adv-x="1095" 
d="M285 983l-74 211q109 45 244 45q198 0 311 -104.5t113 -264.5q0 -54 -17 -120q73 -15 125 -15q84 0 158 13.5t109.5 27t84.5 35.5l99 -299q-32 -45 -94.5 -101.5t-129.5 -101.5l-217 -143l-182 151l483 256l-10 25q-121 -57 -274 -57q-127 0 -258 49q-114 -96 -307 -105
q-9 -35 -9 -71q0 -87 61 -149t175 -62q66 0 141 30l45 -210q-87 -35 -211 -35q-102 0 -188 34t-142 90.5t-87 129t-31 151.5q0 49 10 101q-82 10 -135 26v174h332q113 0 168 45.5t55 124.5q0 72 -47 114t-135 42t-166 -37z" />
    <glyph glyph-name="gjLL_R" horiz-adv-x="1107" 
d="M936 578q0 -169 -106 -265t-295 -96q-204 0 -325.5 120.5t-121.5 354.5q0 183 80.5 321t208.5 232l172 -153q-73 -58 -117.5 -109.5t-73 -124.5t-28.5 -162q0 -80 16 -135t46 -83.5t63.5 -40t76.5 -11.5q83 0 126.5 42.5t43.5 141.5q0 47 -15 114.5t-15 127.5
q0 168 108 279.5t293 111.5q150 0 252 -76l-119 -190q-58 51 -131 51q-82 0 -124 -50.5t-42 -141.5q0 -48 13.5 -125t13.5 -133zM1368 291l-565 -408l-258 119l715 430z" />
    <glyph glyph-name="gjK_SS_R" horiz-adv-x="1185" 
d="M1329 463l51 -209l-301 -297l-207 123zM1008 -201l-250 -59l-121 264q-89 -39 -197 -39q-71 0 -135.5 24.5t-116 70t-82 118t-30.5 160.5q0 119 71.5 199t196.5 137q-73 37 -120.5 104t-47.5 154q0 141 110.5 229t268.5 88q93 0 169 -27.5t122 -72.5t71 -98t25 -107
q0 -74 -33 -140.5t-96 -101.5q11 -3 31.5 -4.5t35.5 -1.5h15q68 0 203.5 23t183.5 59v-217q-44 -17 -131.5 -27t-142.5 -12t-93 -2q-50 0 -156 13t-165 32q-143 -47 -210 -99t-67 -132q0 -78 43.5 -127t106.5 -49q75 0 129 51v162l168 41q37 -27 64.5 -77.5t27.5 -107.5
q0 -94 -59 -153zM410 924q0 -64 43.5 -112t103.5 -62q75 21 118.5 67t43.5 111q0 57 -42 94t-112 37q-71 0 -113 -37.5t-42 -97.5z" />
    <glyph glyph-name="gjJ_NY_R" horiz-adv-x="1042" 
d="M1247 547l-26 -309l-230 -328l-207 123zM1190 961h10v-299q-137 112 -293.5 182.5t-296.5 70.5q-92 0 -140 -29.5t-48 -78.5q0 -33 31 -63.5t77 -53.5t100 -55.5t100 -68t77 -93.5t31 -129q0 -140 -73.5 -219.5t-209.5 -93.5v-8l326 -216l-252 -120l-330 325
q-67 3 -120.5 21.5t-87 44.5t-55.5 59t-31 64t-9 61l125 117l235 -164q130 -21 185 10.5t55 108.5q0 35 -23.5 63t-61.5 49.5t-83.5 43.5t-91 50t-83.5 62.5t-61.5 88t-23.5 120.5q0 132 117.5 222.5t322.5 90.5q87 0 173.5 -18t141.5 -38.5t138.5 -55.5t128.5 -51z" />
    <glyph glyph-name="gjK_KA" horiz-adv-x="2275" 
d="M1075 326q0 -63 -28.5 -121.5t-85.5 -108t-156 -79t-227 -29.5q-144 0 -258.5 39.5t-180.5 89.5l115 184q60 -46 148.5 -77t187.5 -31q117 0 179 38.5t62 104.5q0 55 -64 100.5t-200 98.5q-128 -39 -295 -78l-170 -37v201l228 43v8q-80 43 -128 108.5t-48 145.5
q0 135 123.5 225t332.5 90q253 0 389 -100l-114 -185q-44 32 -125 56t-152 24q-213 0 -213 -116q0 -108 240 -199l518 2q81 0 203 -12l2 8q-133 86 -133 213q0 133 124.5 221t331.5 88q250 0 390 -100l-117 -185q-44 32 -124 56t-151 24q-213 0 -213 -116q0 -113 238 -199
q158 49 289 78l178 39v-197l-221 -43v-8q91 -43 142.5 -109.5t51.5 -152.5q0 -64 -28 -122.5t-85 -108.5t-156 -79.5t-228 -29.5q-144 0 -258.5 39.5t-180.5 89.5l117 184q60 -46 147.5 -77t186.5 -31q117 0 179.5 38.5t62.5 104.5q0 24 -15 47.5t-36.5 41.5t-62.5 40.5
t-75 37.5t-92 40l-508 2q-99 0 -184 10l-2 -8q70 -40 109.5 -96.5t39.5 -124.5z" />
    <glyph glyph-name="gjK_KHA" horiz-adv-x="2775" 
d="M330 664v8q-77 40 -126.5 105t-49.5 149q0 135 123.5 225t332.5 90q253 0 389 -100l-114 -185q-44 32 -125 56t-152 24q-106 0 -159.5 -29.5t-53.5 -84.5q0 -111 236 -199q3 1 69.5 17t96.5 21.5t93 17t119.5 16t114.5 4.5h191v133q0 40 -20 63t-58 23q-33 0 -63 -12v196
q78 29 147 29q102 0 165.5 -66.5t63.5 -191.5v-391q0 -179 152 -179q145 0 145 179v434h234v-256h282v469h240v-1229h-240v549h-282q-8 -167 -107 -261.5t-274 -94.5q-181 0 -283 101t-102 277v52h-195q-63 0 -137 -9t-102 -16v-8q194 -95 194 -262q0 -64 -28 -122.5
t-85 -108.5t-156 -79.5t-228 -29.5q-144 0 -258.5 39.5t-180.5 89.5l115 184q60 -46 148.5 -77t187.5 -31q117 0 179 38.5t62 104.5q0 55 -64 100.5t-200 98.5q-180 -55 -465 -115v201z" />
    <glyph glyph-name="gjK_CA" horiz-adv-x="2596" 
d="M330 664v8q-77 40 -126.5 105t-49.5 149q0 135 123.5 225t332.5 90q253 0 389 -100l-114 -185q-44 32 -125 56t-152 24q-106 0 -159.5 -29.5t-53.5 -84.5q0 -111 236 -199q3 1 69.5 17t96.5 21.5t93 17t119.5 16t114.5 4.5h129q3 6 11 15t10 11l129 19l45 -156h6
q115 0 169 51.5t54 124.5q0 76 -42.5 120t-114.5 44q-88 0 -154 -39l-66 205q92 45 224 45q179 0 284 -102t105 -260q0 -146 -98.5 -259t-274.5 -137q33 -94 99.5 -135t175.5 -41q78 0 147 25t113.5 63t73 78.5t38.5 77.5v680h238v-1229h-238v238h-10q-13 -14 -27.5 -28
t-47.5 -36.5t-69.5 -38.5t-93 -28.5t-118.5 -12.5q-188 0 -322 109.5t-182 279.5q-104 34 -115 142h-82q-62 0 -135 -10t-104 -17v-8q194 -95 194 -262q0 -64 -28 -122.5t-85 -108.5t-156 -79.5t-228 -29.5q-144 0 -258.5 39.5t-180.5 89.5l115 184q60 -46 148.5 -77
t187.5 -31q117 0 179 38.5t62 104.5q0 55 -64 100.5t-200 98.5q-180 -55 -465 -115v201z" />
    <glyph glyph-name="gjK_JA" horiz-adv-x="2445" 
d="M1923 952l12 -14l285 291h274v-23l-421 -428q108 -124 162.5 -220.5t54.5 -205.5q0 -144 -104 -247t-288 -103q-171 0 -276.5 100t-105.5 242q0 104 49.5 187.5t152.5 187.5l64 63l-17 19q-117 135 -178.5 181t-122.5 46q-55 0 -91 -33.5t-36 -83.5q0 -59 47 -100.5
t144 -44.5v-16l-133 -150h-4l-2 -8h-299q-104 0 -195 -12v-9q38 -19 65 -37.5t55.5 -47.5t44 -69t15.5 -89q0 -64 -28 -122.5t-85 -108.5t-156 -79.5t-228 -29.5q-144 0 -258.5 39.5t-180.5 89.5l115 184q60 -46 148.5 -77t187.5 -31q117 0 179 38.5t62 104.5
q0 55 -64 100.5t-200 98.5q-180 -55 -465 -115v201l228 43v8q-77 40 -126.5 105t-49.5 149q0 135 123.5 225t332.5 90q253 0 389 -100l-114 -185q-44 32 -125 56t-152 24q-106 0 -159.5 -29.5t-53.5 -84.5q0 -111 236 -199q10 2 57 9.5t66.5 10.5t67 9t82.5 8.5t87 5
t105 2.5h39q-33 62 -33 141q0 145 103.5 239.5t252.5 94.5q70 0 129.5 -18.5t117 -60t105.5 -89t113 -123.5zM1905 201q74 0 117.5 45.5t43.5 111.5q0 56 -32 110t-115 153l-12 -13q-103 -103 -134.5 -157.5t-31.5 -102.5q0 -63 46 -105t118 -42z" />
    <glyph glyph-name="gjK_TTA" horiz-adv-x="2228" 
d="M1075 328q0 -64 -28 -122.5t-85 -108.5t-156 -79.5t-228 -29.5q-144 0 -258.5 39.5t-180.5 89.5l115 184q60 -46 148.5 -77t187.5 -31q117 0 179 38.5t62 104.5q0 55 -64 100.5t-200 98.5q-180 -55 -465 -115v201l228 43v8q-77 40 -126.5 105t-49.5 149q0 135 123.5 225
t332.5 90q253 0 389 -100l-114 -185q-44 32 -125 56t-152 24q-106 0 -159.5 -29.5t-53.5 -84.5q0 -111 236 -199q276 65 450 65q261 0 439 -102q28 14 75.5 36.5t75 36t62.5 34t54 37.5t32.5 39t13.5 46q0 47 -42 78t-118 31q-144 0 -248 -66l-108 193q138 88 352 88
q101 0 181 -27t128.5 -72t73.5 -100t25 -114q0 -75 -32.5 -137.5t-85 -105t-115.5 -79t-126 -66.5t-115.5 -58t-85 -62.5t-32.5 -73.5q0 -61 59.5 -101t167.5 -40q123 0 216.5 39.5t137.5 87.5l125 -180q-56 -59 -179 -108.5t-290 -49.5q-119 0 -215 31t-154 82.5t-89 114
t-31 128.5q0 120 94 211q-115 51 -264 51q-105 0 -178 -18v-8q190 -85 190 -256z" />
    <glyph glyph-name="gjK_TTHA" horiz-adv-x="2435" 
d="M1536 707v8q-53 27 -93 82.5t-40 136.5q0 60 27 114t78 97.5t133 69.5t184 26q100 0 197.5 -25.5t160.5 -64.5l-102 -188q-117 69 -266 69q-78 0 -125.5 -27t-47.5 -73q0 -39 40 -69t103.5 -52t140 -44.5t153.5 -53.5t140.5 -72t103.5 -107.5t40 -152.5q0 -78 -36 -149
t-103.5 -127t-176.5 -89.5t-243 -33.5q-259 0 -412 111.5t-153 281.5q0 123 86 209q-130 24 -268 24q-124 0 -174 -10v-8q192 -94 192 -262q0 -64 -28 -122.5t-85 -108.5t-156 -79.5t-228 -29.5q-144 0 -258.5 39.5t-180.5 89.5l115 184q60 -46 148.5 -77t187.5 -31
q117 0 179 38.5t62 104.5q0 55 -64 100.5t-200 98.5q-180 -55 -465 -115v201l228 43v8q-77 40 -126.5 105t-49.5 149q0 135 123.5 225t332.5 90q253 0 389 -100l-114 -185q-44 32 -125 56t-152 24q-106 0 -159.5 -29.5t-53.5 -84.5q0 -111 236 -199q79 21 199.5 35t236.5 14
q261 0 465 -67zM2122 377q0 54 -49.5 94.5t-96.5 57t-159 48.5q-24 7 -37 11q-127 -14 -213 -69.5t-86 -137.5q0 -84 85.5 -140.5t237.5 -56.5q153 0 235.5 57t82.5 136z" />
    <glyph glyph-name="gjK_NNA" horiz-adv-x="2875" 
d="M330 664v8q-77 40 -126.5 105t-49.5 149q0 135 123.5 225t332.5 90q253 0 389 -100l-114 -185q-44 32 -125 56t-152 24q-106 0 -159.5 -29.5t-53.5 -84.5q0 -111 236 -199q3 1 69.5 17t96.5 21.5t93 17t119.5 16t114.5 4.5h162v430h240v-748q0 -172 94 -257t264 -85
q101 0 187 28t141 64l90 -192q-179 -113 -416 -113q-121 0 -221 29t-169.5 80t-117 121t-70 151t-22.5 172v144h-166q-63 0 -137 -9t-102 -16v-8q194 -95 194 -262q0 -64 -28 -122.5t-85 -108.5t-156 -79.5t-228 -29.5q-144 0 -258.5 39.5t-180.5 89.5l115 184
q60 -46 148.5 -77t187.5 -31q117 0 179 38.5t62 104.5q0 55 -64 100.5t-200 98.5q-180 -55 -465 -115v201zM2300 813q0 -181 -115.5 -294t-308.5 -113q-85 0 -162 22v207q62 -23 139 -23q91 0 154.5 51t63.5 152q0 100 -62 154.5t-156 54.5q-66 0 -114 -14v207q72 20 149 20
q177 0 294.5 -114t117.5 -310zM2703 0h-237v1229h237v-1229z" />
    <glyph glyph-name="gjK_TA" horiz-adv-x="2461" 
d="M330 664v8q-77 40 -126.5 105t-49.5 149q0 135 123.5 225t332.5 90q253 0 389 -100l-114 -185q-44 32 -125 56t-152 24q-106 0 -159.5 -29.5t-53.5 -84.5q0 -111 236 -199q3 1 69.5 17t96.5 21.5t93 17t119.5 16t114.5 4.5h252q69 85 173.5 131.5t228.5 46.5h270v252h242
v-1229h-242v754h-242q-131 0 -207.5 -72t-76.5 -195q0 -136 88 -208t221 -60v-213q-106 -15 -206.5 11.5t-178.5 87t-125 160t-47 222.5q0 67 16 136h-170q-63 0 -137 -9t-102 -16v-8q194 -95 194 -262q0 -64 -28 -122.5t-85 -108.5t-156 -79.5t-228 -29.5
q-144 0 -258.5 39.5t-180.5 89.5l115 184q60 -46 148.5 -77t187.5 -31q117 0 179 38.5t62 104.5q0 55 -64 100.5t-200 98.5q-180 -55 -465 -115v201z" />
    <glyph glyph-name="gjK_T_YA" horiz-adv-x="3303" 
d="M330 664v8q-77 40 -126.5 105t-49.5 149q0 135 123.5 225t332.5 90q253 0 389 -100l-114 -185q-44 32 -125 56t-152 24q-106 0 -159.5 -29.5t-53.5 -84.5q0 -111 236 -199q5 1 43 10t52.5 12t54 11.5t63 12t63 10t71 9t70.5 5t76 2.5h244q67 76 164 116.5t207 40.5
q159 0 268.5 -66.5t167.5 -170.5q276 73 276 198q0 51 -38 80t-107 29q-52 0 -137 -33l-70 207q110 35 217 35q170 0 271.5 -86.5t101.5 -222.5q0 -140 -110 -241t-302 -146q1 -21 11.5 -46t34 -53.5t56 -51.5t83.5 -38.5t112 -15.5q128 0 211.5 69.5t108.5 163.5v666h237
v-1229h-233v262h-8q-128 -139 -346 -139q-190 0 -322.5 105t-187.5 278q-25 96 -94.5 158.5t-176.5 62.5q-111 0 -185.5 -66t-74.5 -182q0 -133 95 -203.5t227 -56.5v-213q-105 -15 -207.5 11.5t-183 86.5t-130 158.5t-49.5 218.5q0 79 21 144h-156q-62 0 -135 -10t-104 -17
v-8q194 -95 194 -262q0 -64 -28 -122.5t-85 -108.5t-156 -79.5t-228 -29.5q-144 0 -258.5 39.5t-180.5 89.5l115 184q60 -46 148.5 -77t187.5 -31q117 0 179 38.5t62 104.5q0 55 -64 100.5t-200 98.5q-180 -55 -465 -115v201z" />
    <glyph glyph-name="gjK_T_RA" horiz-adv-x="2398" 
d="M1495 846q-135 0 -215 -184q-218 -24 -397 -64v-8q83 -39 137.5 -104.5t54.5 -157.5q0 -64 -28 -122.5t-85 -108.5t-156 -79.5t-228 -29.5q-144 0 -258.5 39.5t-180.5 89.5l115 184q60 -46 148.5 -77t187.5 -31q117 0 179 38.5t62 104.5q0 55 -64 100.5t-200 98.5
q-180 -55 -465 -115v201l228 43v8q-77 40 -126.5 105t-49.5 149q0 135 123.5 225t332.5 90q253 0 389 -100l-114 -185q-44 32 -125 56t-152 24q-106 0 -159.5 -29.5t-53.5 -84.5q0 -111 236 -199q303 71 479 92q47 103 144 177.5t227 74.5q312 0 467 -387l43 27v522h235
v-1229h-239v461l-566 -375l-180 160l514 329q-60 140 -118.5 205.5t-141.5 65.5z" />
    <glyph glyph-name="gjK_T_VA" horiz-adv-x="3133" 
d="M330 664v8q-77 40 -126.5 105t-49.5 149q0 135 123.5 225t332.5 90q253 0 389 -100l-114 -185q-44 32 -125 56t-152 24q-106 0 -159.5 -29.5t-53.5 -84.5q0 -111 236 -199q5 1 43 10t52.5 12t54 11.5t63 12t63 10t71 9t70.5 5t76 2.5h244q68 87 173 134.5t233 47.5h219
q63 112 177 174.5t251 62.5q62 0 106 -8v-225q-52 10 -88 10q-113 0 -187.5 -69t-74.5 -187q0 -115 72.5 -187.5t193.5 -72.5q125 0 203 90.5t78 237.5v426h237v-1229h-237v383h-10q-42 -48 -121 -84.5t-191 -36.5q-203 0 -337 137t-134 340v15h-129q-132 0 -209 -72
t-77 -195q0 -136 89 -208t222 -60v-213q-106 -14 -206.5 13t-179 87.5t-126 160t-47.5 220.5q0 69 16 138h-164q-62 0 -135 -10t-104 -17v-8q194 -95 194 -262q0 -64 -28 -122.5t-85 -108.5t-156 -79.5t-228 -29.5q-144 0 -258.5 39.5t-180.5 89.5l115 184q60 -46 148.5 -77
t187.5 -31q117 0 179 38.5t62 104.5q0 55 -64 100.5t-200 98.5q-180 -55 -465 -115v201z" />
    </font>
</defs>
</svg>
